<?xml version="1.0" encoding="UTF-8" standalone="no"?>
<!-- Created with Inkscape (http://www.inkscape.org/) -->

<svg
   xmlns:dc="http://purl.org/dc/elements/1.1/"
   xmlns:cc="http://creativecommons.org/ns#"
   xmlns:rdf="http://www.w3.org/1999/02/22-rdf-syntax-ns#"
   xmlns:svg="http://www.w3.org/2000/svg"
   xmlns="http://www.w3.org/2000/svg"
   xmlns:sodipodi="http://sodipodi.sourceforge.net/DTD/sodipodi-0.dtd"
   xmlns:inkscape="http://www.inkscape.org/namespaces/inkscape"
   width="1000"
   height="1000"
   viewBox="0 0 999.99999 1000"
   id="svg2"
   version="1.1"
   inkscape:version="0.91 r13725"
   sodipodi:docname="logo_outlined.svg"
   inkscape:export-filename="/home/niels/workspace/needleandstitch/WebContent/images/logo/logo16.png"
   inkscape:export-xdpi="1.4400001"
   inkscape:export-ydpi="1.4400001">
  <defs
     id="defs4" />
  <sodipodi:namedview
     id="base"
     pagecolor="#000000"
     bordercolor="#666666"
     borderopacity="1.0"
     inkscape:pageopacity="0"
     inkscape:pageshadow="2"
     inkscape:zoom="1.609375"
     inkscape:cx="446.67637"
     inkscape:cy="456.04926"
     inkscape:document-units="px"
     inkscape:current-layer="g4219"
     showgrid="false"
     units="px"
     inkscape:window-width="3840"
     inkscape:window-height="2034"
     inkscape:window-x="0"
     inkscape:window-y="60"
     inkscape:window-maximized="1" />
  <metadata
     id="metadata7">
    <rdf:RDF>
      <cc:Work
         rdf:about="">
        <dc:format>image/svg+xml</dc:format>
        <dc:type
           rdf:resource="http://purl.org/dc/dcmitype/StillImage" />
        <dc:title></dc:title>
      </cc:Work>
    </rdf:RDF>
  </metadata>
  <g
     inkscape:label="Layer 1"
     inkscape:groupmode="layer"
     id="layer1"
     transform="translate(0,-52.362161)">
    <g
       id="g4219"
       transform="matrix(1.112774,0,0,1.1421233,-379.49929,325.26994)">
      <path
         style="fill:#ad2a2f;stroke:#ffffff;stroke-opacity:1;stroke-width:1.77406699;stroke-miterlimit:4;stroke-dasharray:none"
         d="m 890.81548,635.47368 c -15.87864,-3.14147 -28.45833,-16.35929 -28.45833,-29.90195 0,-2.59022 -0.45,-4.67645 -1,-4.63606 -0.55,0.0404 -4.18696,4.24885 -8.08212,9.35214 -12.02269,15.75164 -25.37129,23.90776 -39.12835,23.90776 -17.09561,0 -24.82777,-11.55798 -21.51084,-32.15425 l 1.27951,-7.94505 -14.98033,15.79348 c -17.57682,18.53089 -26.56519,24.30582 -37.83072,24.30582 -11.10288,0 -19.2036,-5.12521 -21.48356,-13.59237 l -1.39184,-5.16889 -6.93588,6.0805 c -9.67026,8.47768 -17.18935,11.85027 -27.60254,12.38074 -10.49752,0.53477 -16.6193,-2.14692 -20.6213,-9.03331 -3.44666,-5.93076 -3.54063,-22.12639 -0.19992,-34.45601 5.05384,-18.65239 21.54525,-52.48207 37.7133,-77.3633 3.98591,-6.13394 6.89743,-11.5023 6.47004,-11.92968 -0.42737,-0.42737 -8.10869,-0.78909 -17.06958,-0.80381 -14.71344,-0.0241 -17.06791,0.31332 -24.29254,3.48204 -7.89512,3.46279 -8.01328,3.47333 -9.01325,0.80447 -0.9126,-2.4357 -1.74757,-2.61258 -8.4056,-1.78071 -23.39863,2.92347 -52.72871,17.23295 -65.77235,32.08883 -7.72085,8.79357 -3.1142,10.42788 16.5712,5.879 34.39175,-7.94722 55.91452,3.86876 53.59718,29.42478 -2.27735,25.11503 -26.2454,47.69867 -64.61119,60.8792 -8.38359,2.88019 -12.91587,3.5817 -23.69932,3.66822 -12.09375,0.0971 -14.05659,-0.24816 -21.1128,-3.71295 -8.92164,-4.38076 -12.87476,-9.66904 -12.88221,-17.2332 -0.009,-9.49385 9.18298,-22.07487 20.27522,-27.74947 10.11508,-5.1747 12.19072,-1.20517 4.30511,8.23328 -13.03791,15.60536 -11.16867,22.58096 6.04469,22.55739 23.3103,-0.032 61.29748,-21.44403 70.57891,-39.78295 5.62637,-11.117 4.1942,-20.69874 -3.70433,-24.78324 -5.85366,-3.02704 -18.00378,-2.59637 -30.26962,1.07292 -14.9135,4.46134 -20.79948,5.23808 -27.01332,3.56487 -7.2665,-1.95667 -10.88832,-6.77491 -10.88832,-14.48519 0,-8.041 3.92632,-15.78313 12.33779,-24.32832 15.31827,-15.5618 41.85937,-28.41436 64.57359,-31.26984 9.08426,-1.14201 21.29152,1.43868 25.175,5.32218 l 3.02816,3.02814 7.77606,-2.72314 c 5.94111,-2.08056 12.18094,-2.85694 26.44274,-3.29012 18.3432,-0.55714 18.73598,-0.63267 22.66666,-4.3584 9.69728,-9.19164 23.80162,-8.59178 24.91284,1.05957 l 0.4205,3.65211 22,0.39086 c 33.61058,0.59714 49.43582,-2.1606 57.67272,-10.05018 3.11918,-2.98766 4.22445,-3.32502 7.33333,-2.23832 2.98021,1.04172 3.73753,2.20438 4.07444,6.25525 0.40777,4.90303 0.49691,4.97572 6.10091,4.97572 4.43197,0 6.40048,-0.77357 8.91952,-3.50517 8.84149,-9.58755 24.35129,-9.27118 25.47858,0.51973 l 0.4205,3.65211 22,0.39086 c 33.49976,0.59518 48.49956,-2.0961 58.96148,-10.57889 3.08788,-2.50372 4.13024,-2.71301 7,-1.40547 4.42898,2.01799 4.46117,7.37139 0.0831,13.81439 -7.57865,11.153 -20.14986,14.98704 -49.37785,15.05953 -11.73333,0.0291 -27.33333,-0.36749 -34.66667,-0.88132 l -13.33333,-0.93421 -14.32143,15.77756 c -11.73901,12.9326 -16.00032,18.85811 -23.63221,32.86148 -10.44108,19.1578 -21.06076,44.53036 -22.24041,53.13683 -2.08144,15.18574 9.16102,15.44312 28.3373,0.64872 9.37672,-7.23408 27.13212,-27.86198 31.6152,-36.72994 1.90196,-3.76225 7.17631,-11.77488 11.72078,-17.80584 23.50536,-31.19396 57.0072,-44.55246 74.60253,-29.74697 5.59001,4.70369 7.91824,9.8338 7.91824,17.44743 0,16.4207 -20.11103,39.63481 -27.73333,32.0125 -2.5995,-2.59949 -1.85554,-6.23773 2.34712,-11.47818 8.23161,-10.26434 9.8971,-23.11304 3.3201,-25.61362 -7.70958,-2.93118 -26.90225,8.18108 -39.08585,22.6301 -11.74479,13.9286 -20.1814,32.15582 -20.1814,43.6017 0,15.60303 16.08481,20.78048 38.80197,12.48975 14.69771,-5.364 28.35778,-14.14 41.76874,-26.83459 9.78668,-9.2639 12.30102,-12.67536 20.29976,-27.54258 24.51604,-45.56802 54.88714,-81.65258 68.72384,-81.65258 5.0526,0 9.0723,4.29183 9.0723,9.68642 0,9.05305 -7.1289,18.64148 -35.9235,48.3175 -18.6293,19.1995 -19.8044,20.74404 -29.22298,38.40902 -5.39726,10.1228 -9.53848,18.67982 -9.2027,19.01561 0.33578,0.33577 10.57972,-11.32496 22.76428,-25.91275 25.0457,-29.98556 36.3569,-41.02792 47.9722,-46.83218 10.1957,-5.09486 17.8325,-5.31359 25.646,-0.73458 6.9569,4.07696 9.2664,9.17611 8.2071,18.12023 -1.0801,9.11973 -7.8101,21.27005 -23.5944,42.5974 -19.6471,26.54673 -23.6138,35.73453 -16.7733,38.85127 2.6376,1.20176 4.588,0.82913 11,-2.10162 6.3017,-2.88032 11.8175,-7.63293 28.8087,-24.82268 19.615,-19.84433 23.7126,-23.06492 25.5543,-20.08504 1.6366,2.64816 -20.7606,30.93491 -35.8224,45.24214 -20.7777,19.7368 -38.4729,22.69449 -48.5426,8.11378 -2.7065,-3.91898 -3.0482,-5.70212 -2.5288,-13.19785 0.794,-11.45837 4.7932,-19.12025 24.3581,-46.66667 15.9958,-22.52109 20.0109,-29.55754 18.7465,-32.85254 -2.7381,-7.1353 -15.3331,-0.32046 -35.7072,19.32025 -25.9174,24.98448 -47.73943,52.27028 -57.74168,72.19896 -4.25163,8.47103 -5.19506,9.28523 -10.79091,9.31292 -8.14885,0.0403 -11.17157,-7.51387 -7.98448,-19.95428 1.16113,-4.53237 2.11116,-8.55159 2.11116,-8.93159 0,-0.38 -3.45,2.28795 -7.66667,5.92878 -15.3921,13.29012 -31.87382,21.76341 -47.1562,24.24312 -9.46588,1.53593 -9.02025,1.5356 -16.7188,0.012 z M 759.28372,613.53149 c 4.04776,-2.68757 14.68484,-12.01504 23.63795,-20.7277 15.3204,-14.90898 16.57533,-16.53074 21.32455,-27.55804 6.18829,-14.36872 18.62366,-37.28426 28.32845,-52.20282 3.99024,-6.13394 7.05828,-11.34933 6.81788,-11.58974 -1.59153,-1.59154 -13.84393,-0.52071 -21.50919,1.87984 -5.02724,1.5744 -10.76066,2.86254 -12.74096,2.86254 -1.98028,0 -5.63364,1.5 -8.11858,3.33334 -2.48495,1.83333 -5.87328,3.33333 -7.52964,3.33333 -3.37994,0 -9.8037,-2.61556 -9.8037,-3.99177 0,-0.49339 -9.23074,-1.63439 -20.51277,-2.53556 l -20.51276,-1.6385 -7.15391,7.72275 c -3.93464,4.24751 -10.55552,11.3354 -14.71306,15.75087 -8.99327,9.5512 -23.48687,35.33721 -32.44659,57.7267 -6.80957,17.01647 -8.44392,25.05491 -6.01632,29.59092 1.40817,2.6312 2.38883,2.93824 7.53251,2.35848 11.6584,-1.31406 28.65597,-15.72816 46.88121,-39.75562 5.24049,-6.90888 13.52936,-17.55139 18.41971,-23.65002 4.89034,-6.09862 10.26181,-14.49862 11.93658,-18.66666 1.7945,-4.466 4.3196,-8.26788 6.14856,-9.25748 5.68386,-3.07539 14.43684,1.17246 14.43684,7.00625 0,4.77987 -7.40624,18.0018 -16.06109,28.67297 -16.49723,20.34056 -29.26869,41.75826 -29.27119,49.08766 -5.7e-4,1.69821 0.6581,4.31928 1.46371,5.8246 2.1424,4.0031 10.30565,2.50301 19.46181,-3.57634 z M 363.23622,465.58443 c -3.57877,-2.71176 -1.78416,-6.7362 6.69572,-15.01522 9.14163,-8.92508 26.99086,-17.74264 45.09188,-22.27549 22.67268,-5.67769 43.19349,-7.59575 89.33333,-8.34987 43.89856,-0.7175 62.05483,-0.0779 196,6.90498 127.71771,6.65818 172.31739,8.33624 252.25112,9.49088 109.25763,1.57822 185.38413,-3.36527 228.17673,-14.81731 16.026,-4.28884 24.3844,-8.67208 33.9717,-17.81508 16.4756,-15.71208 19.3662,-28.67361 8.6055,-38.58769 -6.9954,-6.44508 -61.3571,-18.71359 -98.3384,-22.19331 l -10,-0.94095 3.5952,3.77176 c 11.8093,12.38938 12.7164,34.74667 2.0534,50.61178 -24.3642,36.2506 -93.0367,27.12821 -113.9236,-15.1335 -4.4296,-8.96266 -5.0066,-11.34228 -5.5031,-22.69329 l -0.5546,-12.68072 -8.43279,0.86397 c -4.63804,0.47519 -18.83496,2.57738 -31.54872,4.67154 l -23.11591,3.80756 -9.07545,6.86918 c -17.56625,13.29586 -31.00876,18.09508 -48.16207,17.19476 -8.67697,-0.45542 -12.12454,-1.2837 -16.83618,-4.04492 l -5.9249,-3.47221 -39.28564,8.51169 c -75.41492,16.33952 -118.12084,22.75276 -160.61896,24.12048 -50.16902,1.6146 -80.10704,-5.24444 -100.40962,-23.00465 l -7.0017,-6.12491 -8.54677,2.31351 c -12.39129,3.35416 -27.62417,2.29845 -35.77717,-2.47952 -16.19719,-9.49219 -18.79263,-28.71192 -7.05259,-52.22564 9.93181,-19.89208 24.09433,-34.5024 40.28007,-41.55367 l 8.20108,-3.57278 5.81736,-12.77011 c 3.19954,-7.02356 8.28516,-17.57011 11.30134,-23.43677 l 5.48399,-10.66667 -2.44636,-5.33333 c -3.01449,-6.57191 -3.23032,-18.11318 -0.488,-26.09582 2.95887,-8.61302 13.83277,-22.62778 24.23316,-31.23276 11.85625,-9.80953 23.24481,-16.67392 56.40521,-33.99789 37.63992,-19.66423 65.15219,-36.21296 117.33334,-70.576467 l 20.66666,-13.60988 1.60654,3.756414 c 3.39818,7.945693 3.24688,8.109213 -24.60654,26.59028 -36.78342,24.406243 -60.92366,38.720323 -107.66666,63.841493 -30.80267,16.55433 -40.68959,22.71444 -53.45754,33.30707 -16.40388,13.6091 -22.54153,22.108 -24.08196,33.34662 -0.91422,6.67002 0.3763,7.60402 4.33284,3.13584 9.35514,-10.56482 23.75208,-13.5242 34.66906,-7.12642 16.61865,9.73918 15.8992,27.96356 -1.4624,37.0437 -7.55608,3.95184 -21.89304,3.88492 -29.63032,-0.1383 l -5.63032,-2.92767 -1.9609,3.00856 c -1.07849,1.65471 -3.8857,8.10856 -6.23826,14.34189 -2.35255,6.23334 -5.38651,12.92596 -6.74212,14.8725 -2.84075,4.07906 -3.04514,5.1275 -0.99959,5.1275 3.79327,0 11.10277,4.91538 14.1444,9.51159 2.93435,4.43409 3.30091,6.20512 2.82645,13.65607 -0.4549,7.14418 -1.3653,9.79652 -5.50025,16.0242 -5.53165,8.33126 -14.56564,15.61078 -23.60243,19.01862 -3.3,1.24447 -6.21113,2.41734 -6.46917,2.60638 -0.9376,0.68689 3.9262,13.26734 6.34663,16.4159 l 2.48516,3.23276 10.29385,-6.41588 c 12.78435,-7.96813 28.63985,-23.43405 33.15108,-32.3365 7.83291,-15.45751 22.98727,-30.58572 38.16724,-38.10139 7.31863,-3.62348 10.08224,-4.27049 18.05361,-4.22671 15.86119,0.0872 24.66656,7.9968 24.60899,22.10567 -0.0383,9.37523 -3.55335,16.88557 -11.72989,25.06212 -12.03092,12.03092 -28.77162,17.60979 -44.91935,14.96948 -4.39348,-0.71839 -9.02981,-1.71577 -10.30295,-2.21643 -2.91422,-1.14601 -5.01853,3.80919 -5.01853,11.81758 0,31.13201 60.24844,12.69332 86.72369,-26.5413 19.60916,-29.05952 41.17512,-45.87213 58.88024,-45.90246 9.22218,-0.0157 14.1911,2.03937 15.26375,6.31318 1.15065,4.58454 -1.34911,6.32474 -9.26709,6.45124 -9.57943,0.15307 -17.05751,4.32882 -28.26726,15.78436 -16.96218,17.33414 -29.56369,37.63807 -31.92476,51.43819 -1.11928,6.54205 0.45334,8.49344 5.34578,6.63333 7.28297,-2.76898 25.90958,-16.28873 37.5889,-27.28316 11.50762,-10.83278 11.87008,-11.37102 24.80775,-36.83845 15.45672,-30.42609 22.50893,-41.49401 31.71021,-49.76676 5.53354,-4.97512 7.68504,-6.07829 11.85442,-6.07829 6.46492,0 9.28437,2.80294 9.28437,9.22998 0,9.00026 -7.461,20.54084 -25.66452,39.69759 -9.18039,9.66111 -11.53188,13.27188 -20.28968,31.15524 -13.61583,27.80345 -18.01627,41.25052 -13.49887,41.25052 3.08706,0 14.07683,-9.42985 26.47715,-22.71889 8.56011,-9.1736 13.29804,-15.68504 17.8632,-24.54976 6.95243,-13.50039 25.75212,-45.56743 30.9144,-52.73135 5.23287,-7.26188 15.15833,-17.34603 19.13211,-19.43795 1.98025,-1.04245 6.29622,-1.89538 9.59106,-1.89538 6.45046,0 10.15808,3.1599 10.12592,8.63001 -0.0408,6.93005 -15.74518,28.65356 -38.62145,53.42396 -9.47931,10.26419 -13.72709,16.17797 -18.70801,26.04535 -7.26639,14.39498 -11.25172,26.58562 -9.99046,30.55952 1.2568,3.95985 8.23895,3.46385 15.40811,-1.09458 8.07636,-5.13525 23.80552,-22.27129 31.82937,-34.67629 18.10323,-27.98788 27.47018,-37.6916 43.64355,-45.21264 14.77029,-6.86859 31.50111,-4.195 38.5362,6.15807 4.11967,6.06264 4.38704,16.8702 0.62253,25.16353 -5.81358,12.80752 -21.59521,24.07643 -37.95281,27.10029 -7.29421,1.34842 -20.27755,0.30672 -26.39927,-2.11808 -1.71641,-0.67986 -2.66426,0.003 -3.66666,2.63878 -1.63106,4.28998 -1.79174,14.95285 -0.23978,15.91201 1.56248,0.96567 54.68962,-5.86272 59.55458,-7.65451 2.2,-0.81026 9.3081,-6.78061 15.7958,-13.26742 7.23112,-7.23014 12.51977,-11.51639 13.66666,-11.07628 2.87996,1.10514 2.36908,2.52653 -4.68497,13.03488 -3.60572,5.37138 -6.44448,9.87753 -6.30835,10.01365 0.13612,0.13613 4.43626,-0.25859 9.55584,-0.87713 5.11959,-0.61855 17.77243,-1.85484 28.11742,-2.74731 l 18.80908,-1.62268 2.1625,-6.83323 c 7.5032,-23.70897 31.3617,-45.3845 55.4264,-50.35498 l 7.6194,-1.57376 -0.08,-13.45226 c -0.072,-12.09025 0.2941,-14.21381 3.6141,-20.97425 4.5014,-9.16627 13.2919,-17.52531 23.4058,-22.25696 6.6202,-3.09719 9.235,-3.5376 20.9002,-3.52036 12.0614,0.0179 14.0734,0.39181 21.091,3.92039 13.1365,6.60532 19.5997,16.19536 19.5464,29.00278 -0.075,18.0708 -16.0469,32.06695 -34.2517,30.015 -14.0754,-1.58649 -14.1385,-15.63884 -0.07,-15.63884 9.7256,0 14.5706,-9.21796 9.7474,-18.54508 -2.5154,-4.86421 -8.8685,-7.45492 -18.2814,-7.45492 -6.2237,0 -8.5685,0.70499 -13.3333,4.00887 -10.2375,7.09865 -15.23,22.40353 -11.9577,36.6578 1.7907,7.80055 -0.4325,11.56023 -7.4804,12.65021 -9.5821,1.48191 -21.0387,4.89576 -25.6767,7.65122 -10.515,6.24682 -23.9096,22.03161 -26.0502,30.69857 -0.9032,3.65697 -0.8867,3.66665 6.2389,3.6606 3.9295,-0.003 13.8946,-0.395 22.1446,-0.87039 13.2757,-0.76496 15,-1.1421 15,-3.28086 0,-3.86387 7.2681,-11.08262 15.6197,-15.51362 35.125,-18.63584 82.1842,-8.35934 89.656,19.5785 0.7852,2.93622 2.3001,3.55762 15.3314,6.28901 14.0156,2.93771 29.7284,9.20448 38.1954,15.23353 10.6347,7.57256 12.26,25.28259 3.7802,41.19226 -20.2494,37.99172 -76.987,54.79748 -202.5827,60.00526 -82.06846,3.40295 -160.43728,1.47159 -350.66668,-8.64201 -126.21558,-6.71029 -142.40794,-7.39615 -176.4221,-7.47261 -62.82405,-0.14127 -102.27133,5.16758 -125.35075,16.86978 -9.98267,5.06163 -12.34234,5.45544 -16.01475,2.67274 z m 726.29958,-69.02754 c 7.8144,-2.33332 18.8031,-13.34902 20.7936,-20.84481 3.2283,-12.15663 -2.8414,-24.3768 -15.2869,-30.77704 -6.5272,-3.35672 -7.0402,-3.40427 -35.3601,-3.27719 -19.4154,0.0871 -29.6972,0.64296 -31.6977,1.71359 -6.021,3.22232 -3.0212,24.77761 4.9582,35.62791 10.9704,14.9174 37.6815,23.20433 56.5929,17.55754 z M 689.0504,386.32153 c 23.08538,-4.33072 44.87362,-8.30637 48.4183,-8.83478 5.80782,-0.86578 6.35298,-1.24067 5.5153,-3.79263 -2.64649,-8.06239 -1.75764,-17.93064 2.7771,-30.83188 0.51553,-1.46667 -1.07556,-0.26667 -3.53576,2.66667 -21.77364,25.96113 -38.29668,36.32109 -52.03027,32.62302 -4.45439,-1.19944 -5.80513,-2.40089 -7.90892,-7.03476 -1.39541,-3.07354 -2.55028,-8.50808 -2.56639,-12.07674 l -0.0293,-6.48848 -5.05209,4.56426 c -7.54302,6.81466 -16.72071,12.8266 -26.69798,17.4888 -8.2598,3.85967 -9.99696,4.16991 -23.58326,4.21191 -13.6748,0.0423 -15.09258,-0.20504 -20.96456,-3.65679 -7.76044,-4.56182 -13.19967,-13.26644 -14.09187,-22.55176 l -0.63789,-6.63877 -7.48618,7.28856 c -4.1174,4.00871 -10.06193,9.113 -13.21009,11.34287 l -5.72392,4.05432 5.72392,3.92408 c 13.05376,8.94912 31.51749,15.87977 50.39059,18.91492 5.5,0.8845 10.9,1.78452 12,2.00004 7.55742,1.48068 21.92326,-0.27496 58.69325,-7.17286 z m 94.78371,-16.83962 6.14363,-0.86555 -0.14363,-7.82359 c -0.10507,-5.72462 -0.53072,-7.39077 -1.58647,-6.21038 -0.79356,0.88725 -4.69356,5.14389 -8.66666,9.45918 -4.76858,5.1793 -6.31748,7.58428 -4.55716,7.07595 1.46666,-0.42353 5.43129,-1.15955 8.81029,-1.63561 z m -241.87932,-6.43954 c 0.32668,-0.32666 -0.29719,-3.21872 -1.38635,-6.42678 -1.08917,-3.20807 -2.38704,-8.00092 -2.88416,-10.6508 -0.90374,-4.81739 -0.90486,-4.81807 -9.52145,-5.74082 -4.73968,-0.50758 -10.41267,-1.43769 -12.60664,-2.06692 -3.53075,-1.0126 -4.13513,-0.75977 -5.26071,2.20071 -1.9348,5.08892 -1.51965,14.22375 0.79671,17.53083 4.15131,5.92681 12.91064,8.4131 23.7668,6.74612 3.57601,-0.54911 6.76913,-1.26566 7.0958,-1.59234 z m 307.8994,-3.99912 c 0.09,-0.0996 -0.20997,-2.83693 -0.66667,-6.08305 l -0.83037,-5.90203 -3.88783,5.23536 c -2.13829,2.87946 -4.52465,6.06115 -5.30301,7.07043 -1.17588,1.52476 -0.40572,1.66809 4.55449,0.84768 3.28332,-0.54305 6.04335,-1.06883 6.13339,-1.16839 z M 1152.729,338.11033 c -1.2621,-0.73561 -6.9081,-2.51737 -12.5466,-3.95945 -10.3024,-2.63492 -34.5664,-3.63572 -41.7237,-1.72096 -5.9964,1.60416 7.3404,4.80568 23.8985,5.73688 25.9034,1.45676 32.9457,1.44367 30.3718,-0.0565 z m -619.12532,-9.21509 c 2.852,-1.08432 3.42014,-2.15108 3.42014,-6.42179 0,-2.8168 0.64126,-8.59038 1.42504,-12.83018 0.78376,-4.2398 1.12937,-8.00439 0.76801,-8.36576 -1.16615,-1.16614 -12.46204,10.14549 -17.64201,17.66657 -6.14455,8.92161 -5.82342,9.42653 7.02882,11.05172 0.86894,0.10987 3.11894,-0.38537 5,-1.10056 z m 106.14935,-2.11556 c 11.67735,-3.75959 25.55385,-21.49239 22.69751,-29.00515 -3.54922,-9.33513 -19.25447,-4.5918 -34.1648,10.31854 -7.08627,7.08628 -14.65298,17.82256 -13.42583,19.0497 1.53033,1.53034 9.76757,2.8243 14.16391,2.22496 2.56666,-0.3499 7.39481,-1.51452 10.72921,-2.58805 z m 259.12115,0.39751 c 5.82562,-1.70126 18.55638,-12.65555 21.64161,-18.62172 4.65256,-8.99706 1.74028,-15.69323 -6.82525,-15.69323 -4.94691,0 -17.86912,7.43227 -25.06603,14.41683 -7.14623,6.93538 -15.02399,18.70122 -13.50736,20.17392 2.91951,2.83489 13.52667,2.71176 23.75703,-0.2758 z m -346.06744,-7.03966 c 15.38278,-13.83045 17.05422,-27.27529 3.39081,-27.27529 -2.37412,0 -5.20981,0.89323 -6.30153,1.98495 -3.88606,3.88605 -8.28062,31.34838 -5.0164,31.34838 0.65401,0 4.22122,-2.72612 7.92712,-6.05804 z m 55.61429,-86.54938 c 7.61289,-3.18087 8.66779,-10.38363 2.25905,-15.42474 -5.54713,-4.36338 -10.53938,-3.43558 -17.16504,3.19006 -7.54846,7.54848 -7.46217,9.59118 0.50878,12.04222 8.1373,2.50219 8.84654,2.51167 14.39721,0.19246 z M 342.40406,376.94989 c -2.41157,-4.50605 -1.54483,-15.5895 1.94394,-24.8583 9.4019,-24.97855 40.44807,-70.29186 61.88478,-90.32366 8.67786,-8.10913 17.37578,-12.13464 23.66858,-10.9541 13.35803,2.50598 13.13207,12.75012 -1.29509,58.71508 -9.99977,31.85929 -12.79792,52.69862 -7.21826,53.75838 4.89169,0.92908 24.74618,-23.0362 42.63339,-51.46048 12.06962,-19.1796 17.9599,-30.5135 23.65212,-45.51061 5.04583,-13.29408 7.70358,-16.4734 11.68363,-13.97648 3.83391,2.40523 3.73895,13.84125 -0.21955,26.44163 -3.9781,12.66281 -18.56641,39.90926 -31.02653,57.948 -21.01243,30.42004 -34.58667,42.8045 -46.90586,42.79457 -15.53812,-0.012 -21.98051,-12.20021 -18.7451,-35.46193 0.7685,-5.52534 5.25972,-23.15631 9.98049,-39.17995 4.72077,-16.02364 8.58322,-29.48323 8.58322,-29.91019 0,-2.6912 -4.66258,0.35644 -11.56149,7.55706 -18.41752,19.22296 -49.7354,67.51706 -56.46173,87.06749 -3.45809,10.05109 -7.61061,12.93275 -10.59654,7.35349 z m 441.5831,-158.16325 c -2.62561,-1.83905 -2.96333,-3.24468 -2.96318,-12.33333 2.4e-4,-15.03215 6.73888,-66.25994 13.6053,-103.42874 l 2.92579,-15.837663 4.40104,9.6778 c 4.98764,10.967733 5.41139,16.353533 2.40945,30.624213 -3.03489,14.42735 -8.43604,53.81945 -9.32914,68.03999 -1.07087,17.05112 -1.7559,20.88616 -4.16022,23.29046 -2.54744,2.54746 -3.20981,2.54431 -6.88904,-0.0327 z m -20.314,-2.61195 c -2.04336,-2.46208 -1.33477,-16.15865 2.61392,-50.5254 3.47263,-30.22344 7.02843,-54.15696 11.2595,-75.785663 2.89837,-14.816174 3.80581,-17.421334 7.06793,-20.2912 4.729,-4.160334 6.75637,-4.203787 8.58788,-0.184054 1.14108,2.504387 0.56241,8.0384 -2.68384,25.666667 -5.84639,31.74792 -11.92871,75.89301 -13.51503,98.09125 -0.9035,12.64316 -2.01786,19.92639 -3.36289,21.97916 -2.30885,3.52376 -7.46348,4.06638 -9.96747,1.04924 z m 74.89587,-1.34593 c -1.52872,-1.94345 -3.31055,-7.43935 -4.21472,-13 -6.54544,-40.25409 -42.52184,-151.44152 -68.69289,-212.299853 -33.34211,-77.533974 -59.88471,-126.809257 -96.50278,-179.153577 -4.84549,-6.92648 -6.7109,-14.574 -3.97726,-16.30535 3.98572,-2.52435 7.69248,-1.17223 12.22394,4.45893 6.3441,7.88367 31.42486,47.45898 40.0799,63.24268 3.94806,7.19985 12.98634,23.67741 20.08505,36.6168 7.09872,12.93937 17.44904,33.93937 23.00073,46.666663 45.15922,103.5278 67.82348,168.245627 82.34648,235.140517 1.9105,8.8 4.40842,19.49056 5.55092,23.75682 1.89123,7.06197 1.88695,8.04733 -0.0477,11 -2.73527,4.17454 -6.50796,4.1272 -9.85167,-0.1236 z m -94.06923,-2.74224 c -0.44513,-1.15997 -0.80932,-4.38329 -0.80932,-7.16292 0,-7.50615 6.12203,-59.63573 9.9977,-85.1312 1.8614,-12.24492 3.7171,-24.460053 4.1238,-27.144747 0.40669,-2.684693 1.74573,-5.715853 2.97564,-6.735893 3.66302,-3.038013 13.93356,-9.38388 13.15894,-8.130533 -2.12381,3.4364 -13.67306,88.514813 -15.48393,114.063523 -1.2682,17.89257 -3.12861,22.35082 -9.32689,22.35082 -2.25939,0 -4.15808,-0.86378 -4.63594,-2.10905 z m 53.01696,-2.22428 c 0.44219,-1.65 0.81218,-4.30224 0.82219,-5.89388 0.0193,-3.06977 1.86923,-3.43781 24.36017,-4.84628 l 7.6753,-0.48067 1.41233,5.245 c 0.77679,2.88476 1.12065,5.53668 0.76416,5.89319 -1.0786,1.07859 -18.30279,2.99252 -27.34927,3.03901 -8.16114,0.042 -8.45781,-0.0721 -7.68488,-2.95637 z m 58.30796,-1.09979 c -1.37126,-2.25488 -3.20752,-7.80488 -4.08056,-12.33333 -2.46956,-12.80973 -10.15841,-43.03417 -18.20604,-71.56688 -19.35657,-68.628427 -45.08313,-136.75736 -73.25745,-194 -18.44325,-37.47173 -48.88739,-90.83647 -66.71045,-116.93504 -14.93548,-21.87023 -16.5744,-26.19566 -11.04656,-29.15407 4.69897,-2.51481 8.64528,1.70119 25.83349,27.59894 61.20049,92.211757 105.85187,194.71753 144.54185,331.8235 16.62924,58.92916 17.9641,68.66667 9.41315,68.66667 -3.03015,0 -4.59597,-0.98953 -6.48743,-4.09979 z m -128.53786,0.43312 c -2.9157,-5.19718 -0.73918,-38.38537 5.07217,-77.34214 4.52873,-30.35872 4.6884,-30.80951 12.77899,-36.07943 5.38544,-3.50788 6.6414,-3.92116 6.0779,-2 -1.38121,4.709107 -8.09646,56.47505 -13.71888,105.75491 -0.46017,4.03333 -1.42836,8.08333 -2.15154,9 -1.42902,1.81134 -7.15091,2.2847 -8.05864,0.66666 z m 146.63632,-5.25445 c -1.05455,-2.06005 -2.34354,-6.44555 -2.8644,-9.74555 -1.38906,-8.8003 -11.94474,-50.86149 -18.73836,-74.66666 C 846.9623,100.75383 817.53544,14.618493 810.41319,-3.13776 799.38175,-30.639827 763.09236,-106.9032 752.04311,-125.80443 c -12.40951,-21.22812 -36.18731,-59.86566 -45.92965,-74.63299 -7.13992,-10.82262 -9.12488,-14.87428 -8.81844,-18 0.29917,-3.05155 1.14468,-4.13987 3.47256,-4.46984 5.05094,-0.71596 9.2771,3.221 18.08422,16.84672 41.7948,64.66185 85.50651,150.220113 112.18822,219.589447 22.13006,57.535586 54.64321,170.321183 53.7196,186.349143 -0.39078,6.7813 -0.52618,6.99616 -4.66078,7.3964 -3.52761,0.34148 -4.58729,-0.23048 -6.17566,-3.33333 z m -164.92399,-2.44189 c -2.06921,-2.49324 -1.03073,-22.162 2.77715,-52.59939 1.41945,-11.34597 2.58081,-23.11507 2.58081,-26.15352 0,-5.73771 3.93575,-12.55075 7.25029,-12.55075 0.94788,0 3.30434,-1.24354 5.23656,-2.76344 4.20655,-3.30886 4.17974,-3.55306 1.55851,14.19526 -1.07505,7.27917 -3.17721,25.53485 -4.67148,40.56818 -3.40208,34.2275 -3.83249,36.9348 -6.25744,39.35976 -2.54575,2.54574 -6.33589,2.52064 -8.4744,-0.0561 z m 181.32205,-6.30366 c -1.4147,-3.11666 -2.58537,-7.91632 -2.60148,-10.6659 C 887.61719,167.01747 850.0296,45.016 830.31187,-1.8044267 824.59847,-15.371093 816.76848,-34.212293 812.9119,-43.673747 c -7.47599,-18.341066 -37.86842,-80.623863 -48.53592,-99.464013 -8.9638,-15.83119 -35.99919,-58.00573 -42.22787,-65.87442 -5.50076,-6.94911 -6.95161,-10.59248 -6.2348,-15.65663 0.59843,-4.22778 6.11775,-4.82471 10.77047,-1.16487 5.98464,4.70751 55.25386,87.23844 73.64488,123.36259 22.49616,44.18761 50.09521,110.9355433 64.21814,155.310703 4.78851,15.045787 11.67858,36.65596 15.31127,48.022627 7.77689,24.33385 15.56337,53.9452 20.42633,77.67983 3.9465,19.2616 3.48434,22.32017 -3.37269,22.32017 -3.43501,0 -4.39163,-0.82253 -6.59047,-5.66667 z m -90.63076,-4.13744 0,-5.80409 13,-0.78237 c 7.15,-0.43031 13.40331,-0.36847 13.89624,0.13742 0.49295,0.5059 1.29374,3.08466 1.77956,5.73058 0.84435,4.5986 0.69458,4.84849 -3.39625,5.66666 -2.35375,0.47075 -9.00455,0.85591 -14.77955,0.85591 l -10.5,0 0,-5.80411 z m -112.95877,-5.42361 c -7.49399,-3.94377 -15.89399,-8.52812 -18.66667,-10.18743 -8.50592,-5.09041 -25.70789,-17.61896 -25.70789,-18.7236 0,-0.57389 2.501,-2.53485 5.55777,-4.35769 l 5.55778,-3.31427 5.44222,4.43992 c 6.90794,5.6357 24.06467,16.00118 36.47594,22.03746 6.25061,3.04001 9.36938,5.28562 8.9474,6.44238 -0.35628,0.97664 -0.64778,3.82664 -0.64778,6.33334 0,2.77246 -0.65281,4.5464 -1.66666,4.529 -0.91667,-0.0157 -7.79811,-3.25535 -15.29211,-7.19911 z m 223.05601,5.13448 c -1.15128,-1.15128 -2.38205,-3.40128 -2.73506,-5 -0.353,-1.59872 -2.20994,-10.10676 -4.12651,-18.90676 -6.47855,-29.74645 -32.23308,-116.580733 -40.93,-138 C 859.46522,22.628907 854.53979,9.7289067 851.05076,0.19557333 840.4371,-28.804867 825.80992,-61.93412 806.3102,-101.13776 c -26.04008,-52.35285 -45.97926,-86.57729 -68.66762,-117.86384 -3.7518,-5.17362 -4.26043,-11.00047 -1.18316,-13.55437 4.45734,-3.69927 9.75789,1.68216 25.89773,26.2929 19.96921,30.44992 27.18491,43.19107 48.58664,85.79198 32.00463,63.706343 47.84633,100.016397 65.15261,149.33333 13.14547,37.46 28.28858,87.49256 39.75002,131.33333 4.01681,15.3646 4.9552,28.35554 2.24406,31.06667 -2.21389,2.21389 -5.80921,2.00032 -8.30276,-0.49324 z m -108.19457,-9.49712 c -0.79893,-0.60105 -1.17867,-3.57849 -0.85995,-6.74297 l 0.57071,-5.66667 11.04489,0 11.04491,0 0.90805,4.84033 c 0.49943,2.66219 0.34596,5.40243 -0.34102,6.08942 -1.62899,1.62898 -20.509,2.87813 -22.36759,1.47989 z m 121.62631,-2.74297 c -0.3579,-1.28334 -1.01698,-3.61471 -1.46463,-5.18084 -0.69753,-2.44034 2.09951,-5.04899 19.56087,-18.24344 11.20613,-8.46778 22.15566,-16.86428 24.33229,-18.65891 3.82932,-3.15725 4.11005,-3.19384 8.66667,-1.12943 2.59004,1.17344 4.9767,2.31888 5.30372,2.54542 1.5145,1.04916 -20.46551,21.27546 -30.59456,28.1535 -11.11716,7.54902 -23.1507,14.84703 -24.48091,14.84703 -0.37,0 -0.96555,-1.05 -1.32345,-2.33333 z m -228.80108,-6.48234 c -9.56443,-4.43014 -35.10658,-20.56097 -36.73875,-23.20189 -0.43633,-0.706 1.88641,-2.58553 5.16163,-4.17676 l 5.95496,-2.89315 11.63898,7.53954 c 6.40144,4.14674 14.83284,9.10214 18.73646,11.012 l 7.09749,3.47248 -0.81051,6.19838 c -0.44577,3.40912 -0.87753,6.29996 -0.95945,6.42408 -0.0819,0.12414 -4.61828,-1.84448 -10.08081,-4.37468 z m 110.2721,-5.41056 c -2.39661,-0.65321 -2.93518,-4.05877 -1.49294,-9.44044 0.71502,-2.66814 1.64834,-3 8.4374,-3 l 7.63344,0 1.6368,5.46315 c 0.90024,3.00472 1.44521,5.6296 1.21105,5.83307 -0.92368,0.80257 -15.23216,1.74212 -17.42575,1.14422 z m 113.9526,-6.64434 c -1.95776,-6.37894 -0.66325,-8.56343 8.01702,-13.52896 3.86672,-2.21194 10.93038,-7.36862 15.69705,-11.45928 9.34957,-8.02363 11.61283,-8.63514 18.45728,-4.98696 l 4.45728,2.37577 -7.12395,6.42561 c -11.73884,10.58812 -33.78886,26.04439 -37.15513,26.04439 -0.47011,0 -1.5274,-2.19176 -2.34955,-4.87057 z m -222.28593,-4.00031 c -15.24027,-8.82477 -24.63709,-15.43161 -23.8226,-16.74949 0.45004,-0.72819 3.19584,-2.38844 6.10179,-3.68948 l 5.28353,-2.36551 11.47252,7.20267 c 6.30988,3.96146 11.73055,7.4607 12.04593,7.77608 0.89759,0.8976 -1.1339,12.71098 -2.16286,12.57734 -0.50507,-0.0656 -4.51831,-2.20382 -8.91831,-4.75161 z m 108.03512,-8.79579 c 0.51491,-3.11666 1.09331,-5.84232 1.28533,-6.05701 0.19203,-0.21469 2.43426,-0.72872 4.98271,-1.14228 4.53351,-0.73569 4.66521,-0.62728 6.09853,5.01953 1.74948,6.8924 0.881,7.79636 -7.51889,7.82602 l -5.78387,0.0204 0.93619,-5.66667 z m 111.76316,0.95511 c -0.46785,-1.2192 -0.91387,-4.37415 -0.99113,-7.01097 -0.1308,-4.46347 0.57305,-5.34284 10.20205,-12.74623 l 10.34253,-7.952 5.39098,1.77919 c 2.96504,0.97854 5.7197,2.31109 6.12149,2.9612 0.99636,1.61213 -8.46876,10.15221 -20.37149,18.38056 -8.2817,5.72513 -9.97878,6.45324 -10.69443,4.58825 z m -302.54059,-7.88341 c -1.4041,-2.14295 -1.73458,-3.98091 -0.96354,-5.35868 1.1989,-2.14234 21.26345,-13.76615 51.03918,-29.56807 18.4446,-9.788507 51.90122,-30.493373 90.2135,-55.82924 l 25.11984,-16.611733 2.43594,5.434293 c 1.33978,2.988853 2.23978,5.563987 2,5.722493 -0.23977,0.158507 -4.63594,3.296934 -9.76928,6.97428 -17.10276,12.251827 -26.51848,18.59208 -44.66666,30.077174 -18.95118,11.993253 -76.51547,45.391323 -87.53131,50.784533 -3.55777,1.74185 -9.43616,5.07265 -13.06307,7.40179 -7.94738,5.10368 -11.93648,5.36572 -14.8146,0.97316 z m 82.7277,-2.17626 c -5.11808,-2.99084 -9.51526,-5.64752 -9.77147,-5.90374 -0.65093,-0.65094 10.08971,-7.32503 11.78817,-7.32503 0.76363,0 3.63114,1.48416 6.37224,3.29813 4.709,3.11627 4.95735,3.63094 4.50382,9.33334 -0.27283,3.4303 -1.15055,6.0352 -2.03356,6.0352 -0.85447,0 -5.74111,-2.44706 -10.8592,-5.4379 z m 110.01461,-1.70934 c 0,-4.24459 1.76247,-14.1859 2.51456,-14.18359 1.12643,0.004 5.28429,14.42087 4.41077,15.29437 -1.49058,1.4906 -6.92533,0.6189 -6.92533,-1.11078 z m 170,-3.37514 c -22.12527,-8.05196 -70.68477,-29.02674 -72.36309,-31.2565 -1.45058,-1.927203 -4.67287,-12.962937 -3.98567,-13.65015 0.27651,-0.276507 9.16809,3.26948 19.75908,7.87996 10.59099,4.61048 31.65923,13.3396 46.81829,19.39805 15.15907,6.05846 27.90692,11.91435 28.32855,13.01311 0.42164,1.09876 0.14765,3.15429 -0.60885,4.56783 -1.77788,3.32201 -8.89912,3.34093 -17.94831,0.0477 z m -65.91709,-5.03409 c -1.52086,-6.03985 -1.45679,-6.31353 2.17504,-9.29203 2.05813,-1.68789 4.8052,-3.43209 6.1046,-3.87598 2.88441,-0.98538 14.54173,3.26133 13.51457,4.92329 -1.03135,1.66877 -18.06189,14.46785 -19.25101,14.46785 -0.53691,0 -1.68135,-2.80041 -2.5432,-6.22313 z m -308.52835,0.66703 c -2.90492,-1.62568 -2.84288,-6.82352 0.11213,-9.3923 1.28334,-1.1156 8.33334,-5.01392 15.66667,-8.66292 24.9788,-12.42921 126.90421,-74.279023 141.73684,-86.007957 3.44473,-2.723933 7.92068,-5.893226 9.94652,-7.042866 3.51975,-1.997414 3.73395,-1.955094 4.82196,0.9526 3.30228,8.825293 4.23131,7.626546 -17.49032,22.568226 -44.22916,30.42396 -80.78583,52.802787 -119.015,72.857197 -28.90267,15.16187 -32.41785,16.60887 -35.77877,14.72802 z m 103.30909,-2.71022 -4.46969,-2.83488 5.13636,-3.11176 c 5.74743,-3.48197 6.76603,-2.50032 4.87535,4.69854 l -1.07234,4.08298 -4.46968,-2.83488 z m 285.13635,-6.98753 C 956.95956,106.61953 938.78152,99.158773 911.04056,86.388027 896.42751,79.6608 896.38687,79.629 894.88718,73.7502 c -0.82692,-3.241507 -1.91987,-6.56736 -2.42878,-7.3908 -0.50892,-0.82344 -0.64785,-1.49716 -0.30876,-1.49716 0.3391,0 16.42451,6.822707 35.74535,15.161573 19.32085,8.33888 42.92883,17.984974 52.46216,21.435797 21.40025,7.74632 27.33335,10.94038 27.33335,14.71482 0,6.71066 -4.6383,7.45118 -17.33335,2.76729 z m -82.69848,-0.41281 c -0.0175,-0.55 -0.55925,-3.27195 -1.20392,-6.04878 -1.28035,-5.51501 -1.37831,-5.48904 7.77509,-2.06118 l 3.20603,1.20061 -3.78881,3.95468 c -3.70283,3.86491 -5.92456,4.96112 -5.98839,2.95467 z m -317.03485,-4.6 c -2.87778,-2.87778 -1.86139,-7.71615 2.06666,-9.83816 13.78994,-7.449603 85.25631,-48.558377 98.33334,-56.56315 19.07821,-11.678253 53.07978,-34.213933 63.33333,-41.9762933 4.03333,-3.0534 8.05779,-5.97717337 8.94321,-6.49728003 1.80796,-1.06198667 5.72346,5.45016003 5.72346,9.51910663 0,4.2076667 -67.44764,48.7076667 -116,76.5334397 -53.05959,30.408907 -58.36355,32.858787 -62.4,28.822337 z m 414.39998,-7.2968 C 978.08346,96.535053 934.37152,77.915733 905.12364,64.07912 889.83468,56.846213 889.07891,56.294867 887.2331,51.02804 c -1.05996,-3.02452 -2.36235,-6.568627 -2.89419,-7.875787 -0.90936,-2.235026 -0.58007,-2.22336 5.52563,0.195814 3.57093,1.414853 16.99261,7.496333 29.82594,13.514373 24.38876,11.436827 63.70011,27.700707 82.09492,33.964307 5.9189,2.015426 12.2015,4.75044 13.9612,6.077813 2.7619,2.083307 3.0191,2.92936 1.8807,6.18555 -1.076,3.07796 -2.1731,3.81993 -5.9611,4.03185 -2.5533,0.14285 -5.5424,-0.0776 -6.6424,-0.48985 z M 580.18622,97.322533 c -0.48863,-1.946826 -0.31639,-4.496826 0.38276,-5.666666 0.69913,-1.169827 8.21142,-5.72696 16.69397,-10.12696 8.48255,-4.4 18.34887,-9.88852 21.92517,-12.19672 3.5763,-2.3082 15.80236,-9.43924 27.16903,-15.846747 20.27797,-11.430907 67.61168,-41.66336 88.66667,-56.6321733 11.19766,-7.9608667 23.26317,-15.3273997 23.72689,-14.4863467 0.15021,0.272427 1.02311,1.837173 1.93977,3.477227 3.62286,6.4817997 2.7439,7.3844663 -26,26.70104 -48.34985,32.492266 -85.57946,55.25396 -118.33333,72.347426 -8.8,4.592507 -18.75253,10.064427 -22.11673,12.159827 -7.9645,4.96068 -12.85336,5.05464 -14.0542,0.270093 z M 996.35715,84.39228 C 970.05164,74.403707 943.6875,62.816627 909.69048,46.302147 L 880.35715,32.053093 878.06286,24.86308 c -1.26187,-3.95452 -2.0771,-7.407227 -1.81162,-7.672707 0.26548,-0.26548 18.39791,8.009547 40.2943,18.388947 45.2456,21.447453 67.77706,31.17748 89.80766,38.782667 18.9873,6.554613 21.6322,8.174933 21.0845,12.91708 -0.3744,3.241613 -0.9858,3.612626 -6.4139,3.892186 -4.5274,0.233174 -10.5812,-1.430533 -24.66665,-6.778973 z M 581.4637,82.4806 c -0.42498,-1.25676 -3.0978,-7.440067 -5.93962,-13.74068 -2.84181,-6.300613 -5.16693,-12.102947 -5.16693,-12.894067 0,-0.79112 1.95,-1.830866 4.33333,-2.310546 2.38334,-0.47968 5.33495,-1.152427 6.55914,-1.495 1.47525,-0.412814 2.52598,0.407546 3.11604,2.43288 0.48962,1.68064 3.03776,7.71664 5.66252,13.41332 4.63736,10.0648 4.70004,10.411946 2.21729,12.279733 -1.40524,1.057173 -4.23216,2.524507 -6.28204,3.260747 -3.08027,1.106333 -3.86113,0.942093 -4.49973,-0.946387 z m 14.22678,-7.061547 c 0,-0.793746 -1.73302,-5.443746 -3.85117,-10.333333 -6.319,-14.586893 -6.33852,-14.08516 0.61103,-15.697547 l 6.08133,-1.410933 2.57289,5.04328 c 1.4151,2.773813 3.74978,8.02904 5.18818,11.678293 l 2.61528,6.635014 -4.68499,2.764213 c -5.14275,3.034293 -8.53255,3.559107 -8.53255,1.321013 z M 1020.3572,74.29528 c -9.176,-2.7264 -44.49601,-16.6016 -68.00005,-26.713333 C 934.7964,40.027107 873.02382,7.8592133 873.02382,6.26936 c 0,-1.2947467 3.88794,-4.6620533 7.5942,-6.57725333 2.46437,-1.27345337 4.03852,-0.85773337 9.94972,2.62762663 24.53494,14.4663337 93.19076,45.2617067 134.62616,60.3861867 8.4612,3.088467 11.3921,6.46356 9.4034,10.8284 -1.7673,3.878853 -3.4448,3.968493 -14.2402,0.76096 z M 608.01675,61.89016 c -1.65388,-3.86536 -3.562,-8.97792 -4.24025,-11.361253 -1.06548,-3.744 -0.90586,-4.333334 1.17373,-4.333334 1.3238,0 4.27268,-0.373146 6.55305,-0.829226 3.30379,-0.66076 4.32227,-0.322147 5.01306,1.666666 0.77828,2.240667 5.6916,13.267414 6.822,15.31028 0.61856,1.117867 -5.3407,4.897707 -9.17564,5.819934 -2.76096,0.66396 -3.50094,-0.09133 -6.14595,-6.273067 z m 14.48607,-6.694587 c -4.76978,-11.140213 -4.76467,-11.215653 0.82154,-12.13888 2.76803,-0.45748 5.81212,-0.838373 6.76464,-0.84644 1.61507,-0.01373 6.88252,9.6854 6.87114,12.651987 -0.004,1.213933 -8.84866,6 -11.08719,6 -0.51915,0 -2.03571,-2.55 -3.37013,-5.666667 z m 400.18768,3.55408 c -2.3834,-1.04228 -4.3182,-2.043346 -4.2996,-2.224573 0.019,-0.181227 1.7266,-6.61356 3.7955,-14.294053 l 3.7618,-13.96456 5.8711,0.404053 c 3.2292,0.22224 6.2514,0.80628 6.7162,1.297893 0.4647,0.4916 -1.0166,7.643827 -3.2918,15.893827 -4.4562,16.1586 -4.6405,16.3478 -12.5532,12.887413 z m -13.3333,-5.511786 c -3.1167,-1.062147 -5.6667,-2.502894 -5.6667,-3.201654 0,-0.69876 1.2684,-6.327906 2.8187,-12.5092 l 2.8188,-11.238733 6.1812,0.808147 c 3.3997,0.44448 6.4204,1.012746 6.7127,1.262813 0.7199,0.616 -5.3976,25.815987 -6.4017,26.3702 -0.438,0.241787 -3.3464,-0.429427 -6.463,-1.491573 z m -372.74345,-5.49032 c -1.24113,-2.81308 -2.2566,-5.44496 -2.2566,-5.848614 0,-1.695906 12.22245,-2.51192 14.11376,-0.94228 1.57692,1.30872 1.80113,1.235214 1.17883,-0.386466 -0.57279,-1.492667 0.52281,-2.215947 4.30281,-2.840587 7.20852,-1.191187 9.73793,-1.065067 9.73793,0.485573 0,2.08068 -8.37742,6.784694 -10.95361,6.150574 -1.40445,-0.345707 -2.59857,0.418893 -3.09449,1.9814 -0.74084,2.334173 -6.9201,6.515093 -9.62908,6.515093 -0.62863,0 -2.15843,-2.301613 -3.39955,-5.114693 z m -77.74455,1.85924 c -1.3368,-3.483627 0.10494,-6.566667 4.15898,-8.893507 7.07481,-4.060653 56.55497,-13.771733 101.1003,-19.842133 16.25911,-2.215707 30.93278,-4.244907 32.60815,-4.50932 1.67539,-0.264427 2.87539,-0.31148 2.66667,-0.104534 -0.20871,0.20692 -4.57948,3.44376 -9.71282,7.192987 -10.59588,7.738893 -13.22609,8.604173 -32.66666,10.746627 -18.12674,1.997653 -45.08751,6.963613 -69.1514,12.73712 -20.93875,5.02372 -27.85644,5.661213 -29.00322,2.672773 z M 991.90175,46.69984 c -3.33423,-1.455453 -4.23513,-2.518547 -3.58008,-4.224573 0.48143,-1.253827 1.8462,-5.770947 3.03283,-10.03804 1.88084,-6.76348 2.51089,-7.66344 4.91341,-7.0182 1.51575,0.407066 4.40589,0.748333 6.42259,0.758346 4.4202,0.022 4.4622,0.696067 0.81,13.0182 -3.1102,10.49336 -3.7713,10.921107 -11.59875,7.504267 z m -13.36728,-5.906693 c -5.0364,-2.254867 -5.69231,-3.008707 -4.8738,-5.601547 0.52019,-1.647813 1.25779,-4.646027 1.63913,-6.662693 0.65434,-3.460374 1.09742,-3.666667 7.87535,-3.666667 3.95009,0 7.182,0.357653 7.182,0.794787 0,1.735733 -4.34899,15.93072 -5.14916,16.80676 -0.46965,0.514173 -3.47275,-0.237614 -6.67352,-1.67064 z m -15.28437,-6.18492 c -4.17132,-1.728787 -4.96863,-2.632307 -4.35154,-4.931294 0.41554,-1.54808 0.76371,-3.564693 0.77372,-4.48136 0.012,-1.046653 1.96166,-1.666666 5.24248,-1.666666 8.61111,0 9.23916,0.604746 7.68436,7.399213 -1.49872,6.549427 -1.97418,6.736587 -9.34902,3.680107 z m -406.20587,-4.07932 c 0.0107,-2.016667 0.48227,-4.3934 1.04673,-5.281614 1.43012,-2.25036 9.13166,-5.247813 16.26619,-6.330826 3.3,-0.500934 16.5,-2.938867 29.33333,-5.417627 41.07271,-7.9332 88.10542,-15.3032667 97.65912,-15.3032667 11.00267,0 19.40098,3.1161067 16.81055,6.2373734 -2.94241,3.5453866 -6.37889,4.4947866 -23.44844,6.4781333 -20.70057,2.405253 -51.77316,7.7644 -96.37875,16.622627 -18.45018,3.664026 -35.29254,6.661866 -37.42746,6.661866 -3.35063,0 -3.8789,-0.50164 -3.86127,-3.666666 z m 392.21624,-2.485374 c -6.17356,-2.69588 -4.76292,-5.294866 2.56517,-4.726106 6.97027,0.540973 7.01903,0.57496 5.89674,4.111 -1.01284,3.191186 -2.34152,3.287773 -8.46191,0.615106 z m 65.09673,-3.9624 c -9.1667,-1.02916 -31.40197,-2.3956 -49.41174,-3.036533 -35.29156,-1.25596 -36.1085,-1.419227 -50.58831,-10.110347 l -6,-3.6013463 38.66667,0.7048666 c 36.02937,0.6567867 61.96398,2.4653997 90.40198,6.3043997 l 11.7353,1.5842 -0.402,4.801267 -0.4019,4.801267 -8.6667,0.211706 c -4.7667,0.1164 -16.1667,-0.63032 -25.3333,-1.65948 z M 554.62382,15.26224 c -5.03462,-5.034613 1.70912,-10.6679867 15.57892,-13.0138533 4.8516,-0.82056 15.42766,-2.95341337 23.5024,-4.7396534 18.29952,-4.04812 54.5418,-10.3134803 77.07524,-13.3243203 l 17.08989,-2.283506 6.5742,4.480666 c 3.6158,2.464374 6.57535,4.853147 6.57677,5.308387 10e-4,0.45524 -4.34742,1.2440667 -9.66409,1.7529467 -14.74392,1.4111866 -59.30183,9.2123866 -95.38237,16.6995733 -34.27748,7.113013 -38.798,7.67272 -41.35096,5.11976 z M 1020.3572,6.8564667 C 968.63958,2.6552933 938.13371,0.86021333 917.99222,0.83296 899.40758,0.80776 895.54691,0.43596 890.61059,-1.8042933 l -5.74657,-2.60796 4.41324,-3.81884 4.41322,-3.8188267 33.33334,1.065387 c 54.70302,1.7483997 112.02618,6.1484797 120.10208,9.218933 2.8305,1.07614667 3.3303,2.01910667 2.9825,5.6269867 -0.5159,5.34992 -0.626,5.361 -29.7513,2.99508 z M 867.79448,-3.3164267 c -1.34649,-4.4942133 -1.32392,-5.8204666 0.12227,-7.1826133 0.97555,-0.91884 8.67372,-7.50636 17.10705,-14.63892 27.44467,-23.2116 53.08092,-47.380813 85.91632,-80.9998 33.51328,-34.31308 36.51198,-36.57496 39.57538,-29.85148 1.1153,2.44783 0.9342,4.154 -0.814,7.66667 -2.6643,5.35362 -65.892,68.59537 -90.67768,90.697877 -17.13374,15.278946 -47.18683,39.8202663 -48.76355,39.8202663 -0.44789,0 -1.55749,-2.48039997 -2.46579,-5.512 z M 702.12631,-11.977653 C 666.20899,-36.119773 583.85395,-99.31208 580.02382,-105.6688 c -2.80519,-4.65567 -2.10318,-9.3086 1.54248,-10.2236 4.2097,-1.05657 7.50301,0.83259 17.3221,9.93656 4.47448,4.1486 12.63542,11.116307 18.13542,15.483787 5.5,4.36748 12.85425,10.449866 16.34277,13.516426 3.48853,3.066547 9.00528,7.13588 12.25945,9.042947 3.25416,1.907067 14.77123,10.12196 25.59347,18.25532 10.82224,8.133373 29.16219,21.108013 40.75543,28.83256 17.47712,11.64496 20.8079,14.3708267 19.4942,15.9537467 -1.45359,1.7514533 -8.1278,5.7332933 -9.60995,5.7332933 -0.34672,0 -9.22651,-5.7779467 -19.73288,-12.839893 z m -149.0508,8.9364797 c -1.69568,-3.1684 -0.84053,-5.62916 2.73141,-7.8598667 6.22539,-3.887827 95.04032,-21.55468 108.41975,-21.5666 3.41811,-0.0027 15.30493,7.258187 15.42259,9.42112 0.0227,0.41684 -9.40878,2.12008 -20.95878,3.784987 -31.67456,4.565786 -68.96833,11.609333 -81.5683,15.4055063 C 563.26891,0.31776 555.02271,0.5972 553.07551,-3.0411733 Z M 710.1282,-28.424333 C 675.00251,-52.02748 653.00063,-68.0032 636.23304,-82.080147 c -7.31689,-6.14276 -18.23769,-14.924786 -24.26845,-19.515613 -6.03076,-4.59083 -14.35345,-11.50091 -18.49488,-15.35573 -6.56439,-6.11012 -7.41503,-7.46632 -6.63424,-10.57722 0.58636,-2.33621 2.07973,-3.86564 4.32472,-4.42909 3.80036,-0.95383 3.75363,-0.9848 20.07529,13.31015 15.52319,13.59561 91.24374,70.114943 116.12167,86.675517 11.91667,7.932613 21.66667,14.657973 21.66667,14.945253 0,0.5276 -10.30679,7.2647067 -10.97351,7.1729067 -0.19791,-0.0272 -12.76285,-8.3839067 -27.92211,-18.5703597 z m 272.89562,15.193026 c -25.66667,-1.71212 -54.36819,-3.504866 -63.78118,-3.983893 l -17.11449,-0.870947 3.78116,-3.978173 c 6.99217,-7.35648 8.18827,-7.579533 33.78359,-6.30012 40.39557,2.01924 68.0811,3.93748 85.9976,5.958507 25.3167,2.8558 24.6667,2.64392 24.6667,8.040786 l 0,4.5607203 -10.3334,-0.1569733 c -5.6833,-0.0864 -31.3333,-1.557787 -56.99998,-3.269907 z m -121.7452,-6.370546 c -0.87348,-2.415547 -1.55402,-5.249307 -1.5123,-6.29724 0.0417,-1.047934 14.21944,-14.205334 31.50608,-29.238667 35.03278,-30.466253 75.3724,-69.58736 89.02844,-86.33917 9.2071,-11.29431 13.05766,-13.66936 17.93212,-11.06063 5.74174,3.07288 3.56814,7.14867 -13.70092,25.69155 -37.62998,40.40565 -85.27985,84.457543 -116.92009,108.091583 l -4.7452,3.54448 -1.58813,-4.391906 z m -305.92147,0.357293 c -3.88216,-2.261147 -2.91268,-7.525133 1.83841,-9.982013 4.30734,-2.227414 49.69247,-11.92948 74.65375,-15.95888 l 14.15884,-2.285614 6.84116,4.478627 c 3.76265,2.46324 6.84117,4.818027 6.84117,5.232867 0,0.414853 -5.25,1.509573 -11.66666,2.43272 -16.7701,2.41268 -58.67224,10.389053 -74.7734,14.233653 -15.67511,3.742853 -14.79688,3.65212 -17.89327,1.84864 z m 195.02891,-4.04736 c -1.81743,-0.72516 -6.31743,-3.581827 -10,-6.348147 -3.68256,-2.76632 -17.79558,-12.717186 -31.36224,-22.11304 -26.57611,-18.405773 -78.4258,-57.127093 -98.19238,-73.330003 -12.63628,-10.35812 -16.76674,-16.48913 -13.64381,-20.25204 3.37756,-4.0697 8.55643,-2.0311 19.32395,7.60663 21.06516,18.85489 78.59033,62.237493 114.92028,86.66708 17.99905,12.103227 18.83053,12.86576 21.49104,19.708987 3.96409,10.196253 3.83598,10.603293 -2.53684,8.060533 z m 245.30442,-6.614653 c -15.03333,-1.348267 -37.68333,-2.871334 -50.33333,-3.3846 -12.65,-0.513267 -23,-1.391974 -23,-1.952667 0,-0.560707 2.55,-3.202907 5.66667,-5.871573 5.60098,-4.795894 5.77484,-4.843867 15,-4.139614 5.13333,0.391867 18.33333,1.069254 29.33333,1.505294 22.71933,0.9006 56.44285,3.876346 67.30995,5.939426 8.4856,1.610934 10.9182,3.512 9.8282,7.68044 -0.7464,2.854027 -1.3753,2.984787 -13.627,2.833387 -7.0645,-0.08729 -25.1445,-1.26184 -40.17782,-2.610093 z m -141.85578,-7.92624 c -1.17932,-2.9474 -2.14422,-5.561654 -2.14422,-5.809454 0,-0.247786 11.32463,-10.407506 25.16583,-22.577146 31.77953,-27.9416 63.71348,-58.916777 85.09711,-82.542187 13.5892,-15.01383 17.29465,-18.37616 20.25144,-18.37616 4.13354,0 6.81896,2.15821 6.81896,5.48027 0,8.92797 -78.634,86.04053 -126.18912,123.747557 l -6.85579,5.43604 -2.14421,-5.35892 z M 561.71528,-42.13776 c 2.38824,-17.752733 15.22563,-57 18.64412,-57 0.7875,0 3.40412,1.65 5.81474,3.666667 l 4.38292,3.666666 -2.65902,6.19284 c -5.01436,11.678427 -10.77018,31.51656 -11.65776,40.179814 l -0.88793,8.66664 -4.83093,0.799013 c -9.83182,1.626133 -9.85315,1.611173 -8.80614,-6.17164 z m 16.65194,3.475987 c 0.0533,-6.054707 3.70084,-21.41108 8.24488,-34.712254 l 5.54676,-16.236253 5.85922,4.031253 c 4.28896,2.95088 5.61795,4.622187 4.95896,6.236254 -2.68896,6.58612 -7.15353,20.713026 -9.18952,29.07772 -2.2482,9.236573 -2.46946,9.567053 -6.97082,10.411506 -2.55691,0.47968 -5.50631,1.20116 -6.55423,1.60328 -1.04793,0.402134 -1.90079,0.216947 -1.89525,-0.411506 z m 17.76114,-8.070534 c 0.44562,-2.789666 2.72202,-11.197013 5.0587,-18.682986 l 4.24849,-13.61088 3.4608,2.590186 c 8.81499,6.597427 8.35164,5.668974 6.04644,12.11572 -1.15035,3.21704 -2.86431,8.82248 -3.80883,12.45652 -1.78042,6.85024 -1.54004,6.6644 -11.96297,9.2484 -3.83065,0.94968 -3.84816,0.925974 -3.04263,-4.11696 z m 420.41334,0.859454 c -10.1652,-1.286 -31.16518,-3.060667 -46.66668,-3.94372 -15.5015,-0.883054 -28.43126,-1.838294 -28.73282,-2.122747 -0.30154,-0.284467 1.83266,-2.921947 4.74268,-5.861053 l 5.29095,-5.343854 29.25733,1.999214 c 57.85974,3.953653 64.83674,5.101666 65.65504,10.80308 0.9277,6.46428 -5.7689,7.477173 -29.5465,4.46908 z m -403.04259,-3.97472 c 0.44475,-2.22372 1.76191,-7.322267 2.92701,-11.330107 2.31759,-7.972253 2.65563,-8.027827 10.29458,-1.692667 3.61021,2.99404 3.65606,3.205427 1.95574,9.016254 -1.82502,6.237026 -3.96789,7.632986 -12.15262,7.91676 -3.57582,0.124 -3.77902,-0.138707 -3.02471,-3.91024 z m 16.55596,-2.503147 c 0.83752,-5.706333 2.15417,-6.10336 7.71325,-2.325867 5.2863,3.592134 4.87302,4.368787 -2.99416,5.6268 l -5.32862,0.85208 0.60953,-4.153013 z m 91.06396,-12.259013 c -12.01473,-8.053574 -27.10011,-18.667027 -33.52304,-23.585454 -6.42293,-4.918413 -21.47924,-16.406363 -33.45845,-25.528763 -25.55356,-19.45953 -44.56135,-35.3845 -45.66395,-38.25784 -1.28432,-3.34688 -0.89525,-6.73638 0.94893,-8.26692 2.78868,-2.3144 13.72563,3.64322 24.49175,13.34123 12.32679,11.10384 61.11653,48.734307 79.89275,61.619533 21.33148,14.638787 22.26625,15.55092 26.26482,25.629107 1.96604,4.955253 3.42106,9.163107 3.23339,9.350773 -0.18767,0.187667 -10.17145,-6.24808 -22.1862,-14.301666 z m 125.00027,8.1168 -2.23786,-5.32804 6.85674,-5.658387 c 3.77118,-3.11212 8.97822,-7.784853 11.57117,-10.383853 2.59296,-2.599 11.24917,-10.36496 19.23604,-17.257694 19.96243,-17.227763 42.52088,-39.085983 59.18736,-57.350183 25.16153,-27.57359 25.79172,-28.16827 29.38869,-27.73283 4.31268,0.52208 6.19612,3.71949 4.99947,8.48735 -1.11136,4.428 -67.99655,72.50073 -92.76376,94.41077 -13.03727,11.533267 -31.82493,26.200227 -33.50265,26.15448 -0.27355,-0.008 -1.50438,-2.411187 -2.7352,-5.341613 z m 177.9501,-5.644827 c -0.7046,-0.916667 -3.2345,-7.366667 -5.622,-14.333333 -2.3876,-6.966667 -7.0328,-17.892307 -10.3227,-24.279197 -6.4354,-12.49346 -6.5494,-14.60218 -1.0682,-19.75146 3.2552,-3.05818 3.3587,-3.06882 5.296,-0.54422 6.5267,8.50516 20.8932,42.25681 23.9393,56.241543 l 0.9439,4.333334 -5.9427,0 c -3.2685,0 -6.5191,-0.75 -7.2236,-1.666667 z m -17.1266,-0.68708 c -0.7779,-0.538773 -3.0981,-5.779587 -5.156,-11.646253 -2.05788,-5.866667 -5.48612,-14.128667 -7.61828,-18.359987 -4.30605,-8.54544 -3.98546,-10.54525 2.50947,-15.65417 l 3.67101,-2.88763 6.2984,13.514747 c 6.7134,14.405306 13.0431,30.96976 13.0431,34.133173 0,1.37376 -1.6133,1.91472 -5.6667,1.90012 -3.1167,-0.01067 -6.3031,-0.461227 -7.081,-1 z m -18.79077,-2.646253 c -0.43344,-1.283334 -2.80521,-7.114467 -5.2706,-12.958067 l -4.48251,-10.624747 4.24067,-4.375253 c 2.33237,-2.4064 4.66641,-4.375267 5.18677,-4.375267 1.81082,0 14.53084,29.36208 14.53084,33.542067 0,0.618533 -3.01888,1.1246 -6.70856,1.1246 -5.19996,0 -6.88573,-0.524707 -7.49661,-2.333333 z m -28.78204,0.04627 -3.65384,-0.554213 3.65384,-4.579293 c 2.0096,-2.518627 4.00752,-4.57932 4.4398,-4.579347 1.06772,-5.3e-5 3.88069,6.327547 3.88069,8.72936 0,1.91704 -1.21724,2.06092 -8.32049,0.983493 z m 9.71556,-5.217226 -2.72973,-6.170987 4.70014,-5.202507 4.70016,-5.202506 4.63384,9.669213 c 2.54863,5.31808 4.63386,10.436147 4.63386,11.373507 0,1.154106 -2.132,1.70428 -6.60428,1.70428 -6.57231,0 -6.61748,-0.02987 -9.33399,-6.171 z m -129.92687,0.625586 c -2.24202,-3.200933 -2.66193,-6.196293 -1.34848,-9.61912 0.43252,-1.12712 11.08252,-11.215613 23.66667,-22.418887 39.37711,-35.05616 55.38761,-50.40532 69.18916,-66.33117 18.01669,-20.78984 20.55479,-22.9538 26.35779,-22.4725 3.95068,0.32766 4.72997,0.93485 5.07928,3.9575 0.95413,8.2564 -59.02244,67.96597 -118.61108,118.083057 -1.916,1.611454 -2.47278,1.457414 -4.33334,-1.19892 z m -123.4869,-20.61484 c -22.35175,-15.025137 -88.0391,-66.265427 -93.07459,-72.604057 -4.48033,-5.63981 -3.49589,-9.80451 2.42663,-10.26595 3.71078,-0.28912 5.94812,0.66676 10.92281,4.66667 3.44088,2.76664 17.84088,14.38987 32,25.82941 14.15912,11.43954 30.35967,23.88475 36.00123,27.65604 5.64156,3.77128 11.72444,8.81167 13.51752,11.20084 4.19121,5.584541 10.50425,18.173181 9.949,19.838954 -0.23539,0.70616 -5.51956,-2.138693 -11.7426,-6.321907 z m 115.70392,2.646374 c -1.8828,-4.720534 -1.73436,-5.373867 5.68006,-25.000001 14.05244,-37.19718 24.40039,-61.31506 37.67955,-87.8195 10.46587,-20.88924 13.73823,-26.33333 15.82863,-26.33333 4.15748,0 7.79321,2.51959 7.79321,5.40075 0,1.45214 -3.59639,9.8146 -7.99197,18.58323 -16.19152,32.30006 -33.83867,73.14658 -40.14642,92.92385 -1.59492,5.00069 -4.08225,11.492174 -5.52742,14.425507 -2.63023,5.33872 -8.6706,12.666667 -10.44104,12.666667 -0.5177,0 -1.81127,-2.18124 -2.8746,-4.847213 z m 25.06076,-22.612301 c 10.90412,-30.12313 34.12552,-83.8759 44.29786,-102.54049 3.28959,-6.03587 4.07444,-6.66667 8.29478,-6.66667 4.30517,0 4.69385,0.33835 5.08622,4.42759 0.30103,3.13723 -1.15238,7.51365 -4.98705,15.01675 -2.97655,5.82403 -7.46817,15.83162 -9.98139,22.23908 -2.51322,6.40745 -8.5303,20.04992 -13.37128,30.31658 -4.84098,10.26667 -9.7834,21.76368 -10.98316,25.54891 -1.7861,5.63517 -3.93886,8.474 -11.88046,15.66667 -5.3345,4.83144 -10.01571,8.784427 -10.40271,8.784427 -0.387,0 1.38023,-5.756777 3.92719,-12.792847 z m -33.71524,5.18482 c -1.55659,-2.37566 -2.35531,-6.13286 -2.33842,-11 0.0289,-8.32463 3.0344,-16.38655 21.64446,-58.05864 6.22238,-13.93334 13.69038,-30.73334 16.59554,-37.33334 6.9491,-15.78705 10.69003,-20.66666 15.84406,-20.66666 5.1761,0 6.26713,3.00457 3.59817,9.90905 -1.15324,2.98331 -10.168,23.42424 -20.03283,45.42424 -9.86481,22 -21.09989,47.95 -24.96684,57.66667 -3.86693,9.71666 -7.24437,17.66666 -7.50542,17.66666 -0.26106,0 -1.53848,-1.62361 -2.83872,-3.60802 z M 700.6133,-121.18229 c -2.17006,-1.9091 -3.33922,-3.94835 -2.78127,-4.85112 0.65353,-1.05744 0.22343,-1.27384 -1.33967,-0.67403 -2.1379,0.82039 -11.4684,-5.09596 -11.4685,-7.27203 -3e-5,-0.46296 2.19337,-2.51474 4.87422,-4.55953 l 4.87427,-3.71779 3.24128,3.76822 c 2.14143,2.48957 3.03357,4.85474 2.62917,6.97024 -0.40581,2.12284 -0.0737,2.99545 0.98519,2.58909 1.32303,-0.50769 3.32221,2.35501 7.07076,10.12485 1.13095,2.34419 -4.65067,0.64383 -8.08545,-2.3779 z m 109.48189,-10.3928 -3.48415,-7.10404 7.61328,-18.56263 c 4.18732,-10.20948 12.14427,-28.16267 17.68212,-39.896 5.53787,-11.73333 11.06563,-24.08187 12.28394,-27.44119 2.72444,-7.51227 6.6353,-11.89214 10.61872,-11.89214 8.44957,0 8.23321,7.92728 -0.63838,23.38928 -7.52037,13.10701 -16.77333,33.69872 -30.08154,66.94405 -4.77028,11.91667 -9.08647,21.66667 -9.59155,21.66667 -0.50507,0 -2.48616,-3.19682 -4.40244,-7.10404 z m 70.92863,3.8159 c 0,-1.07512 0.99504,-4.04138 2.2112,-6.59169 2.20054,-4.61461 2.2304,-4.627 6.20178,-2.57332 l 3.9906,2.06363 -4.94266,4.52806 c -5.35466,4.90552 -7.46092,5.63199 -7.46092,2.57332 z m -204.33334,-12.02342 c -2.01666,-1.77498 -3.66666,-3.54207 -3.66666,-3.92686 0,-0.38478 3.07162,-3.1276 6.82582,-6.09512 7.46032,-5.89704 8.77774,-5.74241 12.36654,1.45151 1.8625,3.73349 1.77684,3.94631 -3.16422,7.85969 -6.09352,4.82615 -7.58812,4.9121 -12.36148,0.71078 z m 212.56764,0.8681 c -3.08658,-2.37454 -3.08941,-2.40522 -0.70621,-7.63701 1.31605,-2.88911 2.49135,-5.43363 2.61175,-5.65451 0.1204,-0.22088 2.96125,1.33754 6.313,3.46315 l 6.09406,3.86475 -4.33693,4.20352 c -5.0058,4.85181 -5.77944,4.98832 -9.97567,1.7601 z m -226.0384,-10.68542 -3.63632,-3.79552 5.7202,-4.586 c 6.66516,-5.34359 12.51876,-9.16326 14.00664,-9.1398 0.5758,0.009 2.39675,2.10042 4.04656,4.64744 l 2.99966,4.63093 -7.66632,6.01839 c -4.21648,3.31012 -8.60407,6.01877 -9.7502,6.01922 -1.14614,4.7e-4 -3.72023,-1.70713 -5.72022,-3.79466 z m 137.26156,0.6047 c -6.56614,-10.74465 -7.0484,-7.42592 5.08463,-34.99055 23.10857,-52.49957 25.65959,-56.74881 32.72304,-54.50696 6.16177,1.95567 4.69657,6.54331 -15.55012,48.68831 -5.81291,12.1 -12.2852,26.5 -14.38287,32 -4.776,12.52247 -5.26868,13.0736 -7.87468,8.8092 z m 97.02218,-1.9844 c -5.24164,-3.45098 -5.42916,-3.79918 -3.71392,-6.89632 0.99354,-1.794 1.82772,-4.31181 1.85369,-5.59514 0.026,-1.28334 0.49725,-2.32771 1.04725,-2.32083 1.68372,0.0211 14.74955,7.83689 15.71647,9.4014 0.99989,1.61785 -5.70163,9.31473 -7.96592,9.14908 -0.77947,-0.0571 -3.90137,-1.73921 -6.93757,-3.73819 z m -245.81298,-8.3557 -4.66666,-3.92198 3.33333,-2.69429 c 9.76951,-7.89656 19.13835,-14.51287 20.48001,-14.46305 0.83599,0.0311 2.82947,2.11161 4.42995,4.6235 l 2.90996,4.56708 -8.24329,6.5175 c -12.47,9.85933 -12.79067,9.95374 -18.2433,5.37124 z m 255.42495,-4.01003 c -4.34961,-2.8406 -8.12533,-5.38167 -8.39048,-5.64683 -0.92716,-0.92714 4.13943,-10.14557 5.57615,-10.14557 2.33184,0 18.32224,9.83487 19.04944,11.71633 0.6983,1.80674 -2.89576,6.48684 -6.3118,8.21907 -1.32379,0.67127 -4.72756,-0.74981 -9.92331,-4.143 z m -117.85535,-5.24771 -2.9182,-5.87802 4.80807,-0.4218 c 2.64443,-0.23199 5.16013,-0.0697 5.59044,0.3606 0.43032,0.4303 -0.42012,3.26522 -1.88985,6.29981 l -2.67224,5.51743 -2.91822,-5.87802 z m -149.98174,-0.9457 -3.57774,-3.73435 4.99494,-4.79964 c 5.353,-5.14371 20.06254,-15.73167 21.85556,-15.73167 0.59685,0 2.25396,2.29097 3.68245,5.09105 l 2.59725,5.09104 -11.68189,8.90895 c -6.42504,4.89994 -12.26935,8.90896 -12.98737,8.90896 -0.71802,0 -2.91546,-1.68045 -4.8832,-3.73434 z m 279.09716,-5.07494 c -4.75658,-3.22156 -9.37116,-5.85738 -10.25464,-5.85738 -3.04638,0 -3.38746,-2.90796 -0.91255,-7.78017 1.3652,-2.68757 2.57403,-5.07836 2.68629,-5.31285 0.34878,-0.72845 11.31522,5.18928 18.68736,10.08411 7.60658,5.05048 7.75791,6.19841 1.56428,11.86629 l -3.12242,2.8574 -8.64832,-5.8574 z m -137.12479,-7.31676 c -1.70855,-2.99137 -2.90855,-5.61449 -2.66667,-5.82916 1.22316,-1.08561 23.58424,-2.09575 24.20374,-1.09339 0.39654,0.64164 -0.40879,3.69005 -1.78963,6.77427 -2.49337,5.56914 -2.55915,5.60759 -9.57581,5.59739 -6.86518,-0.009 -7.15314,-0.16424 -10.17163,-5.44911 z m 145.18172,-6.00757 c -6.19193,-3.95985 -12.04193,-7.19972 -13,-7.19972 -2.24012,0 -2.19729,-1.66251 0.19001,-7.37616 2.18755,-5.23553 3.14751,-5.49443 9.13426,-2.46353 6.79966,3.44247 23.60045,14.22337 23.60045,15.14418 0,0.46149 -1.95,2.69664 -4.33333,4.96701 l -4.33334,4.12794 -11.25805,-7.19972 z m -153.19035,-7.51323 c -1.58672,-2.56735 -2.88493,-5.25816 -2.88493,-5.97958 0,-0.72141 4.95,-1.697 11,-2.16796 13.45179,-1.04716 29,-1.12892 29,-0.1525 0,0.39588 -1.2122,3.09588 -2.69376,6 -2.32351,4.55443 -3.30384,5.28022 -7.13217,5.28022 -2.44112,0 -8.93071,0.37974 -14.42131,0.84386 l -9.98291,0.84387 -2.88492,-4.66791 z m -9.3959,-14.3612 c -1.70034,-3.02532 -2.86576,-5.72633 -2.58986,-6.00224 2.62226,-2.62225 56.69383,-4.88394 55.53863,-2.32305 -0.24811,0.55 -1.29061,3.17249 -2.31668,5.82776 l -1.86559,4.82776 -20.12777,0.73985 c -11.07027,0.40691 -21.34715,1.12024 -22.83749,1.58517 -2.17531,0.67861 -3.31948,-0.23954 -5.80124,-4.65525 z m -9.83583,-14.41442 -3.55828,-5.37692 6.80623,-1.45968 c 12.64518,-2.7119 32.84388,-4.30386 48.90638,-3.85455 8.78775,0.24582 16.3196,0.79049 16.73743,1.21039 0.41784,0.41989 -0.19393,3.19114 -1.35947,6.15832 l -2.11917,5.39488 -11.53316,-0.6542 c -10.20168,-0.57868 -25.30907,0.48524 -44.26076,3.11701 -5.93821,0.82463 -6.13296,0.73281 -9.6192,-4.53525 z"
         id="path4223"
         inkscape:connector-curvature="0" />
      <path
         style="fill:#3f4040"
         d="m 890.81548,635.47368 c -15.87864,-3.14147 -28.45833,-16.35929 -28.45833,-29.90195 0,-2.59022 -0.45,-4.67645 -1,-4.63606 -0.55,0.0404 -4.18696,4.24885 -8.08212,9.35214 -12.02269,15.75164 -25.37129,23.90776 -39.12835,23.90776 -17.09561,0 -24.82777,-11.55798 -21.51084,-32.15425 l 1.27951,-7.94505 -14.98033,15.79348 c -17.57682,18.53089 -26.56519,24.30582 -37.83072,24.30582 -11.10288,0 -19.2036,-5.12521 -21.48356,-13.59237 l -1.39184,-5.16889 -6.93588,6.0805 c -9.67026,8.47768 -17.18935,11.85027 -27.60254,12.38074 -10.49752,0.53477 -16.6193,-2.14692 -20.6213,-9.03331 -3.44666,-5.93076 -3.54063,-22.12639 -0.19992,-34.45601 5.05384,-18.65239 21.54525,-52.48207 37.7133,-77.3633 3.98591,-6.13394 6.89743,-11.5023 6.47004,-11.92968 -0.42737,-0.42737 -8.10869,-0.78909 -17.06958,-0.80381 -14.71344,-0.0241 -17.06791,0.31332 -24.29254,3.48204 -7.89512,3.46279 -8.01328,3.47333 -9.01325,0.80447 -0.9126,-2.4357 -1.74757,-2.61258 -8.4056,-1.78071 -23.39863,2.92347 -52.72871,17.23295 -65.77235,32.08883 -7.72085,8.79357 -3.1142,10.42788 16.5712,5.879 34.39175,-7.94722 55.91452,3.86876 53.59718,29.42478 -2.27735,25.11503 -26.2454,47.69867 -64.61119,60.8792 -8.38359,2.88019 -12.91587,3.5817 -23.69932,3.66822 -12.09375,0.0971 -14.05659,-0.24816 -21.1128,-3.71295 -8.92164,-4.38076 -12.87476,-9.66904 -12.88221,-17.2332 -0.009,-9.49385 9.18298,-22.07487 20.27522,-27.74947 10.11508,-5.1747 12.19072,-1.20517 4.30511,8.23328 -13.03791,15.60536 -11.16867,22.58096 6.04469,22.55739 23.3103,-0.032 61.29748,-21.44403 70.57891,-39.78295 5.62637,-11.117 4.1942,-20.69874 -3.70433,-24.78324 -5.85366,-3.02704 -18.00378,-2.59637 -30.26962,1.07292 -14.9135,4.46134 -20.79948,5.23808 -27.01332,3.56487 -7.2665,-1.95667 -10.88832,-6.77491 -10.88832,-14.48519 0,-8.041 3.92632,-15.78313 12.33779,-24.32832 15.31827,-15.5618 41.85937,-28.41436 64.57359,-31.26984 9.08426,-1.14201 21.29152,1.43868 25.175,5.32218 l 3.02816,3.02814 7.77606,-2.72314 c 5.94111,-2.08056 12.18094,-2.85694 26.44274,-3.29012 18.3432,-0.55714 18.73598,-0.63267 22.66666,-4.3584 9.69728,-9.19164 23.80162,-8.59178 24.91284,1.05957 l 0.4205,3.65211 22,0.39086 c 33.61058,0.59714 49.43582,-2.1606 57.67272,-10.05018 3.11918,-2.98766 4.22445,-3.32502 7.33333,-2.23832 2.98021,1.04172 3.73753,2.20438 4.07444,6.25525 0.40777,4.90303 0.49691,4.97572 6.10091,4.97572 4.43197,0 6.40048,-0.77357 8.91952,-3.50517 8.84149,-9.58755 24.35129,-9.27118 25.47858,0.51973 l 0.4205,3.65211 22,0.39086 c 33.49976,0.59518 48.49956,-2.0961 58.96148,-10.57889 3.08788,-2.50372 4.13024,-2.71301 7,-1.40547 4.42898,2.01799 4.46117,7.37139 0.0831,13.81439 -7.57865,11.153 -20.14986,14.98704 -49.37785,15.05953 -11.73333,0.0291 -27.33333,-0.36749 -34.66667,-0.88132 l -13.33333,-0.93421 -14.32143,15.77756 c -11.73901,12.9326 -16.00032,18.85811 -23.63221,32.86148 -10.44108,19.1578 -21.06076,44.53036 -22.24041,53.13683 -2.08144,15.18574 9.16102,15.44312 28.3373,0.64872 9.37672,-7.23408 27.13212,-27.86198 31.6152,-36.72994 1.90196,-3.76225 7.17631,-11.77488 11.72078,-17.80584 23.50536,-31.19396 57.0072,-44.55246 74.60253,-29.74697 5.59001,4.70369 7.91824,9.8338 7.91824,17.44743 0,16.4207 -20.11103,39.63481 -27.73333,32.0125 -2.5995,-2.59949 -1.85554,-6.23773 2.34712,-11.47818 8.23161,-10.26434 9.8971,-23.11304 3.3201,-25.61362 -7.70958,-2.93118 -26.90225,8.18108 -39.08585,22.6301 -11.74479,13.9286 -20.1814,32.15582 -20.1814,43.6017 0,15.60303 16.08481,20.78048 38.80197,12.48975 14.69771,-5.364 28.35778,-14.14 41.76874,-26.83459 9.78668,-9.2639 12.30102,-12.67536 20.29976,-27.54258 24.51604,-45.56802 54.88714,-81.65258 68.72384,-81.65258 5.0526,0 9.0723,4.29183 9.0723,9.68642 0,9.05305 -7.1289,18.64148 -35.9235,48.3175 -18.6293,19.1995 -19.8044,20.74404 -29.22298,38.40902 -5.39726,10.1228 -9.53848,18.67982 -9.2027,19.01561 0.33578,0.33577 10.57972,-11.32496 22.76428,-25.91275 25.0457,-29.98556 36.3569,-41.02792 47.9722,-46.83218 10.1957,-5.09486 17.8325,-5.31359 25.646,-0.73458 6.9569,4.07696 9.2664,9.17611 8.2071,18.12023 -1.0801,9.11973 -7.8101,21.27005 -23.5944,42.5974 -19.6471,26.54673 -23.6138,35.73453 -16.7733,38.85127 2.6376,1.20176 4.588,0.82913 11,-2.10162 6.3017,-2.88032 11.8175,-7.63293 28.8087,-24.82268 19.615,-19.84433 23.7126,-23.06492 25.5543,-20.08504 1.6366,2.64816 -20.7606,30.93491 -35.8224,45.24214 -20.7777,19.7368 -38.4729,22.69449 -48.5426,8.11378 -2.7065,-3.91898 -3.0482,-5.70212 -2.5288,-13.19785 0.794,-11.45837 4.7932,-19.12025 24.3581,-46.66667 15.9958,-22.52109 20.0109,-29.55754 18.7465,-32.85254 -2.7381,-7.1353 -15.3331,-0.32046 -35.7072,19.32025 -25.9174,24.98448 -47.73943,52.27028 -57.74168,72.19896 -4.25163,8.47103 -5.19506,9.28523 -10.79091,9.31292 -8.14885,0.0403 -11.17157,-7.51387 -7.98448,-19.95428 1.16113,-4.53237 2.11116,-8.55159 2.11116,-8.93159 0,-0.38 -3.45,2.28795 -7.66667,5.92878 -15.3921,13.29012 -31.87382,21.76341 -47.1562,24.24312 -9.46588,1.53593 -9.02025,1.5356 -16.7188,0.012 z M 759.28372,613.53149 c 4.04776,-2.68757 14.68484,-12.01504 23.63795,-20.7277 15.3204,-14.90898 16.57533,-16.53074 21.32455,-27.55804 6.18829,-14.36872 18.62366,-37.28426 28.32845,-52.20282 3.99024,-6.13394 7.05828,-11.34933 6.81788,-11.58974 -1.59153,-1.59154 -13.84393,-0.52071 -21.50919,1.87984 -5.02724,1.5744 -10.76066,2.86254 -12.74096,2.86254 -1.98028,0 -5.63364,1.5 -8.11858,3.33334 -2.48495,1.83333 -5.87328,3.33333 -7.52964,3.33333 -3.37994,0 -9.8037,-2.61556 -9.8037,-3.99177 0,-0.49339 -9.23074,-1.63439 -20.51277,-2.53556 l -20.51276,-1.6385 -7.15391,7.72275 c -3.93464,4.24751 -10.55552,11.3354 -14.71306,15.75087 -8.99327,9.5512 -23.48687,35.33721 -32.44659,57.7267 -6.80957,17.01647 -8.44392,25.05491 -6.01632,29.59092 1.40817,2.6312 2.38883,2.93824 7.53251,2.35848 11.6584,-1.31406 28.65597,-15.72816 46.88121,-39.75562 5.24049,-6.90888 13.52936,-17.55139 18.41971,-23.65002 4.89034,-6.09862 10.26181,-14.49862 11.93658,-18.66666 1.7945,-4.466 4.3196,-8.26788 6.14856,-9.25748 5.68386,-3.07539 14.43684,1.17246 14.43684,7.00625 0,4.77987 -7.40624,18.0018 -16.06109,28.67297 -16.49723,20.34056 -29.26869,41.75826 -29.27119,49.08766 -5.7e-4,1.69821 0.6581,4.31928 1.46371,5.8246 2.1424,4.0031 10.30565,2.50301 19.46181,-3.57634 z M 1057.4663,417.63121 c -22.0922,-4.1867 -41.7823,-18.3167 -50.7175,-36.3958 -4.4063,-8.91564 -5.008,-11.37433 -5.4921,-22.44226 -0.6493,-14.84538 2.173,-25.81358 10.0577,-39.0866 9.8548,-16.58967 30.0901,-31.2819 48.2498,-35.03272 l 7.6194,-1.57376 -0.08,-13.45226 c -0.072,-12.09025 0.2941,-14.21381 3.6141,-20.97425 4.5014,-9.16627 13.2919,-17.52531 23.4058,-22.25696 6.6202,-3.09719 9.235,-3.5376 20.9002,-3.52036 12.0614,0.0179 14.0734,0.39181 21.091,3.92039 13.1365,6.60532 19.5997,16.19536 19.5464,29.00278 -0.075,18.0708 -16.0469,32.06695 -34.2517,30.015 -14.0754,-1.58649 -14.1385,-15.63884 -0.07,-15.63884 9.7256,0 14.5706,-9.21796 9.7474,-18.54508 -2.5154,-4.86421 -8.8685,-7.45492 -18.2814,-7.45492 -6.2237,0 -8.5685,0.70499 -13.3333,4.00887 -10.2375,7.09865 -15.23,22.40353 -11.9577,36.6578 1.7907,7.80055 -0.4325,11.56023 -7.4804,12.65021 -17.6605,2.73127 -26.4451,6.68903 -36.7418,16.55338 -24.4108,23.38586 -24.3858,58.5446 0.053,74.7323 12.5401,8.30624 32.9022,11.72652 46.1905,7.75876 7.8144,-2.33332 18.8031,-13.34902 20.7936,-20.84481 2.0289,-7.63997 0.6843,-14.87668 -3.9536,-21.27907 -5.414,-7.47389 -11.8701,-10.9677 -22.8036,-12.34056 -11.1516,-1.40025 -11.8817,-1.76461 -11.8817,-5.92917 0,-4.59292 6.6725,-11.55829 15.6197,-16.30531 25.9661,-13.7765 61.5116,-12.13176 79.5197,3.67951 8.6368,7.58323 13.005,19.66439 8.8989,24.61191 -2.6469,3.1893 -5.97,2.44946 -12.1357,-2.70183 -7.6255,-6.37097 -11.563,-8.26655 -23.5269,-11.32641 -10.7223,-2.7423 -37.1,-3.52594 -42.3757,-1.25891 -2.6667,1.14591 -2.6667,1.14591 0,1.25264 4.5983,0.18407 15.8171,6.22799 20.265,10.91741 12.4853,13.16319 13.645,35.07702 2.7169,51.33662 -11.8418,17.619 -37.2786,26.17584 -63.2061,21.2623 z M 342.40406,376.94989 c -2.41157,-4.50605 -1.54483,-15.5895 1.94394,-24.8583 9.4019,-24.97855 40.44807,-70.29186 61.88478,-90.32366 8.67786,-8.10913 17.37578,-12.13464 23.66858,-10.9541 13.35803,2.50598 13.13207,12.75012 -1.29509,58.71508 -9.99977,31.85929 -12.79792,52.69862 -7.21826,53.75838 4.89169,0.92908 24.74618,-23.0362 42.63339,-51.46048 12.06962,-19.1796 17.9599,-30.5135 23.65212,-45.51061 5.04583,-13.29408 7.70358,-16.4734 11.68363,-13.97648 3.83391,2.40523 3.73895,13.84125 -0.21955,26.44163 -3.9781,12.66281 -18.56641,39.90926 -31.02653,57.948 -21.01243,30.42004 -34.58667,42.8045 -46.90586,42.79457 -15.53812,-0.012 -21.98051,-12.20021 -18.7451,-35.46193 0.7685,-5.52534 5.25972,-23.15631 9.98049,-39.17995 4.72077,-16.02364 8.58322,-29.48323 8.58322,-29.91019 0,-2.6912 -4.66258,0.35644 -11.56149,7.55706 -18.41752,19.22296 -49.7354,67.51706 -56.46173,87.06749 -3.45809,10.05109 -7.61061,12.93275 -10.59654,7.35349 z m 168.95038,0.67668 c -13.75513,-4.90872 -19.01128,-13.30022 -18.9678,-30.28232 0.0283,-11.02265 0.29782,-12.0548 6.26846,-24 10.1027,-20.21204 22.92053,-33.66794 39.70205,-41.67841 15.69033,-7.4896 32.33527,-4.95088 39.60956,6.04132 2.94351,4.44793 3.30159,6.19443 2.82016,13.755 -0.47331,7.43321 -1.29843,9.74532 -5.82391,16.31945 -10.31078,14.9784 -29.67081,24.27675 -46.74041,22.44875 -4.77252,-0.51109 -10.47239,-1.44408 -12.66636,-2.07331 -3.53075,-1.0126 -4.13513,-0.75977 -5.26071,2.20071 -1.93877,5.09937 -1.51788,14.22628 0.80927,17.54876 10.83201,15.46485 47.08512,4.54828 73.88033,-22.24693 5.05259,-5.05259 10.70107,-12.17531 12.55216,-15.82828 7.79379,-15.38031 22.97814,-30.52322 38.12803,-38.02399 7.31863,-3.62348 10.08224,-4.27049 18.05361,-4.22671 15.86119,0.0872 24.66656,7.9968 24.60899,22.10567 -0.0383,9.37523 -3.55335,16.88557 -11.72989,25.06212 -12.03092,12.03092 -28.77162,17.60979 -44.91935,14.96948 -4.39348,-0.71839 -9.02981,-1.71577 -10.30295,-2.21643 -2.91422,-1.14601 -5.01853,3.80919 -5.01853,11.81758 0,31.13201 60.24844,12.69332 86.72369,-26.5413 19.60916,-29.05952 41.17512,-45.87213 58.88024,-45.90246 9.22218,-0.0157 14.1911,2.03937 15.26375,6.31318 1.15065,4.58454 -1.34911,6.32474 -9.26709,6.45124 -9.57943,0.15307 -17.05751,4.32882 -28.26726,15.78436 -16.96218,17.33414 -29.56369,37.63807 -31.92476,51.43819 -1.11928,6.54205 0.45334,8.49344 5.34578,6.63333 7.28297,-2.76898 25.90958,-16.28873 37.5889,-27.28316 11.50762,-10.83278 11.87008,-11.37102 24.80775,-36.83845 15.45672,-30.42609 22.50893,-41.49401 31.71021,-49.76676 5.53354,-4.97512 7.68504,-6.07829 11.85442,-6.07829 6.46492,0 9.28437,2.80294 9.28437,9.22998 0,9.00026 -7.461,20.54084 -25.66452,39.69759 -9.18039,9.66111 -11.53188,13.27188 -20.28968,31.15524 -13.61583,27.80345 -18.01627,41.25052 -13.49887,41.25052 3.08706,0 14.07683,-9.42985 26.47715,-22.71889 8.56011,-9.1736 13.29804,-15.68504 17.8632,-24.54976 6.95243,-13.50039 25.75212,-45.56743 30.9144,-52.73135 5.23287,-7.26188 15.15833,-17.34603 19.13211,-19.43795 1.98025,-1.04245 6.29622,-1.89538 9.59106,-1.89538 6.45046,0 10.15808,3.1599 10.12592,8.63001 -0.0408,6.93005 -15.74518,28.65356 -38.62145,53.42396 -9.47931,10.26419 -13.72709,16.17797 -18.70801,26.04535 -7.26639,14.39498 -11.25172,26.58562 -9.99046,30.55952 1.2568,3.95985 8.23895,3.46385 15.40811,-1.09458 8.07636,-5.13525 23.80552,-22.27129 31.82937,-34.67629 18.10323,-27.98788 27.47018,-37.6916 43.64355,-45.21264 14.77029,-6.86859 31.50111,-4.195 38.5362,6.15807 4.11967,6.06264 4.38704,16.8702 0.62253,25.16353 -5.81358,12.80752 -21.59521,24.07643 -37.95281,27.10029 -7.29421,1.34842 -20.27755,0.30672 -26.39927,-2.11808 -2.91429,-1.15434 -5.01853,3.79794 -5.01853,11.81098 0,10.37997 6.65691,15.54321 20.03971,15.54321 16.02352,0 38.15637,-11.68492 56.36909,-29.75976 7.25013,-7.19525 12.57564,-11.48111 13.72033,-11.04185 2.88024,1.10525 2.37624,2.48926 -4.82981,13.26322 -16.90101,25.26912 -44.17696,42.16944 -67.96599,42.11211 -20.6522,-0.0497 -31.94842,-8.67996 -34.47429,-26.33792 l -0.87849,-6.14143 -4.89734,6.67151 c -6.06949,8.26831 -17.83532,19.50891 -23.47092,22.4232 -15.10328,7.81021 -30.05084,0.1276 -30.20849,-15.52632 l -0.0704,-6.99712 -10.66667,10.77092 c -12.01678,12.13424 -19.77752,16.19396 -28.00608,14.65027 -5.76681,-1.08186 -9.98145,-7.04796 -9.98893,-14.14003 -0.004,-4.26524 2.32019,-15.03545 4.73708,-21.9468 0.51289,-1.46667 -1.08035,-0.26667 -3.54055,2.66667 -21.77364,25.96113 -38.29668,36.32109 -52.03026,32.62302 -4.45439,-1.19944 -5.80514,-2.40089 -7.90892,-7.03476 -1.39542,-3.07354 -2.55028,-8.50808 -2.56639,-12.07674 l -0.0293,-6.48848 -5.0521,4.56426 c -7.54301,6.81466 -16.7207,12.8266 -26.69797,17.4888 -8.2598,3.85967 -9.99696,4.16991 -23.58327,4.21191 -13.6748,0.0423 -15.09257,-0.20504 -20.96456,-3.65679 -7.70936,-4.5318 -13.20037,-13.27392 -14.07865,-22.41426 l -0.62468,-6.50127 -9.66087,8.97549 c -17.62965,16.37896 -34.76933,24.25902 -52.67124,24.21587 -5.5,-0.0133 -12.25121,-0.82748 -15.0027,-1.80939 z m 30.1385,-50.43502 c 5.83982,-1.70499 16.67412,-10.88292 20.87957,-17.68748 5.69668,-9.21744 3.01308,-16.64183 -6.01531,-16.64183 -4.9469,0 -17.86912,7.43227 -25.06602,14.41683 -7.14623,6.93538 -15.02399,18.70122 -13.50736,20.17392 2.91337,2.82894 13.52485,2.71193 23.70912,-0.26144 z m 98.26009,-0.41187 c 11.67735,-3.75959 25.55385,-21.49239 22.69751,-29.00515 -3.54922,-9.33513 -19.25447,-4.5918 -34.1648,10.31854 -7.08627,7.08628 -14.65298,17.82256 -13.42583,19.0497 1.53033,1.53034 9.76757,2.8243 14.16391,2.22496 2.56666,-0.3499 7.39481,-1.51452 10.72921,-2.58805 z m 259.12115,0.39751 c 5.82562,-1.70126 18.55638,-12.65555 21.64161,-18.62172 4.65256,-8.99706 1.74028,-15.69323 -6.82525,-15.69323 -4.94691,0 -17.86912,7.43227 -25.06603,14.41683 -7.14623,6.93538 -15.02399,18.70122 -13.50736,20.17392 2.91951,2.83489 13.52667,2.71176 23.75703,-0.2758 z"
         id="path4221"
         inkscape:connector-curvature="0" />
    </g>
  </g>
</svg>
