<?xml version="1.0" encoding="UTF-8" standalone="no"?>
<!-- Created with Inkscape (http://www.inkscape.org/) -->

<svg
   xmlns:dc="http://purl.org/dc/elements/1.1/"
   xmlns:cc="http://creativecommons.org/ns#"
   xmlns:rdf="http://www.w3.org/1999/02/22-rdf-syntax-ns#"
   xmlns:svg="http://www.w3.org/2000/svg"
   xmlns="http://www.w3.org/2000/svg"
   xmlns:sodipodi="http://sodipodi.sourceforge.net/DTD/sodipodi-0.dtd"
   xmlns:inkscape="http://www.inkscape.org/namespaces/inkscape"
   width="1024"
   height="1024"
   viewBox="0 0 1024 1024"
   id="svg2"
   version="1.1"
   inkscape:version="0.91 r13725"
   sodipodi:docname="logo.svg"
   inkscape:export-filename="/home/niels/workspace/needleandstitch/WebContent/images/logo/logo16.png"
   inkscape:export-xdpi="1.4400001"
   inkscape:export-ydpi="1.4400001">
  <defs
     id="defs4" />
  <sodipodi:namedview
     id="base"
     pagecolor="#ffffff"
     bordercolor="#666666"
     borderopacity="1.0"
     inkscape:pageopacity="0.0"
     inkscape:pageshadow="2"
     inkscape:zoom="0.56899999"
     inkscape:cx="-79.201076"
     inkscape:cy="522.52858"
     inkscape:document-units="px"
     inkscape:current-layer="g4219"
     showgrid="false"
     units="px"
     inkscape:window-width="3840"
     inkscape:window-height="2034"
     inkscape:window-x="0"
     inkscape:window-y="60"
     inkscape:window-maximized="1" />
  <metadata
     id="metadata7">
    <rdf:RDF>
      <cc:Work
         rdf:about="">
        <dc:format>image/svg+xml</dc:format>
        <dc:type
           rdf:resource="http://purl.org/dc/dcmitype/StillImage" />
        <dc:title></dc:title>
      </cc:Work>
    </rdf:RDF>
  </metadata>
  <g
     inkscape:label="Layer 1"
     inkscape:groupmode="layer"
     id="layer1"
     transform="translate(0,-28.362161)">
    <g
       id="g4219"
       transform="matrix(1.112774,0,0,1.1421233,-379.49929,325.26994)">
      <path
         style="fill:#b1373b"
         d="m 354.9977,460.05599 c -2.64562,-1.92699 -2.64523,-1.99991 0.0296,-6.95135 6.40505,-11.85766 29.03618,-25.12548 53.17865,-31.17667 23.97235,-6.00855 44.13667,-7.87759 92.95081,-8.61536 47.67207,-0.72063 64.6503,-0.15376 194.13148,6.48146 238.95294,12.2452 366.05006,13.56851 448.33256,4.6682 52.4761,-5.67618 75.5556,-12.72532 91.6181,-27.98262 10.3545,-9.83547 14.4389,-17.2503 14.4389,-26.21228 0,-5.34421 -0.7397,-7.18425 -4.4763,-11.13382 -3.8137,-4.03102 -6.9234,-5.41672 -21.0048,-9.35967 -9.0906,-2.54543 -21.177,-5.35423 -26.8587,-6.24186 -5.6817,-0.88752 -12.4996,-2.19528 -15.151,-2.90588 -12.5501,-3.36395 -35.6938,-5.52574 -71.623,-6.69018 -35.7441,-1.15853 -47.194,-0.90587 -84.7081,1.86862 -14.7655,1.09203 -91.5917,13.50603 -97.62344,15.77453 -1.69755,0.63839 -8.00847,1.89089 -14.0243,2.78313 -6.01574,0.89234 -14.22712,2.75725 -18.24755,4.14435 -4.02034,1.38711 -12.07791,3.23607 -17.90575,4.10895 -5.82775,0.87288 -27.64081,5.16266 -48.47352,9.53288 -95.65089,20.06532 -136.4511,25.81281 -183.18953,25.80588 -25.75014,0 -44.59406,-2.34994 -60.02213,-7.47298 -14.03379,-4.66008 -19.28304,-7.45625 -30.08767,-16.02678 -11.96223,-9.48885 -15.06552,-14.6465 -19.98581,-33.2171 -2.23416,-8.43243 -1.9621,-32.44401 0.49957,-44.09364 1.18762,-5.62022 2.15978,-11.32518 2.16037,-12.67768 6.9e-4,-1.3525 1.32632,-5.33768 2.94603,-8.85607 14.4562,-31.40324 19.7261,-42.40478 22.79007,-47.57655 l 3.56652,-6.0199 -2.43016,-7.93938 c -5.44752,-17.79751 -0.19975,-33.20244 17.20436,-50.5036 13.39018,-13.31094 27.21424,-22.25569 62.6701,-40.55026 41.71906,-21.52624 67.05653,-36.471522 118.56057,-69.93264 13.69476,-8.897201 25.60443,-16.176721 26.46575,-16.176721 1.94205,0 4.41785,4.397902 4.41785,7.847699 0,3.613984 -3.38286,6.357694 -26.85861,21.784604 -36.31129,23.861634 -69.59618,43.278838 -115.00997,67.092638 -28.61664,15.00586 -38.51836,21.16787 -52.33995,32.57179 -13.40125,11.05728 -20.1821,19.51519 -22.8858,28.54599 -2.91866,9.74901 -1.0675,11.68764 5.61664,5.88238 7.22469,-6.27475 12.83036,-8.71737 20.00625,-8.71737 11.41484,0 22.95614,8.38309 25.35726,18.41834 4.02191,16.8086 -19.83536,31.95778 -39.11326,24.83664 -10.45058,-3.86042 -12.00885,-3.96564 -13.65572,-0.92163 -0.82686,1.52821 -3.39967,7.86605 -5.71731,14.08393 -4.36225,9.42413 -10.20426,19.47402 -14.42578,27.05198 -5.75201,11.60564 -2.77001,4.20407 -2.01268,3.44728 0.70189,-0.70138 -2.86611,7.8098 -6.36919,15.16102 -3.27363,8.45026 -2.90865,16.93409 -4.05814,25.82321 -2.13206,16.48741 4.08135,27.0527 15.72399,38.32192 9.64626,9.3368 19.67789,14.9559 36.78199,20.6028 14.44483,4.76909 40.88717,8.90272 50.8204,7.94459 93.18276,-2.47475 197.78265,-25.9237 260.21107,-38.37606 75.07508,-11.22507 79.52028,-12.36845 85.58074,-13.0583 24.05004,-2.73748 117.34474,-6.94684 136.35934,-6.15238 66.2937,2.76988 97.3993,8.47816 118.3135,21.71229 18.1867,11.508 18.3925,31.45447 0.5682,55.06637 -20.6501,27.35537 -69.0736,41.53649 -168.4669,49.33666 -10.6058,0.83236 -51.2036,1.85849 -90.21763,2.28043 -90.24612,0.97599 -134.58611,-0.46005 -322.99208,-10.46022 -139.67334,-7.4135 -175.11764,-8.30344 -216.67686,-5.44007 -38.002,2.61833 -60.31898,7.13298 -77.45399,15.66871 -10.49415,5.22766 -13.27056,5.67709 -17.23479,2.78975 z M 611.95745,220.84513 c 5.97058,-5.90604 0.58096,-16.34962 -8.4377,-16.34962 -3.45587,0 -5.74279,1.35441 -10.3929,6.155 -3.27913,3.3853 -5.96199,6.73782 -5.96199,7.45012 0,2.54573 7.69906,5.36135 14.8067,5.41491 5.44504,0.0411 7.91155,-0.61843 9.98589,-2.67041 z m 178.08203,-12.95458 c -1.56024,-1.081 -3.15229,-4.18908 -3.63081,-7.08815 -1.22951,-7.44993 5.85787,-64.28052 12.96284,-103.942479 4.3083,-24.050797 4.49105,-24.307255 9.61276,-13.490379 1.80909,3.820692 3.48591,6.363007 3.72626,5.649598 0.50341,-1.493816 -2.71181,-11.381843 -15.17152,-46.65833 -13.33734,-37.7611378 -17.63349,-48.3502412 -40.90565,-100.823159 -8.96502,-20.214058 -37.20215,-75.188971 -48.28724,-94.010801 -12.36031,-20.98715 -25.30763,-40.8285 -34.36719,-52.66649 -7.29059,-9.52646 -9.78279,-16.82212 -6.91441,-20.24093 3.13155,-3.73244 7.79292,-2.36359 12.81021,3.76182 8.41182,10.26945 36.21175,54.4674 47.85054,76.07518 6.22161,11.55065 13.63489,24.98636 16.47396,29.85726 8.5592,14.68471 14.13238,26.345979 29.48072,61.685749 38.01119,87.520937 60.93729,152.000049 73.74405,207.403231 2.42502,10.49101 5.90905,25.4021 7.74223,33.13565 3.45548,14.5777 3.16969,18.04686 -1.6371,19.87145 -5.82794,2.21224 -12.92914,-9.67229 -12.92914,-21.63837 0,-8.28328 -16.04885,-66.51854 -23.70178,-86.004641 l -3.15685,-8.037964 -0.82289,10.218515 c -0.45264,5.62022 -2.74124,20.94803 -5.08575,34.06189 -2.34452,13.11387 -5.00584,33.34658 -5.91399,44.9617 -0.90815,11.61515 -2.15386,22.46061 -2.76822,24.10106 -1.6687,4.45617 -5.7325,6.15941 -9.11103,3.81859 z m -21.05833,-2.70892 c -3.75105,-4.4709 4.04602,-76.3516 13.94656,-128.572272 2.4516,-12.930826 3.61008,-16.242114 7.03127,-20.096509 4.81833,-5.428452 7.44716,-5.818804 9.47901,-1.407461 1.1484,2.493171 0.38389,9.394272 -3.43384,30.996328 -6.75022,38.195424 -11.70636,74.374674 -13.17148,96.150444 -1.34222,19.94737 -3.13145,24.96831 -8.89794,24.96831 -1.7837,0 -4.01274,-0.91751 -4.95358,-2.03884 z m -19.01177,-3.68358 c -0.90903,-0.89926 -1.6528,-4.4996 -1.6528,-8.00075 0,-8.66852 6.22674,-61.89487 9.70207,-82.93316 1.55452,-9.41073 3.36617,-21.309704 4.02587,-26.442277 0.84236,-6.55357 2.0933,-10.272965 4.20201,-12.49333 3.25878,-3.431243 10.59985,-6.950346 11.87252,-5.691424 0.43427,0.429571 -0.4885,8.329323 -2.05052,17.554996 -4.00048,23.627345 -9.46351,66.081855 -11.76248,91.409015 -2.09576,23.08896 -3.83501,28.23186 -9.54767,28.23186 -1.72482,0 -3.87996,-0.73576 -4.789,-1.63493 z m 54.19557,-0.98582 c -0.56477,-0.90387 -0.62838,-3.74467 -0.14127,-6.31275 1.02571,-5.4087 1.38441,-5.53156 19.5063,-6.68576 13.50636,-0.86026 14.68322,-0.41484 16.35913,6.19069 0.59243,2.33451 0.19432,4.06913 -1.19562,5.21021 -2.94948,2.42145 -33.14108,3.81838 -34.52854,1.59761 z m 59.98725,-2.93386 c -1.4175,-2.30573 -3.96936,-10.73605 -5.67077,-18.7341 C 844.59394,113.56361 812.96362,17.835097 783.44752,-48.243742 762.87719,-94.295278 723.40631,-165.90306 697.13846,-204.82481 c -7.54753,-11.18345 -14.05276,-21.96583 -14.4562,-23.96093 -0.70405,-3.4825 2.17539,-8.16092 5.02293,-8.16092 2.99176,0 10.34014,8.16293 18.77564,20.85675 28.89165,43.47622 45.54856,72.03454 66.98634,114.848 34.66655,69.23276 59.69988,135.485123 86.95048,230.11998 18.66592,64.82193 19.71771,72.89249 9.49996,72.89249 -2.08342,0 -4.08119,-1.4527 -5.76541,-4.19219 z m -133.22,-2.00033 c -2.14427,-3.23726 -2.14378,-5.20498 0.01,-29.6338 2.57794,-29.27103 8.55397,-70.339632 11.14301,-76.577974 1.01889,-2.455056 4.06302,-5.394045 7.62261,-7.359251 l 5.92623,-3.271873 -0.81223,7.359251 c -0.44681,4.047667 -2.37187,19.314997 -4.27797,33.927607 -1.9061,14.61249 -4.80747,37.60426 -6.44734,51.09283 -1.63996,13.48848 -3.60605,25.29097 -4.36918,26.22764 -2.25709,2.77059 -6.33047,1.95318 -8.79294,-1.76443 z m 151.82526,-3.06214 c -1.09397,-2.09259 -2.70321,-7.76385 -3.57619,-12.60286 -5.36019,-29.71273 -20.45673,-81.516277 -40.58479,-139.265795 -34.45109,-98.84401 -70.36186,-171.790555 -126.65995,-257.288285 -12.8979,-19.58761 -14.60849,-25.01324 -8.37434,-26.56101 7.03084,-1.74557 10.30386,2.13571 33.99891,40.31727 38.71409,62.38281 78.04586,140.932312 102.33395,204.3713493 16.19139,42.2909287 31.21641,90.1704697 45.5347,145.1036707 9.42646,36.1656 10.5469,42.00677 8.88648,46.32694 -1.9296,5.02015 -8.85023,4.77993 -11.55877,-0.40128 z m -170.204,-2.91814 c -1.96823,-3.63795 -1.76463,-13.8084 0.7248,-36.19509 1.16657,-10.49111 2.89041,-26.21549 3.83067,-34.94319 0.99182,-9.20562 2.51423,-16.82745 3.62588,-18.15237 2.66962,-3.181906 12.12206,-7.768465 13.02655,-6.320784 0.41017,0.65654 -0.18098,7.856024 -1.31377,15.999004 -1.13269,8.14287 -3.50486,28.75039 -5.27137,45.79427 -2.59198,25.00833 -3.69434,31.51626 -5.71158,33.72128 -3.16504,3.45953 -7.0689,3.50206 -8.91118,0.0973 z m 190.42581,-1.17997 c -2.30609,-1.44969 -5.90727,-10.3451 -5.90727,-14.59174 0,-17.77093 -39.38758,-145.159322 -58.55198,-189.370428 -5.52209,-12.739159 -12.20089,-28.680082 -14.84176,-35.42432 -9.82319,-25.08646 -43.99867,-94.265352 -58.5584,-118.535412 -9.9446,-16.5768 -34.00777,-53.33556 -39.10706,-59.73949 -2.89169,-3.63152 -5.61575,-8.01429 -6.05347,-9.73929 -2.62062,-10.32883 4.4709,-13.72506 12.30402,-5.89252 4.34881,4.34846 46.52626,72.91274 64.0017,104.04216 27.82831,49.571238 58.69087,123.014047 82.70837,196.818841 17.46278,53.662839 23.04317,73.218349 29.92309,104.861889 3.76557,17.31951 4.55023,23.14201 3.44264,25.54642 -1.44684,3.14139 -6.01208,4.1284 -9.35988,2.02389 z m -93.02559,-2.57562 c -3.37566,-0.53678 -3.7878,-1.17678 -3.7878,-5.88138 0,-2.9034 0.62641,-5.66195 1.39211,-6.13003 0.76569,-0.46808 6.94473,-1.20697 13.7313,-1.64185 l 12.33909,-0.79074 1.41977,3.69382 c 2.08234,5.41761 1.73856,8.6949 -0.99064,9.44623 -3.93735,1.0839 -20.01771,1.95377 -24.10383,1.30395 z m -121.95925,-12.6181 c -15.63315,-8.08049 -42.02331,-24.68117 -43.82826,-27.57011 -1.13743,-1.82047 3.9592,-6.25198 8.48176,-7.3748 2.30895,-0.57319 5.85807,1.01671 13.25516,5.93785 5.55597,3.69644 11.65133,7.44632 13.54517,8.33314 l 3.44343,1.61247 -3.39176,-2.42377 c -15.26832,-10.91055 -19.3347,-14.2417 -19.3347,-15.83862 0,-1.01179 2.3944,-2.90769 5.32087,-4.21316 5.16518,-2.3039 5.4979,-2.28826 11.36328,0.53548 l 6.04231,2.90901 -3.78769,-2.89977 c -2.08333,-1.59492 -3.7878,-3.75259 -3.7878,-4.79488 0,-2.39979 7.02426,-6.05249 11.6392,-6.05249 2.21855,0 3.51187,-0.75994 3.51187,-2.06369 0,-2.40803 7.78709,-7.46106 11.50929,-7.46849 1.40614,0 3.77541,-1.53795 5.26512,-3.41129 3.49065,-4.38967 8.01806,-4.56087 8.01806,-0.30319 0,1.70664 -0.88327,4.35056 -1.96291,5.87517 -1.07954,1.52471 -1.51302,3.49232 -0.96307,4.37243 1.51263,2.42105 0.0909,11.29007 -1.93347,12.05845 -0.97828,0.37128 -3.69414,-0.3046 -6.03506,-1.50215 -5.93088,-3.03377 -5.31099,-1.79721 1.25298,2.49959 4.57512,2.99496 5.50945,4.36792 5.50945,8.09553 0,2.4689 -0.87327,5.67036 -1.94066,7.11434 -1.34657,1.82158 -1.5394,3.36715 -0.62987,5.04811 1.80869,3.3431 0.0138,11.92195 -2.49378,11.92195 -1.10168,0 -6.611,-2.10603 -12.24295,-4.68004 -5.63204,-2.574 -10.23997,-4.46299 -10.23997,-4.1977 0,0.26518 5.30032,3.34016 11.77848,6.8333 l 11.77855,6.35108 -0.4153,6.25569 c -0.22839,3.44056 -1.0351,6.44154 -1.79259,6.6688 -0.75757,0.22728 -8.3783,-3.20547 -16.93514,-7.62824 z m 16.86618,-25.73127 c -2.45907,-2.14474 -17.84111,-10.06305 -16.16173,-8.3197 2.14596,2.22749 14.4408,9.40712 16.16173,9.43761 0.82645,0.015 0.82645,-0.39717 0,-1.11791 z m 214.56957,30.52775 c -1.4986,-1.88458 -3.69621,-8.78638 -5.09742,-16.00902 C 909.57934,137.50919 880.12992,36.908994 872.93032,20.579721 870.448,14.949367 865.81449,2.9852999 862.63385,-6.0070833 850.18322,-41.206639 836.59772,-71.848421 810.89284,-122.70787 c -26.90762,-53.23908 -45.02684,-83.97974 -68.85873,-116.82464 -3.84521,-5.29936 -4.35535,-11.24985 -1.18745,-13.85054 3.33598,-2.7387 11.01519,2.00784 15.4533,9.55174 2.00725,3.41189 8.79954,13.68344 15.09396,22.82568 15.98138,23.21162 17.81418,26.4616 45.56395,80.79472 31.24842,61.183365 43.75101,88.229519 57.6298,124.666532 11.28316,29.62277 27.95417,79.931505 35.66746,107.635601 7.18004,25.788437 13.87089,47.564417 15.44803,50.277427 0.39268,0.6755 1.5148,0.14493 2.49348,-1.17909 1.50097,-2.0304 1.33431,-3.00316 -1.06433,-6.21235 -2.01042,-2.68986 -2.67605,-5.22796 -2.27102,-8.6599 0.36235,-3.06968 -0.0564,-5.09387 -1.1397,-5.50488 -1.92547,-0.73086 -5.13644,-11.11064 -3.99989,-12.92982 0.40433,-0.64712 -0.1877,-1.93433 -1.31574,-2.86036 -1.12796,-0.92593 -2.05083,-3.44789 -2.05083,-5.604258 0,-3.277699 0.56685,-3.9206 3.45686,-3.9206 1.90126,0 4.51832,1.226225 5.81559,2.724955 1.29727,1.498737 3.48047,2.724963 4.85154,2.724963 4.24359,0 12.04589,3.84356 12.04589,5.93404 0,1.29232 0.93018,1.74506 2.66379,1.29663 4.28676,-1.10887 12.48728,2.16069 12.48728,4.97872 0,2.73488 -7.04549,9.48002 -16.92657,16.2049 -3.56878,2.42879 -6.48863,4.70893 -6.48863,5.06678 0,1.59642 8.43552,-3.92821 17.63191,-11.54733 5.51587,-4.56992 11.27377,-8.30897 12.79529,-8.30897 3.09589,0 10.89374,3.64538 10.89374,5.09266 0,0.51442 -2.63425,3.65279 -5.85381,6.97421 -6.3371,6.53754 -5.26397,6.37575 4.66096,-0.70247 7.14547,-5.09596 10.13269,-5.56786 14.79563,-2.33712 l 3.19688,2.21496 -9.4329,9.45194 c -14.41541,14.4446 -41.69239,33.19141 -46.85342,32.20139 -1.2621,-0.24211 -2.8995,-2.23591 -3.63872,-4.4306 -1.45691,-4.32548 -2.03492,-3.57036 10.8073,-14.11884 l 5.45947,-4.48435 -8.39927,4.0589 c -7.80932,3.77375 -8.55901,3.90073 -10.67454,1.80805 -2.77226,-2.74222 -3.03148,-0.81752 -0.87772,6.51696 1.99205,6.78426 1.96803,20.10192 -0.0405,22.496 -2.50624,2.98713 -6.31882,2.45706 -9.301,-1.29322 z m -111.44237,-9.05467 c -1.00407,-0.99323 -1.0667,-3.08552 -0.19382,-6.47183 0.70959,-2.75224 1.52952,-8.06956 1.82213,-11.81633 1.27277,-16.29568 4.3407,-38.81665 5.43536,-39.89945 1.44683,-1.43113 3.35422,2.61162 4.36134,9.24373 0.51202,3.37206 1.83172,7.49656 2.9326,9.16548 1.10099,1.66884 2.00173,5.19426 2.00173,7.83427 0,2.6399 0.52871,4.79979 1.17486,4.79979 1.50127,0 4.1055,9.19478 3.23775,11.43169 -0.36077,0.93006 0.29242,3.49012 1.45158,5.68891 2.82778,5.36416 2.66617,8.3839 -0.53967,10.08101 -3.51317,1.8599 -19.78922,1.81687 -21.68386,-0.0573 z M 613.95729,127.60692 c -3.21888,-4.85957 -1.00446,-7.70368 10.68115,-13.71866 5.52497,-2.84391 15.21568,-8.16724 21.53469,-11.82967 6.31911,-3.662429 17.16583,-9.478522 24.10395,-12.924711 13.44729,-6.679341 44.49731,-25.693149 86.71537,-53.100976 14.26199,-9.25877 26.49587,-16.834164 27.1865,-16.834164 0.69062,0 2.24641,1.895102 3.45725,4.211349 2.03462,3.892006 2.02365,4.405825 -0.14513,6.776333 -3.16147,3.455715 -35.97478,25.79596 -56.39163,38.393099 -20.12589,12.417709 -75.30237,44.03909 -87.03709,49.88066 -4.69001,2.3347 -11.47441,6.09362 -15.07629,8.35319 -7.96322,4.99556 -12.10072,5.21401 -15.02877,0.79355 z m 351.96949,-16.15808 c -15.52241,-6.21396 -33.74754,-14.031171 -40.50042,-17.371547 -11.22597,-5.553216 -12.43423,-6.540435 -14.10324,-11.523361 -3.0545,-9.119459 -1.91509,-9.331586 13.57779,-2.527873 7.79934,3.425124 25.64729,10.786484 39.66202,16.358455 40.91417,16.266886 42.44957,16.943696 43.27707,19.076696 0.4337,1.11821 0.1493,3.215 -0.6322,4.65947 -2.7977,5.17089 -11.01311,3.44498 -41.28102,-8.67184 z m -363.95522,4.36541 c -3.35254,-1.91596 -3.00995,-7.04942 0.68864,-10.3199 1.70447,-1.50716 7.86464,-4.93809 13.68932,-7.624344 C 641.582,86.233305 756.70775,16.980672 770.05803,5.4083628 c 6.09209,-5.28081109 9.53383,-5.12324541 11.05832,0.5062967 0.6596,2.4353986 0.96614,5.0411015 0.68123,5.7905175 -1.42905,3.75851 -78.8134,53.687724 -116.00929,74.850481 -18.46034,10.503049 -53.44479,28.293342 -58.65165,29.825572 -1.5151,0.44591 -3.83946,0.19076 -5.16508,-0.56698 z m 401.15754,-9.911 c -26.81625,-9.430876 -64.54787,-24.904115 -88.34379,-36.228692 -7.17115,-3.412789 -9.31967,-5.139493 -9.95279,-7.998746 -0.44406,-2.005528 -1.20452,-5.025957 -1.68985,-6.712042 -0.55825,-1.939236 -0.28589,-3.065566 0.74129,-3.065566 0.89313,0 16.61568,6.367327 34.9391,14.149532 18.32343,7.782306 42.60518,17.581374 53.95933,21.77577 21.52751,7.952509 27.22941,11.045848 28.05801,15.221904 0.5371,2.70709 -3.1734,6.09792 -6.6112,6.04155 -1.181,-0.0191 -6.176,-1.45198 -11.1001,-3.18371 z M 590.19505,100.6748 c -2.96865,-2.936484 -1.9212,-7.883507 2.13489,-10.083412 65.01018,-35.25993 135.11844,-77.464207 165.03237,-99.3473979 11.08302,-8.1077681 13.52108,-8.8584871 15.69835,-4.8341901 3.89221,7.1940665 2.84102,8.3248092 -25.08845,26.988281 C 703.7158,42.971715 663.63365,67.141069 616.68559,92.563619 598.90936,102.18947 593.4241,103.86904 590.19505,100.6748 Z M 1018.2802,93.185859 C 995.37401,85.048102 945.40051,64.068585 916.65376,50.521734 899.4505,42.414669 898.61891,41.830642 896.51345,36.377121 c -2.49229,-6.455283 -2.75852,-9.003516 -0.94084,-9.003516 1.71998,0 19.49405,7.682611 39.37691,17.020214 21.2812,9.99435 52.21123,22.663903 72.31168,29.620268 8.7119,3.015011 17.5003,6.316372 19.5299,7.336487 7.5082,3.773652 6.0605,12.873052 -2.0168,12.676773 -2.4355,-0.05917 -5.3578,-0.437795 -6.4941,-0.841488 z M 580.55354,85.687592 c -2.59168,-2.563576 -1.94433,-7.160164 1.44614,-10.268753 1.70457,-1.56272 8.47701,-5.287932 15.05011,-8.278172 6.573,-2.99024 14.63056,-7.24221 17.90575,-9.448833 3.27508,-2.206523 17.42129,-10.471659 31.43601,-18.366699 24.46027,-13.779634 65.28913,-39.48292688 94.34952,-59.396495 7.57551,-5.191146 15.75408,-10.433042 18.17457,-11.648735 4.23608,-2.12769 4.48107,-2.0972 6.54247,0.814106 5.13435,7.251035 4.76795,7.596757 -37.17587,35.0877257 -45.68217,29.9411203 -82.08154,51.8293293 -110.5749,66.4925763 -11.11669,5.720912 -22.31312,11.807104 -24.88089,13.52498 -5.14631,3.442777 -9.73458,3.999222 -12.27291,1.488299 z M 1009.083,70.434504 C 998.34296,66.393357 981.91783,59.868168 972.58284,55.934039 948.59874,45.826355 892.58361,18.739682 890.5479,16.265257 c -0.93679,-1.138766 -2.6137,-4.623268 -3.72664,-7.7432905 -1.83012,-5.1312683 -1.81215,-5.6728693 0.18829,-5.6728693 1.21636,0 18.69861,7.7433908 38.84939,17.2075778 46.33262,21.760929 72.00987,32.720427 93.79866,40.034853 19.1798,6.438533 22.3614,8.417685 21.7586,13.535213 -0.3642,3.092643 -1.095,3.51479 -6.6077,3.816281 -4.7228,0.258264 -10.846,-1.409867 -25.7255,-7.008518 z M 577.39412,60.413681 c -9.93145,-21.296961 -9.94449,-22.140254 -0.3419,-22.140254 5.77786,0 6.23999,0.286446 8.2423,5.109304 5.07826,12.231963 7.73197,17.261732 8.31027,15.751667 0.34121,-0.890932 -1.33155,-6.018896 -3.71717,-11.395591 -4.83245,-10.891497 -4.51357,-12.035277 3.65296,-13.10143 4.76271,-0.621837 5.5789,-0.277821 7.64651,3.222928 3.85003,6.518671 7.84508,17.564628 6.86787,18.988738 -1.8407,2.68243 -7.80734,5.948987 -10.86637,5.948987 -1.72532,0 -3.13689,0.597366 -3.13689,1.327423 0,1.595919 -7.26628,5.484915 -10.24817,5.484915 -1.27632,0 -3.8283,-3.661624 -6.40941,-9.196687 z m 460.85778,1.400741 c -5.0832,-1.231641 -41.37609,-15.091016 -63.49129,-24.245779 -21.74807,-9.002713 -88.20864,-41.9969593 -92.0638,-45.7048205 -1.55719,-1.4976273 3.79302,-7.5283545 7.53843,-8.4971195 1.41256,-0.36548 5.85304,1.130443 9.86765,3.324027 29.42974,16.0806374 112.81191,53.157351 131.95101,58.673358 7.6898,2.216251 14.9324,6.30925 16.592,9.376823 1.2222,2.258878 1.0484,3.363744 -0.8561,5.445498 -2.3713,2.592062 -4.2416,2.911307 -9.5379,1.628013 z M 610.80006,52.841593 c -2.60334,-3.102773 -7.0451,-13.764791 -7.07661,-16.986214 -0.0207,-2.088474 1.12202,-3.532643 3.50288,-4.42809 6.29166,-2.366195 8.6579,-1.59 11.52411,3.780576 2.89298,5.420724 3.6808,5.408287 1.59245,-0.02507 -1.89118,-4.920445 0.1951,-6.830792 7.74717,-7.093669 3.71806,-0.129383 7.53242,-0.707492 8.47643,-1.284598 0.94401,-0.577106 5.24539,-1.60344 9.55854,-2.280642 4.31304,-0.677201 10.16637,-1.61999 13.00708,-2.095093 4.0728,-0.681215 5.16518,-0.429068 5.16518,1.192424 0,2.70289 -2.51047,4.66128 -7.58319,5.915587 -2.26844,0.560858 -5.76768,2.756048 -7.77611,4.878122 -2.1176,2.237614 -5.09347,3.858506 -7.08383,3.858506 -1.88762,0 -3.77643,0.887623 -4.19726,1.972431 -1.01158,2.607608 -8.91633,6.590683 -11.29097,5.689218 -1.08073,-0.410213 -2.24799,0.464072 -2.76317,2.069517 -0.49048,1.52892 -2.98159,3.643572 -5.53573,4.699192 -5.64736,2.334104 -5.42776,2.329992 -7.26697,0.137805 z m 426.80204,-7.909984 c -4.5464,-1.794806 -5.6752,-3.810263 -4.8733,-8.701924 l 0.6699,-4.087383 -1.4758,3.746775 c -1.7205,4.367512 -6.9729,5.080419 -11.9622,1.623501 -2.5967,-1.799018 -2.949,-2.995556 -2.3068,-7.83426 l 0.758,-5.710882 -2.8535,5.109304 c -1.5695,2.810107 -3.7393,5.109304 -4.8219,5.109304 -3.031,0 -8.7561,-2.89526 -9.4959,-4.802197 -0.6694,-1.725701 3.0353,-14.872776 5.0778,-18.019277 1.5889,-2.4480377 9.9877,-2.0989055 12.6407,0.525454 1.6814,1.663316 2.6497,1.836128 3.8171,0.681213 2.2592,-2.234707 10.0204,-1.901722 12.0497,0.517029 1.3556,1.615876 1.3923,3.737047 0.1687,9.764475 -2.0895,10.291523 -1.124,10.635139 1.7191,0.611809 2.7925,-9.844513 4.7467,-11.68064 11.1648,-10.48962 5.9409,1.102459 6.0469,2.452349 1.476,18.795574 -4.5017,16.095881 -4.4538,16.042223 -11.7524,13.161105 z M 558.51562,35.275966 c -4.22561,-4.179957 -0.20488,-9.259172 9.54146,-12.053533 22.24782,-6.378565 127.87311,-23.59847009 130.2611,-21.2362869 1.03321,1.0220213 -3.681,5.3820101 -11.9969,11.0953999 -4.01659,2.759657 -8.56138,3.792611 -26.85863,6.104956 -23.60397,2.982919 -72.17618,12.273282 -81.88754,15.662702 -7.08531,2.47271 -16.77187,2.689651 -19.05949,0.426762 z M 989.01114,25.231874 c -2.08332,-1.118005 -3.78779,-2.637898 -3.78779,-3.377585 0,-0.739787 -1.41414,-0.993837 -3.14242,-0.56477 -2.08332,0.51723 -4.88947,-0.39256 -8.32538,-2.698978 -2.8506,-1.913566 -6.05594,-3.479195 -7.12294,-3.479195 -3.91938,0 -8.82583,-3.177393 -9.22977,-5.9771697 -0.35376,-2.451346 -1.93198,-3.1271438 -10.62564,-4.5501504 -9.48484,-1.5524894 -24.91261,-8.6545845 -24.91261,-11.4684029 0,-2.3159464 7.35854,-2.7736996 30.82985,-1.9175687 42.94774,1.5665309 105.48436,7.0535517 109.68946,9.62435141 0.7422,0.45374159 1.3494,2.61643489 1.3494,4.80600749 0,5.6446868 -3.7746,6.2092558 -27.5474,4.1203798 -10.9845,-0.9652532 -27.3982,-2.0734286 -36.47479,-2.4627796 -14.39006,-0.6172246 -16.28865,-0.4523372 -14.82828,1.2882074 1.22426,1.4592142 3.67043,1.8325172 9.09421,1.387602 4.64819,-0.3813278 7.77766,-0.035101 8.37826,0.9258372 0.5273,0.843995 -0.03,4.898581 -1.2382,9.010245 -2.4282,8.262325 -4.74613,9.283544 -12.10596,5.333969 z M 972.13841,8.298907 c 0.46815,-0.7493144 -0.15164,-1.3624268 -1.37739,-1.3624268 -1.22575,0 -1.84554,0.6131124 -1.37739,1.3624268 0.46825,0.7494154 1.08804,1.3625278 1.37739,1.3625278 0.28935,0 0.90913,-0.6131124 1.37739,-1.3625278 z m -416.39593,6.60653 C 556.46471,7.7219019 560.50588,6.0682134 591.98557,0.07469539 642.93686,-9.626082 693.62649,-17.851197 703.55221,-18.028621 c 10.79819,-0.19297 18.59436,2.254364 18.59436,5.837055 0,3.6098714 -5.99657,5.5315523 -24.05324,7.7080867 -23.40956,2.8217415 -51.97986,7.676092 -95.70074,16.2603673 -20.79043,4.082068 -39.88903,7.421851 -42.44129,7.421851 -4.37854,0 -4.61602,-0.242216 -4.20882,-4.293302 z m -2.73631,-15.05380107 c -2.7121,-2.68283083 -1.88861,-6.32429563 2.00044,-8.84494743 6.97051,-4.5178555 116.50728,-24.9270885 133.86318,-24.9417315 3.5678,0 13.918,6.642034 13.96434,8.965303 0.0178,0.878296 -9.02113,2.686942 -22.35285,4.472822 -12.31015,1.648975 -43.90511,7.269891 -70.21091,12.490825 -49.92027,9.9077895 -54.54953,10.5429672 -57.2642,7.85772893 z M 1013.4594,-10.172999 c -21.21146,-1.733123 -52.82198,-3.525923 -70.24564,-3.984177 -36.63815,-0.963449 -42.06916,-1.458813 -45.61148,-4.160198 -2.491,-1.899716 -2.41375,-2.146245 1.90186,-6.07526 5.21714,-4.749842 2.14091,-4.567402 45.77565,-2.714926 38.75495,1.645264 87.46811,4.925962 102.39921,6.896286 15.0948,1.99199 17.4316,3.050117 17.4316,7.893636 0,6.6704185 2.481,6.5673137 -51.6512,2.144639 z m -314.728,-22.099229 c -25.44211,-17.345275 -40.96995,-28.633144 -69.55695,-50.563675 -32.99103,-25.309107 -47.11343,-36.803797 -49.33129,-40.152087 -4.49541,-6.78666 -1.72225,-12.70245 5.15431,-10.9951 1.98315,0.49225 8.33703,5.14611 14.11973,10.34177 11.03965,9.91902 27.36284,23.05565 40.77574,32.815698 4.38012,3.187222 18.007,13.132221 30.28189,22.099832 12.27499,8.96771 31.9344,22.676535 43.68746,30.464057 11.75309,7.787521 21.5665,14.995429 21.80754,16.01745 0.42162,1.787784 -7.24692,7.385232 -10.07983,7.35755 -0.7575,-0.01003 -12.8439,-7.83095 -26.8586,-17.385495 z m 177.90116,13.938805 c -0.8791,-1.908642 -1.59837,-4.308236 -1.59837,-5.332363 0,-1.024128 5.10878,-6.053395 11.35281,-11.176339 28.0324,-22.998688 51.42755,-44.552405 89.42925,-82.390355 22.47667,-22.37975 41.80165,-40.69058 42.94435,-40.69058 2.3236,0 6.4064,3.56975 6.4064,5.60145 0,4.81252 -9.5896,15.64635 -41.55211,46.94328 -19.94797,19.532529 -43.47628,41.963841 -52.28502,49.847346 -20.34974,18.212137 -48.58802,40.66782 -51.14028,40.66782 -1.07717,0 -2.67782,-1.561616 -3.55703,-3.470259 z m -325.23534,-0.535983 c -1.1316,-2.091584 -0.78219,-3.376984 1.67327,-6.154795 2.70034,-3.054831 7.12916,-4.405023 34.08203,-10.390315 31.41289,-6.975822 69.4875,-13.500511 78.81853,-13.506929 3.76289,0 6.40575,1.115597 9.98589,4.224989 2.67781,2.325675 4.86872,4.724266 4.86872,5.330157 0,0.605891 -2.32427,1.455403 -5.16508,1.887781 -2.84083,0.432378 -15.70201,2.364289 -28.58038,4.29299 -29.80436,4.463696 -62.24227,10.752988 -73.46735,14.244309 -11.53289,3.587004 -20.29846,3.615388 -22.21563,0.07221 z m 184.16661,-11.52166 c -23.34802,-13.907513 -77.43667,-51.848274 -96.97675,-68.024794 -7.44953,-6.16723 -20.36269,-16.50127 -28.69576,-22.96449 -20.36694,-15.79679 -24.70378,-20.3681 -23.56832,-24.84294 1.2051,-4.74973 6.88496,-6.11547 11.14772,-2.68052 1.74853,1.40896 9.28727,7.66437 16.7528,13.90079 27.13957,22.67173 102.69149,77.848336 128.99673,94.208098 10.34024,6.43081 11.09458,8.634625 4.29932,12.56033 -4.22513,2.441016 -4.24262,2.437807 -11.95574,-2.156474 z m 269.63127,1.754787 c -18.93874,-1.394823 -47.13296,-3.005084 -62.65379,-3.578179 -31.568,-1.165745 -33.21378,-1.80313 -23.80047,-9.216946 5.13723,-4.046061 5.343,-4.083872 20.34076,-3.732032 36.20149,0.849109 86.0713,4.324182 115.559,8.052404 7.7231,0.976487 12.0052,4.325687 10.8959,8.521993 -0.6917,2.615932 -1.6825,2.813617 -13.3272,2.657455 -6.919,-0.09327 -28.0753,-1.309872 -47.0142,-2.704695 z m -135.78091,-7.632664 c -0.78081,-2.031505 -1.05119,-4.943815 -0.60082,-6.471731 0.45027,-1.528017 10.51658,-11.055181 22.36954,-21.171587 50.62422,-43.207219 79.54244,-70.728179 100.90988,-96.033989 10.02521,-11.873 14.10141,-14.35402 19.17221,-11.6695 5.8159,3.0789 3.6391,7.31593 -12.77853,24.87394 -20.45907,21.88038 -60.77831,60.931114 -80.75404,78.213404 -19.14829,16.566573 -43.71397,35.953083 -45.55793,35.953083 -0.73735,0 -1.9795,-1.662114 -2.76031,-3.69362 z m -315.93463,0.499478 c -3.97835,-2.877608 -1.84949,-8.170956 4.38664,-10.907245 5.04002,-2.211438 53.99809,-12.326739 77.31609,-15.974323 11.45188,-1.791495 11.55363,-1.781365 17.90574,1.783974 3.51366,1.972231 6.38846,4.390279 6.38846,5.373485 0,1.009785 -2.39746,2.225178 -5.50946,2.793057 -3.03018,0.552934 -19.45531,3.515894 -36.50013,6.584464 -17.04492,3.068572 -37.27601,7.063982 -44.95809,8.878748 -16.36121,3.865026 -15.77728,3.819992 -19.02925,1.46784 z m 201.76496,-3.827616 c -1.87123,-0.707893 -5.28018,-2.70289 -7.57549,-4.433205 -2.29532,-1.730215 -17.7814,-12.51259 -34.41349,-23.960632 -31.47382,-21.663742 -78.80616,-56.395502 -93.48562,-68.598382 -4.67568,-3.88689 -11.21311,-9.16318 -14.52762,-11.72516 -10.32038,-7.97719 -11.95067,-17.78347 -2.9565,-17.78347 2.9238,0 6.16471,1.96491 12.00351,7.27751 18.83198,17.13485 72.84657,57.71922 115.43275,86.731587 25.41665,17.315388 26.00364,17.831213 28.93446,25.422354 2.65865,6.886156 1.64648,8.983155 -3.412,7.069398 z m 250.63938,-6.67072 c -15.52985,-1.357613 -38.0209,-2.91241 -49.98016,-3.455114 -11.95926,-0.542704 -22.04492,-1.46834 -22.4127,-2.05688 -0.36779,-0.58864 0.73971,-2.397087 2.46098,-4.01888 7.38798,-6.960677 6.60045,-6.854163 39.73452,-5.376594 32.68756,1.457708 69.15026,4.615143 79.66706,6.898693 7.3967,1.606148 10.3078,4.512639 8.2778,8.264731 -1.2106,2.237516 -3.0317,2.517643 -15.4419,2.374521 -7.7384,-0.08927 -26.7758,-1.272964 -42.3056,-2.630477 z m -144.2722,-8.913048 -2.35894,-4.893265 5.55044,-4.984636 c 3.05282,-2.741605 15.55808,-13.72327 27.7895,-24.403943 29.68136,-25.918007 58.57045,-53.769037 80.51806,-77.624867 16.34304,-17.76381 18.40928,-19.5521 22.16031,-19.17839 6.23623,0.62134 7.70793,4.04857 4.41004,10.26976 -3.63506,6.85706 -69.27105,71.78601 -94.34488,93.328384 -22.42199,19.264048 -38.73066,32.361366 -40.31025,32.3727 -0.58048,0 -2.11682,-2.194387 -3.41428,-4.885743 z m -301.45305,1.598024 c -2.78678,-7.183636 14.07903,-61.300905 19.66564,-63.101335 0.88681,-0.28574 3.6247,1.25902 6.08429,3.43295 l 4.47199,3.95248 -4.8785,12.13407 c -4.86476,12.099768 -8.30462,24.354796 -10.0986,35.977354 -0.52051,3.372169 -1.572,6.89749 -2.3367,7.834261 -1.94601,2.383946 -11.96342,2.205619 -12.90812,-0.22978 z m 18.5697,-3.04109 c -1.07925,-1.286503 -1.06167,-4.259593 0.0633,-10.649281 2.08391,-11.837394 11.67021,-38.110764 14.05424,-38.518854 1.04201,-0.17834 3.96936,1.38749 6.50523,3.47959 l 4.61078,3.803726 -4.07537,11.507718 c -2.24147,6.32921 -4.85992,14.879888 -5.81894,19.001373 -0.95893,4.121483 -2.63189,8.502334 -3.71746,9.735278 -2.58635,2.937383 -9.6921,3.940248 -11.6217,1.64045 z m 17.21058,-3.851687 c -0.94757,-2.442821 -0.3095,-5.43637 4.61118,-21.631346 2.01594,-6.634914 4.46172,-12.365855 5.43507,-12.735347 2.14723,-0.81501 9.63282,4.79698 10.8157,8.108569 0.46834,1.311378 1.91934,2.38435 3.22431,2.38435 1.30497,0 5.11223,2.452448 8.46061,5.449909 3.34829,2.997461 6.79141,5.449911 7.65126,5.449911 0.85984,0 2.60472,1.138266 3.87759,2.52958 2.05932,2.250852 2.08421,2.718436 0.22612,4.243844 -1.16193,0.953921 -4.0312,1.432235 -6.46858,1.078389 -2.40921,-0.349734 -5.97888,0.189159 -7.9325,1.19764 -1.9536,1.008481 -5.56645,1.837331 -8.02852,1.841945 -5.03696,0.01003 -5.43061,-1.306362 -2.99097,-9.997354 0.80857,-2.880315 1.14464,-5.558934 0.74683,-5.952497 -0.39772,-0.393463 -1.83754,3.102471 -3.19942,7.768867 -2.52558,8.653281 -3.28655,9.390058 -11.80367,11.429487 -2.77196,0.663763 -4.0391,0.344218 -4.62501,-1.165947 z m 443.00177,-0.817717 c -13.7675,-2.050862 -34.7868,-3.944461 -59.90933,-5.397155 -13.63251,-0.788229 -25.25303,-1.894901 -25.82353,-2.459169 -0.5704,-0.564269 1.39982,-3.379792 4.37825,-6.256697 l 5.4153,-5.230763 24.54029,1.672143 c 43.07022,2.934776 64.75592,5.169081 68.80612,7.089358 5.1472,2.440315 5.4083,7.830248 0.4987,10.287412 -3.8151,1.909143 -6.7454,1.957486 -17.9058,0.294871 z M 721.24781,-84.209864 c -13.52039,-9.019362 -31.40042,-21.695326 -39.73341,-28.168876 -8.33308,-6.47343 -21.03927,-16.08785 -28.236,-21.36535 -21.88805,-16.05075 -44.02278,-35.07699 -44.91956,-38.61124 -3.10656,-12.2438 8.75816,-9.35937 26.65007,6.47886 17.26235,15.28096 80.6924,62.89191 95.68807,71.82391 2.80882,1.673045 6.62645,4.828272 8.48365,7.011526 3.38871,3.983677 8.64556,17.255612 7.34444,18.542615 -0.38211,0.378018 -11.75687,-6.692183 -25.27726,-15.711445 z m 133.09177,11.352859 c -2.24621,-5.844075 -1.65082,-7.052447 6.97329,-14.151934 4.57413,-3.765432 9.68754,-8.332633 11.36327,-10.149201 1.67562,-1.816671 8.31511,-7.70517 14.75435,-13.08558 18.97718,-15.85687 45.59842,-41.12477 62.12836,-58.96992 27.98212,-30.20859 28.95093,-31.11818 32.66897,-30.67287 4.4631,0.53448 6.39676,3.80334 5.15392,8.71255 -1.08448,4.28366 -61.06669,65.02503 -90.9317,92.082504 -18.63777,16.885616 -35.2983,29.729284 -38.56439,29.729284 -1.21153,0 -2.80724,-1.572649 -3.54607,-3.494833 z m 188.48972,-4.283762 c -4.9504,-0.749215 -5.8586,-2.068716 -10.6384,-15.454685 -5.069,-14.195868 -10.2021,-25.621838 -13.1279,-29.221978 -1.285,-1.58108 -0.7057,0.70668 1.3799,5.44991 7.8152,17.773835 12.9883,31.118082 12.9883,33.503936 0,3.463839 -4.2771,5.41611 -9.0884,4.148362 -2.6095,-0.687632 -5.0318,-2.872893 -6.9795,-6.296813 l -2.983,-5.243802 0.2282,4.656364 0.2282,4.656265 -6.8867,-0.288854 c -3.7879,-0.158869 -8.12647,-0.285744 -9.64169,-0.281933 -11.00451,0.02808 -13.67621,-0.262175 -15.39085,-1.669837 -1.47163,-1.208172 -2.3297,-1.212483 -3.53737,-0.01806 -1.93613,1.915261 -8.82475,2.090179 -9.97236,0.253248 -1.29341,-2.070119 3.44303,-8.21338 6.33245,-8.21338 1.42797,0 2.59632,-0.59175 2.59632,-1.314986 0,-1.740745 8.2099,-10.94725 9.76224,-10.94725 0.66691,0 3.05212,3.52541 5.30052,7.834248 5.10517,9.783621 5.38458,8.625597 0.56899,-2.358071 l -3.65125,-8.328217 4.61021,-4.70511 c 2.53556,-2.58785 5.10089,-4.70511 5.70069,-4.70511 0.5997,0 3.593,4.75166 6.6517,10.55922 3.0587,5.807461 5.1692,9.026377 4.69,7.152939 -0.479,-1.873438 -2.6641,-6.733899 -4.8557,-10.801119 -2.1917,-4.06722 -3.9848,-8.15873 -3.9848,-9.09219 0,-2.87459 6.9798,-10.08109 9.7641,-10.08109 1.8368,0 2.6322,-0.95754 2.6322,-3.16877 0,-4.57091 6.2973,-10.12002 9.3592,-8.24708 6.1936,3.7885 28.143,55.504171 25.9531,61.149159 -0.7946,2.048355 -1.2074,2.103718 -8.0084,1.074476 z M 846.15795,-88.347296 c -3.14301,-5.809272 -1.6539,-8.643149 10.62612,-20.222674 6.62851,-6.25038 15.77086,-14.4801 20.31616,-18.28826 22.48975,-18.84241 50.40559,-45.47032 64.7386,-61.75205 17.8368,-20.26179 20.95086,-22.79508 27.27659,-22.18939 3.62421,0.34703 4.47594,1.06906 4.82891,4.094 0.35682,3.05705 -2.66162,7.05345 -18.00868,23.84328 -10.1406,11.0939 -26.75855,27.91492 -36.92877,37.3801 -27.54193,25.63258 -67.21096,59.770385 -69.45472,59.770385 -1.0826,0 -2.61004,-1.185906 -3.39421,-2.635391 z M 717.91542,-109.01991 c -25.90025,-17.61527 -93.69583,-70.62758 -96.16906,-75.199 -0.98807,-1.82619 -1.57526,-4.47402 -1.30498,-5.88388 0.66454,-3.46635 7.93615,-4.07455 13.66699,-1.14308 3.69948,1.89239 4.29329,1.93331 3.6405,0.25064 -0.94609,-2.43901 6.17488,-9.45484 17.41982,-17.16252 9.16684,-6.28318 12.35954,-5.97478 13.98607,1.35098 0.85213,3.83745 0.33429,4.81755 -5.05316,9.56467 l -6.0025,5.28904 7.23615,-4.31004 c 6.9883,-4.1625 7.32911,-4.22689 9.95073,-1.88006 4.67549,4.18556 4.81181,7.37489 0.50845,11.90118 l -3.92165,4.12469 4.40808,-2.20883 c 2.42443,-1.21489 5.04268,-2.20893 5.81836,-2.20893 2.13597,0 5.94343,8.14117 5.17209,11.059 -0.47704,1.80463 0.0504,2.56578 1.77886,2.56578 3.04808,0 5.03923,2.28456 6.29096,7.21783 0.52979,2.08807 2.74895,5.56285 4.93155,7.72183 2.1825,2.15898 3.96818,4.93309 3.96818,6.16482 0,1.23165 1.54954,4.24897 3.44339,6.70513 5.73962,7.4437 3.20465,12.79281 -2.88558,6.089 -1.44315,-1.58851 -5.87789,-4.95294 -9.85496,-7.4767 -3.97716,-2.52367 -7.23122,-5.51582 -7.23122,-6.64916 0,-1.13336 -1.10167,-2.06059 -2.44823,-2.06059 -1.34657,0 -3.88757,-0.99725 -5.64677,-2.21616 -2.47195,-1.71265 -3.02526,-3.07317 -2.43569,-5.9892 0.74278,-3.67376 0.65703,-3.73353 -3.25909,-2.27141 -3.5101,1.31066 -4.46616,1.08892 -7.51235,-1.74184 -4.01007,-3.72652 -4.36116,-5.80758 -1.39113,-8.24589 3.25148,-2.66929 1.36949,-3.13285 -3.20949,-0.79053 -3.84499,1.96681 -4.36076,1.92128 -7.70351,-0.67971 -4.5696,-3.55562 -4.52089,-6.21778 0.20518,-11.21215 l 3.78769,-4.00283 -5.8878,3.79101 c -5.09218,3.27859 -6.36051,3.57796 -9.38498,2.21474 -5.85935,-2.64081 -2.6059,0.52686 14.86045,14.46897 9.14274,7.29788 21.03324,16.83849 26.42346,21.20139 5.39021,4.36288 14.44899,11.02178 20.13063,14.79754 13.3621,8.87985 17.24256,12.56463 21.97762,20.86909 8.58262,15.052288 6.8573,16.295965 -8.30306,5.98518 z m 121.35568,4.32299 c -2.54169,-4.69788 -1.57575,-8.68518 8.18382,-33.78086 13.17839,-33.88688 24.3273,-59.37742 36.36726,-83.1488 12.4046,-24.49119 14.24154,-26.95297 19.19463,-25.72324 7.06031,1.75289 6.23089,5.53938 -7.09855,32.40811 -14.90656,30.04762 -30.95186,67.10045 -38.07381,87.9223 -6.99096,20.43902 -14.627,29.616444 -18.57335,22.32249 z m 22.71164,-13.66058 c -1.69183,-2.7079 24.87972,-67.4834 42.67552,-104.03353 8.20713,-16.85623 12.00203,-20.82597 16.96894,-17.75067 4.19964,2.60019 3.48165,8.95778 -2.223,19.68508 -5.54857,10.43374 -11.35449,24.61606 -11.25817,27.50089 0.0306,0.90858 0.94134,0.0391 2.02454,-1.93322 1.0831,-1.97193 2.9073,-3.94133 4.05373,-4.37652 1.14643,-0.43509 1.74004,-1.67876 1.3192,-2.76347 -0.9524,-2.45516 2.76396,-9.79706 5.4813,-10.82852 2.73344,-1.03756 23.43377,11.52979 24.02926,14.58833 0.56842,2.91963 -4.84383,9.00913 -8.00719,9.00913 -1.23385,0 -4.68971,-1.74256 -7.6798,-3.87236 -5.01414,-3.57155 -10.25726,-6.1958 -10.25726,-5.13386 0,0.24502 3.40904,2.68453 7.57548,5.42102 4.16655,2.73649 7.55583,5.73565 7.53173,6.66471 -0.0623,2.41422 -2.89644,5.74758 -6.50098,7.64689 -2.72998,1.43846 -4.09107,0.96947 -11.36328,-3.91557 -4.54401,-3.05243 -8.26185,-6.26281 -8.26185,-7.13409 0,-0.97408 -0.44583,-1.08571 -1.15769,-0.28985 -2.02029,2.25877 -21.82848,44.60495 -24.18633,51.70595 -1.84663,5.56134 -3.89004,8.11939 -11.12678,13.92937 -4.87554,3.91437 -9.21239,6.56049 -9.63737,5.88029 z m -33.10997,-7.38364 c -1.12547,-2.66466 -2.04637,-6.73069 -2.04637,-9.03561 0,-7.10238 8.59794,-28.02715 39.15138,-95.28225 4.23659,-9.32568 9.04525,-18.36911 10.6858,-20.09651 3.46901,-3.6527 8.26749,-4.07605 10.88189,-0.96003 2.32357,2.76948 2.31113,2.80167 -19.81668,51.63694 -9.50727,20.98211 -20.93071,47.00013 -25.38541,57.8177 -4.4547,10.81769 -8.84747,19.91508 -9.76174,20.21658 -0.91427,0.30149 -2.58328,-1.63214 -3.70887,-4.29682 z m -12.45852,-24.9691 c -1.41256,-3.59233 -2.38591,-7.45124 -2.16294,-8.57536 0.98549,-4.96698 28.71571,-67.40424 40.40262,-90.9701 3.14202,-6.33573 7.25679,-8.33805 11.98771,-5.83355 4.65277,2.46318 3.61491,8.69129 -3.62095,21.72934 -9.48888,17.09783 -11.77462,22.04195 -26.51839,57.36216 -8.24872,19.76051 -14.16063,32.1715 -15.4426,32.41863 -1.3677,0.26378 -2.95421,-1.8301 -4.64545,-6.13112 z m 74.30693,4.4661 c -0.45195,-1.16525 0.48208,-4.30472 2.07581,-6.97662 1.59373,-2.6719 2.89762,-5.96373 2.89762,-7.31503 0,-1.3513 1.54958,-4.71564 3.44342,-7.47621 1.89385,-2.76065 3.44343,-5.94216 3.44343,-7.0702 0,-2.59236 3.87146,-10.09463 5.20044,-10.07759 1.99866,0.0261 15.46008,8.25181 15.46008,9.44754 0,2.14554 -7.05014,9.61432 -9.07537,9.61432 -1.06898,0 -1.95164,0.76636 -1.96143,1.70313 -0.0168,1.6207 -15.28254,17.15833 -18.93065,19.26796 -1.01889,0.58924 -2.06969,0.12938 -2.55335,-1.1173 z m -85.8587,-25.16028 c -1.55579,-3.01662 -2.82866,-6.40283 -2.82866,-7.52504 0,-2.64352 15.77046,-38.65628 27.00432,-61.66569 8.90438,-18.23831 11.12373,-20.69959 17.00087,-18.85443 6.35971,1.9966 5.05473,6.53892 -11.82591,41.16299 -5.04337,10.34437 -12.41022,26.13996 -16.37088,35.10114 -3.96058,8.96119 -7.86484,16.51201 -8.67608,16.7795 -0.81124,0.26749 -2.74786,-1.98185 -4.30366,-4.99847 z m -8.92847,-14.5467 c -1.19039,-1.17758 -2.16442,-3.40246 -2.16442,-4.94422 0,-1.54166 -2.16937,-5.17831 -4.82071,-8.08138 -2.65144,-2.90309 -4.82081,-5.90486 -4.82081,-6.67061 0,-2.30773 6.57448,-4.04978 15.28384,-4.04978 6.24274,0 8.41992,0.52094 9.05868,2.1675 1.01,2.6036 -2.99642,11.45727 -5.18455,11.45727 -0.85086,0 -1.17517,0.95843 -0.72065,2.12999 0.72805,1.87695 -2.45921,10.13226 -3.91197,10.13226 -0.30525,0 -1.52893,-0.96345 -2.71941,-2.14103 z m 139.08743,-22.43452 c -6.02077,-3.71547 -11.56193,-7.36367 -12.31361,-8.10716 -1.73598,-1.71728 2.49566,-10.91647 5.02164,-10.91647 1.56598,0 16.8671,8.21559 25.47017,13.67573 1.70448,1.0818 3.09905,2.93878 3.09905,4.1266 0,2.66257 -5.6601,8.10425 -8.35294,8.03064 -1.08755,-0.0301 -6.90343,-3.09395 -12.92431,-6.80934 z m -155.0848,-5.46174 c -7.75548,-8.21248 -4.81578,-9.83477 20.24196,-11.17032 14.40868,-0.76797 16.38669,-0.11394 15.09159,4.99046 -1.78606,7.039 -5.34892,8.9676 -16.56717,8.9676 -5.61961,0 -11.19742,0.372 -12.39511,0.82655 -1.39399,0.52916 -3.68664,-0.77139 -6.37127,-3.61429 z m -7.66835,-11.82044 c -0.84128,-0.58312 -2.52934,-2.99125 -3.75144,-5.35122 -1.7342,-3.34901 -1.85196,-4.59459 -0.53651,-5.67377 4.78554,-3.92621 51.26021,-5.57769 54.92569,-1.95187 1.12015,1.10807 0.81678,2.72075 -1.13506,6.03324 l -2.66388,4.52086 -16.45645,0.82894 c -9.05117,0.45585 -19.2457,1.23957 -22.65464,1.74145 -3.40904,0.50198 -6.88645,0.43559 -7.72771,-0.14763 z m -12.83906,-17.96089 c -3.64613,-5.06528 -3.5913,-6.72389 0.25062,-7.58693 1.70447,-0.38293 5.88821,-1.34799 9.29715,-2.14474 8.77693,-2.05117 57.99363,-3.20057 60.60408,-1.41538 1.80899,1.23716 1.72305,2.05286 -0.69023,6.55546 l -2.75626,5.14251 -18.16515,0.25666 c -9.99083,0.14112 -22.89608,0.90749 -28.67838,1.70304 -15.35773,2.11304 -16.65115,1.94946 -19.86183,-2.51062 z"
         id="path4486"
         inkscape:connector-curvature="0"
         sodipodi:nodetypes="ccssssssssccssccssscssssccscsssssssssssssscccsccssccssssssssscccsssccscsscsssssssssssssscssscscsscsssccsssscssscccscsccssscssssscccssccssccccssssssscccsscccscccsssssscsssscscscscsscscccscsscccssssccsccccssccsssscssscccccscssssssssssccccccssssssssssssssscsssscscccccscssccsscccsssssssscssssscsssccscsssccsccssccsssscscssssscsscssscssccssssccssccssccssscssssscscscssssssccsscsscccsscsscsccssccsccsccccccscccccsssscssscscsssscscssscssscsccscscsccssssssccsccsscsscsssssssscssssccscscssssssccsscssssscccsscsssccsssssccsscsssssssssscsssssccssssssscssccsscssscsssssscsccccsscccscccscccccsccssscsssccccsccscscscccscscssscssscsscsssscsssscscccscsccsssssccssccssssscccsssscssscscsscscscsccccscsscssscsscscscssccccssssssssssssssssccccsssssccssscssscssscssscscsssscscsssscsscccsssssssscscsssscscccsssccsscscsccccscsccccccscssc" />
      <path
         style="fill:#3f4040"
         d="m 883.65914,635.47039 c -15.67195,-3.15053 -28.08789,-16.40648 -28.08789,-29.9882 0,-2.59769 -0.44414,-4.68994 -0.98698,-4.64943 -0.54284,0.0405 -4.13246,4.2611 -7.97692,9.37911 -11.86619,15.79708 -25.04104,23.97672 -38.61902,23.97672 -16.87308,0 -24.5046,-11.59132 -21.23084,-32.24699 l 1.26285,-7.96797 -14.78533,15.83903 c -17.34803,18.58435 -26.2194,24.37593 -37.33828,24.37593 -10.95836,0 -18.95364,-5.13999 -21.20392,-13.63157 l -1.37372,-5.1838 -6.8456,6.09804 c -9.54438,8.50213 -16.9656,11.88445 -27.24324,12.41645 -10.36088,0.53631 -16.40297,-2.15312 -20.35288,-9.05937 -3.40179,-5.94787 -3.49454,-22.19021 -0.19731,-34.5554 4.98805,-18.70619 21.2648,-52.63345 37.22239,-77.58645 3.93403,-6.15163 6.80765,-11.53547 6.38582,-11.96409 -0.42181,-0.4286 -8.00314,-0.79136 -16.84739,-0.80612 -14.52192,-0.0242 -16.84574,0.31422 -23.97633,3.49208 -7.79235,3.47278 -7.90897,3.48335 -8.89592,0.80679 -0.90072,-2.44273 -1.72483,-2.62012 -8.29619,-1.78585 -23.09405,2.93191 -52.04235,17.28266 -64.9162,32.18139 -7.62035,8.81894 -3.07367,10.45796 16.35549,5.89596 33.94408,-7.97014 55.18669,3.87992 52.89952,29.50965 -2.24771,25.18748 -25.90377,47.83626 -63.77016,61.05481 -8.27446,2.88849 -12.74775,3.59203 -23.39083,3.6788 -11.93633,0.0974 -13.87362,-0.24888 -20.83798,-3.72366 -8.80551,-4.3934 -12.70717,-9.69693 -12.71452,-17.28291 -0.009,-9.52124 9.06344,-22.13854 20.0113,-27.82951 9.98341,-5.18963 12.03203,-1.20865 4.24907,8.25703 -12.8682,15.65037 -11.02329,22.64609 5.96601,22.62245 23.00687,-0.0321 60.49958,-21.50588 69.66019,-39.8977 5.55314,-11.14907 4.13961,-20.75844 -3.65611,-24.85473 -5.77746,-3.03577 -17.76943,-2.60386 -29.8756,1.07602 -14.71938,4.47421 -20.52874,5.25319 -26.6617,3.57515 -7.17191,-1.96231 -10.74659,-6.79445 -10.74659,-14.52697 0,-8.06419 3.87522,-15.82866 12.1772,-24.39849 15.11887,-15.60669 41.31449,-28.49632 63.73304,-31.36004 8.96602,-1.1453 21.01438,1.44283 24.84731,5.33753 l 2.98874,3.03688 7.67484,-2.731 c 5.86377,-2.08656 12.02238,-2.86518 26.09854,-3.29961 18.10443,-0.55875 18.4921,-0.63449 22.37161,-4.37097 9.57105,-9.21815 23.4918,-8.61656 24.58856,1.06263 l 0.41502,3.66264 21.71363,0.39199 c 33.17308,0.59886 48.79233,-2.16684 56.92201,-10.07917 3.07858,-2.99628 4.16946,-3.33461 7.23787,-2.24478 2.94142,1.04473 3.68888,2.21074 4.0214,6.27329 0.40247,4.91718 0.49045,4.99008 6.0215,4.99008 4.37428,0 6.31717,-0.7758 8.80342,-3.51528 8.7264,-9.61521 24.03431,-9.29793 25.14693,0.52123 l 0.41502,3.66264 21.71363,0.39199 c 33.0637,0.59689 47.86825,-2.10215 58.19399,-10.60941 3.04769,-2.51094 4.07648,-2.72083 6.90889,-1.40952 4.37132,2.02381 4.40309,7.39265 0.082,13.85424 -7.48,11.18517 -19.88757,15.03026 -48.7351,15.10296 -11.5806,0.0292 -26.97754,-0.36855 -34.21542,-0.88386 l -13.15978,-0.9369 -14.13501,15.82307 c -11.5862,12.9699 -15.79205,18.9125 -23.32459,32.95626 -10.30517,19.21306 -20.78662,44.65881 -21.95091,53.2901 -2.05435,15.22955 9.04177,15.48767 27.96844,0.6506 9.25466,-7.25495 26.77894,-27.94235 31.20367,-36.83589 1.8772,-3.7731 7.08289,-11.80884 11.56821,-17.8572 23.19939,-31.28394 56.26515,-44.68097 73.63144,-29.83277 5.51725,4.71725 7.81517,9.86216 7.81517,17.49775 0,16.46807 -19.84925,39.74914 -27.37233,32.10484 -2.56566,-2.60699 -1.83138,-6.25572 2.31657,-11.51129 8.12446,-10.29394 9.76827,-23.17971 3.27688,-25.6875 -7.60922,-2.93963 -26.55207,8.20468 -38.57707,22.69538 -11.59191,13.96877 -19.91871,32.24857 -19.91871,43.72746 0,15.64804 15.87544,20.84042 38.2969,12.52578 14.50639,-5.37947 27.98865,-14.18079 41.22504,-26.91199 9.65929,-9.29062 12.1409,-12.71192 20.03552,-27.62203 24.19692,-45.69946 54.1727,-81.8881 67.8293,-81.8881 4.9868,0 8.9542,4.30421 8.9542,9.71436 0,9.07916 -7.0361,18.69525 -35.4559,48.45687 -18.38681,19.25488 -19.54662,20.80387 -28.8426,38.51981 -5.327,10.152 -9.41432,18.7337 -9.08291,19.07046 0.33141,0.33674 10.44201,-11.35763 22.46801,-25.9875 24.7196,-30.07205 35.8836,-41.14626 47.3477,-46.96726 10.063,-5.10956 17.6004,-5.32892 25.3122,-0.7367 6.8663,4.08872 9.1458,9.20258 8.1003,18.1725 -1.0661,9.14603 -7.7085,21.3314 -23.2873,42.72027 -19.3914,26.6233 -23.3064,35.8376 -16.555,38.96333 2.6033,1.20523 4.5283,0.83152 10.8568,-2.10768 6.2197,-2.88863 11.6637,-7.65495 28.4337,-24.89428 19.3597,-19.90157 23.404,-23.13145 25.2217,-20.14298 1.6153,2.6558 -20.4904,31.02414 -35.3561,45.37264 -20.5072,19.79373 -37.9721,22.75995 -47.9107,8.13719 -2.6713,-3.93029 -3.0086,-5.71857 -2.4959,-13.23592 0.7836,-11.49142 4.7308,-19.1754 24.041,-46.80128 15.7876,-22.58605 19.7504,-29.6428 18.5025,-32.9473 -2.7025,-7.15588 -15.1335,-0.32139 -35.2424,19.37598 -25.58,25.05654 -47.11803,52.42105 -56.99009,72.40721 -4.19628,8.49547 -5.12743,9.31201 -10.65044,9.33978 -8.04278,0.0404 -11.02616,-7.53554 -7.88055,-20.01183 1.14601,-4.54545 2.08368,-8.57626 2.08368,-8.95736 0,-0.38109 -3.40509,2.29455 -7.56688,5.94589 -15.19174,13.32845 -31.45892,21.82618 -46.54237,24.31304 -9.34267,1.54036 -8.90284,1.54003 -16.50118,0.012 z M 753.83951,613.46491 c 3.99507,-2.69532 14.49369,-12.0497 23.33026,-20.78749 15.12097,-14.95198 16.35957,-16.57842 21.04697,-27.63753 6.10774,-14.41017 18.38124,-37.3918 27.9597,-52.3534 3.9383,-6.15163 6.96641,-11.38206 6.72914,-11.62317 -1.57082,-1.59613 -13.66373,-0.52221 -21.22921,1.88527 -4.9618,1.57894 -10.62059,2.87079 -12.57512,2.87079 -1.9545,0 -5.5603,1.50433 -8.0129,3.34296 -2.4526,1.83862 -5.79683,3.34294 -7.43163,3.34294 -3.33594,0 -9.67608,-2.6231 -9.67608,-4.00328 0,-0.49481 -9.11059,-1.63911 -20.24576,-2.54287 l -20.24575,-1.64323 -7.06079,7.74503 c -3.88342,4.25976 -10.41812,11.36809 -14.52154,15.7963 -8.87621,9.57875 -23.18115,35.43914 -32.02424,57.89321 -6.72093,17.06555 -8.33401,25.12718 -5.93801,29.67627 1.38984,2.63879 2.35774,2.94672 7.43446,2.36528 11.50665,-1.31785 28.28296,-15.77352 46.27097,-39.87029 5.17227,-6.92881 13.35325,-17.60202 18.17994,-23.71824 4.82668,-6.11621 10.12824,-14.54044 11.78121,-18.7205 1.77114,-4.47888 4.26337,-8.29173 6.06852,-9.28418 5.60987,-3.08426 14.24892,1.17584 14.24892,7.02646 0,4.79365 -7.30984,18.05372 -15.85203,28.75567 -16.28249,20.39923 -28.8877,41.87871 -28.89017,49.22925 -5.6e-4,1.70311 0.64953,4.33174 1.44466,5.8414 2.11451,4.01465 10.1715,2.51023 19.20848,-3.58665 z M 1048.1407,416.99956 c -21.8046,-4.19877 -41.2384,-18.36953 -50.05732,-36.50078 -4.34894,-8.94135 -4.94281,-11.40714 -5.42061,-22.50699 -0.64085,-14.8882 2.14472,-25.88804 9.92683,-39.19934 9.7265,-16.63753 29.6984,-31.37213 47.6217,-35.13377 l 7.5202,-1.5783 -0.079,-13.49107 c -0.071,-12.12512 0.2902,-14.2548 3.567,-21.03474 4.4428,-9.19271 13.1189,-17.57587 23.1011,-22.32116 6.5341,-3.10613 9.1148,-3.54781 20.6282,-3.53052 11.9044,0.018 13.8902,0.39294 20.8164,3.9317 12.9656,6.62437 19.3446,16.24207 19.292,29.08644 -0.074,18.12292 -15.838,32.15944 -33.8058,30.10157 -13.8922,-1.59106 -13.9545,-15.68395 -0.069,-15.68395 9.599,0 14.3809,-9.24454 9.6205,-18.59857 -2.4827,-4.87824 -8.7531,-7.47642 -18.0434,-7.47642 -6.1427,0 -8.457,0.70702 -13.1598,4.02043 -10.1042,7.11913 -15.0317,22.46815 -11.802,36.76354 1.7674,7.82305 -0.4269,11.59357 -7.3831,12.6867 -17.4306,2.73915 -26.1008,6.70832 -36.2635,16.60113 -24.093,23.45331 -24.0684,58.71346 0.052,74.94786 12.3769,8.3302 32.4739,11.76034 45.5893,7.78114 7.7126,-2.34005 18.5583,-13.38753 20.5229,-20.90494 2.0025,-7.66201 0.6754,-14.91959 -3.9021,-21.34045 -5.3436,-7.49545 -11.7156,-10.99933 -22.5068,-12.37615 -11.0065,-1.40429 -11.7271,-1.7697 -11.7271,-5.94628 0,-4.60616 6.5857,-11.59162 15.4164,-16.35234 25.6281,-13.81623 60.7109,-12.16675 78.4846,3.69013 8.5244,7.6051 12.8358,19.72111 8.7831,24.6829 -2.6124,3.1985 -5.8923,2.45652 -11.9777,-2.70963 -7.5263,-6.38934 -11.4125,-8.29039 -23.2207,-11.35908 -10.5827,-2.75021 -36.6171,-3.53611 -41.8241,-1.26254 -2.632,1.14922 -2.632,1.14922 0,1.25626 4.5385,0.1846 15.6112,6.24595 20.0012,10.9489 12.3228,13.20116 13.4674,35.17819 2.6816,51.48469 -11.6877,17.66983 -36.7934,26.25135 -62.3834,21.32363 z M 342.38629,376.2009 c -2.38018,-4.51905 -1.52472,-15.63447 1.91864,-24.93 9.27951,-25.0506 39.92156,-70.49461 61.07923,-90.58419 8.56491,-8.13253 17.14961,-12.16965 23.3605,-10.9857 13.18415,2.51321 12.96113,12.7869 -1.27824,58.88444 -9.8696,31.95119 -12.63133,52.85063 -7.1243,53.91344 4.82802,0.93176 24.42407,-23.10264 42.07844,-51.60891 11.91251,-19.23493 17.72612,-30.60152 23.34425,-45.64189 4.98015,-13.33242 7.6033,-16.52091 11.53154,-14.01679 3.78401,2.41217 3.69028,13.88117 -0.21669,26.5179 -3.92632,12.69933 -18.32473,40.02438 -30.62266,58.11515 -20.73892,30.50778 -34.13647,42.92796 -46.2953,42.91801 -15.33586,-0.012 -21.69439,-12.2354 -18.5011,-35.56422 0.7585,-5.54128 5.19126,-23.22311 9.85058,-39.29296 4.65932,-16.06986 8.47149,-29.56828 8.47149,-29.99647 0,-2.69896 -4.60189,0.35747 -11.41099,7.57886 -18.17779,19.27841 -49.08801,67.71181 -55.72678,87.31863 -3.41308,10.08008 -7.51155,12.97005 -10.45861,7.3747 z m 166.75119,0.67863 c -13.57609,-4.92288 -18.76382,-13.33858 -18.7209,-30.36966 0.0279,-11.05445 0.29394,-12.08958 6.18686,-24.06923 9.9712,-20.27034 22.62218,-33.76505 39.18526,-41.79863 15.48609,-7.5112 31.91436,-4.96516 39.09397,6.05875 2.90519,4.46076 3.25861,6.21229 2.78345,13.79467 -0.46715,7.45465 -1.28153,9.77343 -5.7481,16.36652 -10.17657,15.02161 -29.28459,24.34678 -46.132,22.51351 -4.7104,-0.51257 -10.33608,-1.44825 -12.50149,-2.07929 -3.48479,-1.01553 -4.0813,-0.76197 -5.19223,2.20705 -1.91353,5.11408 -1.49812,14.26732 0.79874,17.59938 10.69101,15.50946 46.47222,4.5614 72.91864,-22.3111 4.98682,-5.06716 10.56178,-12.21043 12.38877,-15.87393 7.69234,-15.42468 22.67904,-30.61127 37.63173,-38.13367 7.22336,-3.63393 9.951,-4.28281 17.8186,-4.2389 15.65473,0.0874 24.34548,8.01986 24.28866,22.16943 -0.0378,9.40227 -3.50709,16.93427 -11.5772,25.13441 -11.87432,12.06562 -28.39711,17.66058 -44.33464,15.01266 -4.33629,-0.72046 -8.91227,-1.72072 -10.16884,-2.22283 -2.87629,-1.14931 -4.95321,3.82018 -4.95321,11.85167 0,31.22181 59.4642,12.72993 85.59483,-26.61786 19.35391,-29.14334 40.63915,-46.00444 58.1138,-46.03486 9.10214,-0.0157 14.00638,2.04525 15.06507,6.33139 1.13567,4.59777 -1.33155,6.34298 -9.14646,6.46985 -9.45474,0.15351 -16.83548,4.34131 -27.89931,15.82989 -16.74139,17.38414 -29.17887,37.74663 -31.5092,51.58656 -1.10472,6.56092 0.44743,8.51794 5.27619,6.65246 7.18817,-2.77696 25.57232,-16.33571 37.09961,-27.36185 11.35783,-10.86403 11.71557,-11.40382 24.48484,-36.94471 15.25552,-30.51385 22.21593,-41.6137 31.29744,-49.91031 5.46151,-4.98947 7.585,-6.09582 11.70011,-6.09582 6.38077,0 9.16352,2.81102 9.16352,9.2566 0,9.02622 -7.36388,20.60009 -25.33045,39.81209 -9.06089,9.68898 -11.38177,13.31017 -20.02557,31.24511 -13.4386,27.88365 -17.78176,41.36951 -13.32316,41.36951 3.04688,0 13.89359,-9.45705 26.1325,-22.78443 8.44869,-9.20006 13.12494,-15.73028 17.63068,-24.62057 6.86193,-13.53933 25.41691,-45.69887 30.51199,-52.88345 5.16476,-7.28283 14.96102,-17.39606 18.88307,-19.49402 1.95448,-1.04545 6.21427,-1.90084 9.46622,-1.90084 6.36649,0 10.02585,3.16901 9.99411,8.6549 -0.0403,6.95004 -15.54023,28.73621 -38.11872,53.57806 -9.35592,10.29379 -13.54841,16.22463 -18.46449,26.12047 -7.17181,14.4365 -11.10526,26.66231 -9.86042,30.64767 1.24044,3.97127 8.13171,3.47384 15.20755,-1.09774 7.97123,-5.15006 23.49565,-22.33553 31.41505,-34.77631 17.86758,-28.06861 27.11261,-37.80032 43.07545,-45.34305 14.57803,-6.8884 31.09107,-4.2071 38.03458,6.17583 4.06605,6.08013 4.32994,16.91886 0.61443,25.23611 -5.73791,12.84447 -21.31411,24.14588 -37.45879,27.17846 -7.19926,1.35231 -20.0136,0.30761 -26.05563,-2.12419 -2.87636,-1.15767 -4.95321,3.8089 -4.95321,11.84505 0,10.40991 6.57026,15.58805 19.77886,15.58805 15.81494,0 37.6597,-11.71863 55.63534,-29.84561 7.15576,-7.216 12.41195,-11.51422 13.54174,-11.07369 2.84275,1.10843 2.34531,2.49644 -4.76694,13.30147 -16.68102,25.34201 -43.60192,42.29108 -67.08129,42.23358 -20.38338,-0.0498 -31.53256,-8.70499 -34.02555,-26.41389 l -0.86705,-6.15914 -4.83359,6.69075 c -5.99049,8.29216 -17.60316,19.56518 -23.16541,22.48788 -14.90668,7.83274 -29.65967,0.12797 -29.81527,-15.57111 l -0.0695,-7.0173 -10.52783,10.80199 c -11.86036,12.16924 -19.52008,16.24067 -27.64153,14.69253 -5.69174,-1.08498 -9.85152,-7.06829 -9.8589,-14.18082 -0.004,-4.27754 2.28999,-15.07882 4.67542,-22.0101 0.50621,-1.4709 -1.06629,-0.26744 -3.49447,2.67436 -21.49021,26.03601 -37.79818,36.42586 -51.35299,32.71712 -4.39641,-1.2029 -5.72958,-2.40782 -7.80597,-7.05505 -1.37726,-3.08241 -2.51708,-8.53262 -2.53298,-12.11158 l -0.0289,-6.50719 -4.98634,4.57742 c -7.44483,6.83432 -16.50305,12.8636 -26.35045,17.53925 -8.15228,3.8708 -9.86683,4.18194 -23.27629,4.22406 -13.4968,0.0424 -14.89611,-0.20563 -20.69167,-3.66734 -7.60901,-4.54487 -13.02854,-13.31221 -13.89539,-22.47891 l -0.61655,-6.52003 -9.53511,9.00138 c -17.40017,16.42621 -34.31675,24.329 -51.98563,24.28572 -5.42841,-0.0133 -12.09174,-0.82986 -14.80741,-1.81461 z m 29.74619,-50.58049 c 5.7638,-1.70991 16.45707,-10.91432 20.60778,-17.7385 5.62253,-9.24403 2.97386,-16.68983 -5.93701,-16.68983 -4.8825,0 -17.63652,7.4537 -24.73974,14.45841 -7.05321,6.95538 -14.82842,18.75516 -13.33153,20.23211 2.87544,2.8371 13.3488,2.71975 23.4005,-0.26219 z m 96.98106,-0.41306 c 11.52534,-3.77044 25.22122,-21.55439 22.40206,-29.08882 -3.50302,-9.36205 -19.00384,-4.60504 -33.72009,10.34831 -6.99403,7.10672 -14.46224,17.87397 -13.25107,19.10465 1.51041,1.53475 9.64043,2.83244 13.97955,2.23137 2.53325,-0.35091 7.29855,-1.51889 10.58955,-2.59551 z m 255.74821,0.39865 c 5.74979,-1.70616 18.31484,-12.69205 21.35991,-18.67543 4.592,-9.02301 1.71763,-15.73849 -6.73641,-15.73849 -4.88251,0 -17.63652,7.4537 -24.73975,14.45841 -7.05321,6.95538 -14.82842,18.75516 -13.33153,20.23211 2.8815,2.84307 13.35059,2.71958 23.44778,-0.2766 z"
         id="path4221"
         inkscape:connector-curvature="0" />
    </g>
  </g>
</svg>
