<?xml version="1.0" encoding="UTF-8" standalone="no"?>
<!-- Created with Inkscape (http://www.inkscape.org/) -->

<svg
   xmlns:dc="http://purl.org/dc/elements/1.1/"
   xmlns:cc="http://creativecommons.org/ns#"
   xmlns:rdf="http://www.w3.org/1999/02/22-rdf-syntax-ns#"
   xmlns:svg="http://www.w3.org/2000/svg"
   xmlns="http://www.w3.org/2000/svg"
   xmlns:sodipodi="http://sodipodi.sourceforge.net/DTD/sodipodi-0.dtd"
   xmlns:inkscape="http://www.inkscape.org/namespaces/inkscape"
   width="1024"
   height="1024"
   viewBox="0 0 1024 1024"
   id="svg2"
   version="1.1"
   inkscape:version="0.91 r13725"
   sodipodi:docname="yarn.svg"
   inkscape:export-filename="/home/niels/workspace/needleandstitch/WebContent/images/logo/logo16.png"
   inkscape:export-xdpi="1.4400001"
   inkscape:export-ydpi="1.4400001">
  <defs
     id="defs4" />
  <sodipodi:namedview
     id="base"
     pagecolor="#ffffff"
     bordercolor="#666666"
     borderopacity="1.0"
     inkscape:pageopacity="0.0"
     inkscape:pageshadow="2"
     inkscape:zoom="0.8046875"
     inkscape:cx="129.81534"
     inkscape:cy="49.505273"
     inkscape:document-units="px"
     inkscape:current-layer="g4219"
     showgrid="false"
     units="px"
     inkscape:window-width="3840"
     inkscape:window-height="2034"
     inkscape:window-x="0"
     inkscape:window-y="60"
     inkscape:window-maximized="1" />
  <metadata
     id="metadata7">
    <rdf:RDF>
      <cc:Work
         rdf:about="">
        <dc:format>image/svg+xml</dc:format>
        <dc:type
           rdf:resource="http://purl.org/dc/dcmitype/StillImage" />
        <dc:title></dc:title>
      </cc:Work>
    </rdf:RDF>
  </metadata>
  <g
     inkscape:label="Layer 1"
     inkscape:groupmode="layer"
     id="layer1"
     transform="translate(0,-28.362161)">
    <g
       id="g4219"
       transform="matrix(1.112774,0,0,1.1421233,-379.49929,325.26994)">
      <path
         style="fill:#ad2a2f"
         d="m 476.09016,489.33508 c 13.65057,-8.32291 28.96398,-14.1515 41.28952,-21.47944 68.31214,-40.61375 120.36097,-70.63216 216.75949,-137.65706 l 38.17921,-26.54561 2.96789,7.32678 c 6.27774,15.49779 5.99822,15.81674 -45.45768,51.86346 -67.95302,47.60355 -121.38472,61.80809 -198.90144,124.52069 -4.20371,3.40089 -31.55069,22.29659 -38.03231,21.44508 -15.45032,-3.12425 -23.17552,-13.46468 -16.80468,-19.4739 z m 293.08153,143.49923 c -4.85049,-3.58701 -5.4744,-6.32864 -5.47412,-24.05574 4.4e-4,-29.31971 12.44929,-129.23781 25.13419,-201.73432 l 5.40505,-30.89084 8.1304,18.87623 c 9.21408,21.39219 9.9969,31.89702 4.45117,59.7315 -5.60659,28.14007 -15.58459,104.97306 -17.23448,132.70975 -1.9783,33.25763 -3.24382,40.73776 -7.68552,45.42726 -4.70609,4.96874 -5.92974,4.96259 -12.72669,-0.0638 z m -37.52771,-5.09453 c -3.77486,-4.80219 -2.46582,-31.51689 4.82891,-98.54811 6.41527,-58.94981 12.9842,-105.63134 20.8006,-147.81739 5.3544,-28.89848 7.03078,-33.97975 13.05716,-39.57731 8.73628,-8.11461 12.4816,-8.19936 15.86509,-0.35901 2.10802,4.88473 1.03899,15.67862 -4.95808,50.06198 -10.80051,61.92327 -22.03688,148.02679 -24.96741,191.32372 -1.66912,24.66006 -3.72776,38.86576 -6.21254,42.86963 -4.26533,6.87297 -13.7879,7.93133 -18.41373,2.04649 z m 138.36128,-2.62518 c -2.82413,-3.79064 -6.11585,-14.51021 -7.78621,-25.35606 -12.09192,-78.51428 -78.55408,-295.38165 -126.902,-414.0838 -61.59561,-151.227456 -110.62993,-247.337248 -178.27748,-349.4331 -8.95148,-13.50986 -12.3976,-28.4261 -7.34752,-31.80305 7.36315,-4.92364 14.21094,-2.28638 22.58228,8.697 11.71997,15.37685 58.05372,92.567166 74.04288,123.35275 7.29357,14.043072 23.99074,46.182 37.10476,71.4198402 13.11404,25.2378238 32.23505,66.1976168 42.49113,91.0217768 83.42634,201.927523 125.29587,328.157503 152.12541,458.633763 3.52942,17.1641 8.14403,38.01568 10.25467,46.33688 3.49383,13.77414 3.48591,15.69605 -0.0882,21.45514 -5.05309,8.1423 -12.02269,8.04996 -18.19979,-0.24108 z m -173.78181,-5.34866 c -0.82232,-2.26248 -1.49512,-8.54945 -1.49512,-13.97102 0,-14.6405 11.30973,-116.31752 18.46957,-166.04558 3.43872,-23.8833 6.86691,-47.70852 7.61824,-52.94493 0.75131,-5.2364 3.22503,-11.14858 5.49715,-13.13813 6.767,-5.92554 25.7406,-18.30295 24.30959,-15.85832 -3.92349,6.70257 -25.25936,172.64518 -28.60474,222.47709 -2.34285,34.89886 -5.77974,43.59453 -17.23033,43.59453 -4.17396,0 -7.68156,-1.68477 -8.56436,-4.11364 z m 97.94258,-4.33838 c 0.8169,-3.21826 1.50042,-8.39138 1.51891,-11.49581 0.0357,-5.98749 3.45317,-6.70534 45.00253,-9.45251 l 14.17922,-0.93754 2.6091,10.23021 c 1.43504,5.62663 2.07027,10.79911 1.4117,11.49447 -1.99258,2.10376 -33.81224,5.83681 -50.52455,5.92748 -15.07673,0.0819 -15.6248,-0.14064 -14.19691,-5.7663 z m 107.71707,-2.1451 c -2.53323,-4.39807 -5.9255,-15.22316 -7.53835,-24.05575 C 889.78254,564.24177 875.57829,505.28999 860.71125,449.6379 824.95227,315.78042 777.42549,182.89722 725.37675,71.247349 691.30502,-1.8400118 635.06307,-105.92616 602.13707,-156.83056 c -27.59154,-42.65715 -30.61925,-51.09376 -20.40722,-56.86403 8.6808,-4.90506 15.97114,3.31811 47.72434,53.8308 113.06067,179.85597 195.54883,379.79007 267.024,647.21071 30.72056,114.93936 33.18654,133.93205 17.38968,133.93205 -5.59784,0 -8.49051,-1.93005 -11.98477,-7.99651 z m -237.45851,0.8448 c -5.38642,-10.13693 -1.36555,-74.8694 9.37024,-150.85328 8.36629,-59.21367 8.66126,-60.09293 23.60766,-70.37173 9.94898,-6.842 12.2692,-7.64808 11.22821,-3.90093 -2.55161,9.18496 -14.95725,110.1527 -25.34401,206.27142 -0.85012,7.86688 -2.63872,15.76628 -3.97472,17.55421 -2.63994,3.53296 -13.21045,4.45623 -14.88738,1.30031 z m 270.89328,-10.24864 c -1.94814,-4.01805 -4.32941,-12.57183 -5.29163,-19.00837 C 927.46011,567.70556 907.95974,485.6666 895.40933,439.23542 885.51083,402.61524 831.14819,234.61113 817.99067,199.97815 797.61139,146.33628 730.57102,-2.4128758 710.15883,-39.2791 c -22.9251,-41.404752 -66.85178,-116.76598 -84.8496,-145.56917 -13.19016,-21.10915 -16.85714,-29.01179 -16.29102,-35.1084 0.55267,-5.95194 2.11465,-8.07468 6.41513,-8.71827 9.33103,-1.39646 17.13835,6.28245 33.40847,32.85896 77.21096,126.1208 157.96318,292.999329 207.25449,428.30192 40.88267,112.22123 100.94688,332.2058 99.24063,363.4678 -0.72192,13.2267 -0.97207,13.64577 -8.61024,14.42643 -6.51685,0.66605 -8.47448,-0.44954 -11.40882,-6.50155 z m -304.6776,-4.76282 c -3.82261,-4.86299 -1.90414,-43.22626 5.13046,-102.59336 2.62228,-22.12994 4.76775,-45.08518 4.76775,-51.01157 0,-11.19122 7.27083,-24.47982 13.39405,-24.47982 1.7511,0 6.10438,-2.42549 9.67393,-5.39 7.77111,-6.45383 7.72157,-6.93013 2.87915,27.68737 -1.98601,14.19778 -5.86952,49.80488 -8.63,79.1269 -6.28494,66.7596 -7.08008,72.0401 -11.55988,76.76989 -4.70298,4.96539 -11.7048,4.91643 -15.65546,-0.10944 z m 334.97109,-12.29509 c -2.61349,-6.07894 -4.77616,-15.44051 -4.80594,-20.80349 -0.18947,-34.15696 -69.62811,-272.11677 -106.05429,-363.43843 -10.55483,-26.46134 -25.01982,-63.21046 -32.1444,-81.66474 -13.811,-35.773629 -69.95742,-157.254158 -89.66438,-194.00123 -16.55955,-30.87821 -66.50424,-113.13826 -78.01099,-128.48587 -10.16202,-13.554 -12.84229,-20.66028 -11.51807,-30.53774 1.10554,-8.24614 11.30183,-9.41043 19.89717,-2.27204 11.05592,9.18185 102.07499,170.155682 136.05023,240.6146262 41.559,86.1864648 92.54499,216.3760938 118.63544,302.9283538 8.8462,29.34632 21.5748,71.49622 28.28576,93.66654 14.36688,47.46237 28.75149,105.21833 37.73523,151.51193 7.29069,37.5691 6.43691,43.53475 -6.23064,43.53475 -6.34578,0 -8.11302,-1.60432 -12.17512,-11.05266 z m -167.42963,-8.06993 0,-11.32069 24.01596,-1.52599 c 13.20879,-0.83931 24.76103,-0.71868 25.67167,0.26804 0.91067,0.98673 2.39003,6.01652 3.28752,11.17731 1.55984,8.96941 1.28315,9.45681 -6.27416,11.05262 -4.34829,0.91819 -16.63485,1.66943 -27.30349,1.66943 l -19.3975,0 z M 589.50374,568.1722 c -13.84427,-7.69219 -29.36227,-16.63381 -34.48448,-19.87024 -15.71368,-9.92867 -47.49229,-34.3652 -47.49229,-36.51976 0,-1.11934 4.62031,-4.94414 10.26733,-8.49952 l 10.26735,-6.46438 10.05385,8.65992 c 12.7616,10.99224 44.45664,31.20977 67.38499,42.98332 11.54727,5.92944 17.30882,10.30943 16.52927,12.56565 -0.65819,1.90491 -1.19671,7.46375 -1.19671,12.35298 0,5.40758 -1.20598,8.8676 -3.07894,8.83366 -1.69344,-0.0306 -14.4061,-6.34945 -28.25037,-14.04163 z m 412.06966,10.01464 c -2.12687,-2.24554 -4.40057,-6.63408 -5.05271,-9.75234 -0.65213,-3.11825 -4.08261,-19.71289 -7.62325,-36.877 C 976.92909,473.53804 929.35062,304.17066 913.28409,262.39309 908.60851,250.23519 899.50936,225.07417 893.06377,206.47972 873.4563,149.91532 846.4343,85.297813 810.41088,8.8324202 762.30491,-93.280076 725.46963,-160.03371 683.55555,-221.05709 c -6.93099,-10.09096 -7.87064,-21.45604 -2.18574,-26.43734 8.23441,-7.2153 18.02656,3.281 47.843,51.28342 36.89076,59.39156 50.22092,84.24276 89.75808,167.334406 59.12477,124.257105 88.39045,195.078654 120.36175,291.269694 24.2847,73.06448 52.25982,170.65133 73.43346,256.16129 7.4206,29.96814 9.1542,55.30654 4.1456,60.59451 -4.0898,4.31811 -10.7318,3.90155 -15.3383,-0.96205 z M 801.69669,559.66302 c -1.47594,-1.17232 -2.17746,-6.97973 -1.58866,-13.15194 l 1.05432,-11.05266 20.40413,0 20.40417,0 1.67751,9.44092 c 0.92264,5.19251 0.63912,10.53726 -0.62999,11.87721 -3.00937,3.17727 -37.88796,5.6137 -41.32148,2.88647 z m 224.69021,-5.35007 c -0.6611,-2.50312 -1.8787,-7.05037 -2.7057,-10.10505 -1.2886,-4.75981 3.8786,-9.84789 36.1364,-35.58324 20.702,-16.51611 40.93,-32.89321 44.951,-36.39356 7.0742,-6.15812 7.5929,-6.22949 16.0107,-2.20293 4.7848,2.28877 9.1939,4.52289 9.798,4.96477 2.7978,2.04635 -37.8076,41.49707 -56.5199,54.91246 -20.5376,14.72411 -42.7681,28.95862 -45.2255,28.95862 -0.6836,0 -1.7838,-2.04798 -2.445,-4.55107 z M 603.70395,541.66937 c -17.66915,-8.64085 -64.85526,-40.10349 -67.8705,-45.25453 -0.80608,-1.37702 3.48492,-5.04298 9.53549,-8.14662 l 11.00109,-5.643 21.50165,14.70562 c 11.8259,8.08808 27.40192,17.75342 34.61339,21.47854 l 13.11178,6.77296 -1.49732,12.08973 c -0.82352,6.64938 -1.62113,12.28787 -1.77248,12.52995 -0.15136,0.24213 -8.53172,-3.5976 -18.6231,-8.53265 z m 203.71469,-10.55312 c -4.42746,-1.27407 -5.4224,-7.9165 -2.75803,-18.41327 1.32091,-5.20412 3.04512,-5.8514 15.5871,-5.8514 l 14.10187,0 3.02379,10.65569 c 1.66309,5.86061 2.66986,10.98035 2.23728,11.37722 -1.70638,1.56537 -28.13961,3.39793 -32.19201,2.23176 z m 210.51396,-12.95957 c -3.6167,-12.4419 -1.2253,-16.70269 14.8105,-26.38779 7.1433,-4.31431 20.1926,-14.37224 28.9985,-22.35095 17.2722,-15.64982 21.4533,-16.84254 34.0976,-9.72689 l 8.2343,4.63385 -13.1607,12.53295 c -21.6861,20.65177 -62.4209,50.79872 -68.6397,50.79872 -0.8684,0 -2.8217,-4.27496 -4.3405,-9.49989 z m -410.647,-7.80246 c -28.15459,-17.21244 -45.51411,-30.09885 -44.00944,-32.66933 0.83139,-1.42032 5.90393,-4.65858 11.27233,-7.19621 l 9.76071,-4.61386 21.19413,14.04858 c 11.65675,7.72669 21.6708,14.55184 22.25342,15.16698 1.65819,1.75075 -2.09474,24.79235 -3.99563,24.53169 -0.93306,-0.128 -8.34704,-4.29848 -16.47552,-9.26785 z m 199.58213,-17.15591 c 0.95123,-6.07894 2.01976,-11.39525 2.37449,-11.814 0.35475,-0.41873 4.49701,-1.42134 9.20498,-2.22797 8.37512,-1.43494 8.61841,-1.22348 11.2663,9.79042 3.23197,13.44341 1.62755,15.20654 -13.89025,15.2644 l -10.68503,0.0398 1.72951,-11.05266 z m 206.46927,1.86291 c -0.8643,-2.37801 -1.6883,-8.53163 -1.831,-13.67467 -0.2417,-8.70584 1.0586,-10.42102 18.8471,-24.86109 l 19.1066,-15.51011 9.9592,3.47026 c 5.4775,1.90861 10.5664,4.50769 11.3087,5.77571 1.8407,3.14442 -15.645,19.80155 -37.6339,35.85067 -15.2995,11.16667 -18.4346,12.58683 -19.7567,8.94923 z M 454.42896,479.68489 c -2.59392,-4.17975 -3.20444,-7.76463 -1.78004,-10.45192 2.21484,-4.17856 39.28172,-26.85042 94.28887,-57.67154 34.07421,-19.09216 95.88138,-59.4763 166.65878,-108.89307 l 46.40594,-32.40063 4.50011,10.5994 c 2.47509,5.82966 4.13773,10.85238 3.69477,11.16153 -0.44294,0.30917 -8.56435,6.43056 -18.0476,13.60309 -31.59533,23.8968 -48.98976,36.26325 -82.51637,58.66454 -35.01008,23.39244 -141.35329,88.53426 -161.70376,99.05354 -6.57256,3.39743 -17.43219,9.89403 -24.13248,14.43695 -14.68186,9.95456 -22.05125,10.46566 -27.36822,1.89811 z m 152.82965,-4.24472 c -9.45504,-5.83354 -17.57832,-11.0153 -18.05164,-11.51504 -1.20251,-1.26965 18.63956,-14.28723 21.77725,-14.28723 1.41072,0 6.70811,2.8948 11.77197,6.43289 8.69931,6.07818 9.15811,7.08203 8.32027,18.20437 -0.50401,6.69069 -2.1255,11.77146 -3.75677,11.77146 -1.57852,0 -10.60601,-4.77292 -20.06108,-10.60645 z m 203.239,-3.334 c 0,-8.27895 3.25596,-27.66914 4.64535,-27.66463 2.08096,0.008 9.76211,28.12743 8.14838,29.83116 -2.75366,2.90737 -12.79373,1.20715 -12.79373,-2.16653 z m 314.05489,-6.58311 c -40.8738,-15.70508 -130.58172,-56.61569 -133.68223,-60.96477 -2.67976,-3.75892 -8.63257,-25.28377 -7.36304,-26.62416 0.51082,-0.53932 16.93697,6.37701 36.50257,15.3696 19.5656,8.9926 58.4867,26.01845 86.4913,37.83525 28.0045,11.81684 51.5547,23.23855 52.3336,25.38165 0.7789,2.14309 0.2728,6.15234 -1.1248,8.90939 -3.2844,6.47948 -16.44,6.51637 -33.1574,0.093 z m -121.774,-9.81883 c -2.8096,-11.78053 -2.6913,-12.31432 4.0181,-18.12379 3.8022,-3.29218 8.8771,-6.69418 11.2776,-7.55997 5.3286,-1.92195 26.8641,6.36112 24.9665,9.60272 -1.9053,3.25488 -33.3672,28.21906 -35.5639,28.21906 -0.9919,0 -3.1061,-5.46211 -4.6983,-12.13802 z m -569.9697,1.30103 c -5.3665,-3.17084 -5.25189,-13.30904 0.20715,-18.31936 2.37081,-2.17596 15.39486,-9.77949 28.94232,-16.89676 46.14537,-24.24275 234.44054,-144.87875 261.84208,-167.75565 6.36373,-5.31294 14.63251,-11.49454 18.37502,-13.73686 6.50232,-3.8959 6.89804,-3.81336 8.908,1.858 6.10058,17.21344 7.81685,14.87533 -32.31129,44.01858 -81.70816,59.34091 -149.24229,102.99008 -219.86618,142.10553 -53.39427,29.57272 -59.88814,32.39506 -66.09704,28.72652 z m 190.85134,-5.2862 -8.25721,-5.52934 9.48881,-6.06938 c 10.6177,-6.79147 12.49944,-4.8768 9.00664,9.16434 l -1.98102,7.96373 z m 526.75576,-13.62894 c -61.6981,-24.03402 -95.2799,-38.58599 -146.528,-63.4949 -26.99593,-13.12123 -27.071,-13.18326 -29.8415,-24.64966 -1.52765,-6.32245 -3.54674,-12.80941 -4.4869,-14.41551 -0.94016,-1.60609 -1.19681,-2.92016 -0.5704,-2.92016 0.62645,0 30.34236,13.30748 66.0353,29.57213 35.693,16.26472 79.306,35.07911 96.9177,41.80983 39.5344,15.10894 50.4951,21.33884 50.4951,28.70076 0,13.08892 -8.5687,14.53329 -32.0213,5.39751 z m -152.77569,-0.80517 c -0.0323,-1.07277 -1.03314,-6.38184 -2.2241,-11.79795 -2.36529,-10.75685 -2.54625,-10.70619 14.36359,-4.02026 l 5.9227,2.34175 -6.9993,7.71347 c -6.8406,7.53838 -10.94497,9.6765 -11.06289,5.76299 z m -585.68445,-8.97216 c -5.31637,-5.61301 -3.43871,-15.05008 3.8179,-19.18899 25.4753,-14.53021 157.50098,-94.71151 181.65925,-110.32455 35.24474,-22.77803 98.05862,-66.73313 117.00085,-81.87336 7.45109,-5.95555 14.88581,-11.65827 16.52152,-12.67272 3.33998,-2.07137 10.57341,10.63036 10.57341,18.56671 0,8.20689 -124.60156,95.00267 -214.29631,149.2759 -98.02133,59.31157 -107.81976,64.08999 -115.27662,56.21701 z m 765.55504,-14.23216 c -49.7691,-19.69398 -130.5217,-56.01034 -184.55376,-82.99819 -28.24454,-14.10755 -29.64074,-15.18291 -33.05066,-25.4557 -1.95814,-5.89921 -4.36416,-12.81189 -5.34667,-15.36145 -1.67993,-4.35935 -1.07161,-4.3366 10.20795,0.38193 6.59687,2.75962 31.39184,14.62135 55.09994,26.35933 45.0553,22.30715 117.6784,54.02931 151.6606,66.24626 10.9345,3.931 22.5409,9.26556 25.7917,11.85456 5.1023,4.06342 5.5774,5.71361 3.4744,12.06472 -1.9878,6.00345 -4.0146,7.45064 -11.0125,7.86398 -4.7169,0.27862 -10.2389,-0.15136 -12.271,-0.95544 z M 392.67352,395.92261 c -0.90269,-3.79721 -0.5845,-8.77091 0.7071,-11.05264 1.29157,-2.28171 15.16963,-11.17024 30.84014,-19.7523 15.67052,-8.58205 33.89738,-19.28722 40.50416,-23.7893 6.6068,-4.50206 29.193,-18.41091 50.19159,-30.90856 37.46115,-22.2956 124.90459,-81.26299 163.8012,-110.45915 20.68635,-15.52741 42.97595,-29.89558 43.83262,-28.25515 0.27751,0.53138 1.89008,3.58334 3.58351,6.78222 6.6928,12.64255 5.06902,14.40317 -48.03194,52.07949 -89.32064,63.37507 -158.09795,107.77101 -218.60686,141.11123 -16.25696,8.95756 -34.64308,19.63034 -40.85805,23.71735 -14.71347,9.67565 -23.74506,9.85891 -25.96347,0.52681 z m 768.82668,-25.22003 c -48.5963,-19.48237 -97.301,-42.08259 -160.1065,-74.29353 l -54.18983,-27.79231 -4.23842,-14.02389 c -2.33116,-7.71315 -3.8372,-14.44755 -3.34676,-14.96536 0.49044,-0.5178 33.98797,15.62237 74.43901,35.86704 83.5859,41.83253 125.2101,60.81064 165.909,75.64431 35.0768,12.78454 39.9629,15.94493 38.9511,25.19433 -0.6916,6.32266 -1.8211,7.04629 -11.8489,7.59157 -8.3638,0.4548 -19.5475,-2.79021 -45.5687,-13.22216 z m -766.46668,-3.72867 c -0.78511,-2.45126 -5.72282,-14.5116 -10.97276,-26.80074 -5.2499,-12.28912 -9.54529,-23.6064 -9.54529,-25.14945 0,-1.54306 3.6024,-3.57103 8.00533,-4.50663 4.40292,-0.9356 9.85568,-2.24777 12.11723,-2.91595 2.72534,-0.80518 4.66645,0.7949 5.75651,4.74525 0.90451,3.27803 5.6119,15.05106 10.46083,26.16224 8.56698,19.63106 8.68277,20.30814 4.09619,23.9512 -2.59601,2.06198 -7.81841,4.92398 -11.60532,6.35998 -5.69044,2.15788 -7.133,1.83752 -8.31272,-1.8459 z M 421.3158,353.2006 c 0,-1.54816 -3.20155,-10.61784 -7.11457,-20.15482 -11.6736,-28.45125 -11.70967,-27.47264 1.1288,-30.61755 l 11.23454,-2.75197 4.75311,9.83675 c 2.61424,5.41023 6.92728,15.66037 9.58456,22.77812 l 4.83142,12.94139 -8.65498,5.39149 c -9.50062,5.91828 -15.76288,6.94193 -15.76288,2.57659 z m 784.5216,-2.19187 c -16.9515,-5.31776 -82.2011,-32.38088 -125.622,-52.10348 -32.4414,-14.73545 -146.55899,-77.47785 -146.55899,-80.57883 0,-2.52534 7.18252,-9.09317 14.0294,-12.8287 4.55262,-2.48383 7.46069,-1.67298 18.38093,5.1251 45.32536,28.2161 172.15896,88.28144 248.70596,117.78123 15.631,6.02397 21.0455,12.60696 17.3717,21.12045 -3.2649,7.56557 -6.3639,7.7404 -26.3071,1.48423 z M 444.08713,326.81295 c -3.05534,-7.53926 -6.58037,-17.51114 -7.83336,-22.15974 -1.96833,-7.30255 -1.67347,-8.45204 2.16834,-8.45204 2.44557,0 7.89326,-0.72779 12.10598,-1.61736 6.10336,-1.2888 7.98488,-0.62835 9.26104,3.25076 1.43778,4.37035 10.51456,25.87766 12.60283,29.86219 1.14272,2.18037 -9.8663,9.55283 -16.95091,11.3516 -5.10054,1.29504 -6.46757,-0.17808 -11.35392,-12.23541 z m 26.76131,-13.05758 c -8.8116,-21.72861 -8.80216,-21.87575 1.5177,-23.67648 5.11362,-0.89229 10.7372,-1.6352 12.49688,-1.65095 2.98365,-0.0267 12.71464,18.89104 12.69362,24.67728 -0.008,2.36773 -16.34687,11.7028 -20.48228,11.7028 -0.95907,0 -3.76073,-4.97368 -6.22592,-11.05265 z m 739.29946,6.93212 c -4.403,-2.03294 -7.9773,-3.98547 -7.943,-4.33896 0.035,-0.35347 3.1897,-12.89952 7.0118,-27.88006 l 6.9495,-27.23741 10.8461,0.78808 c 5.9656,0.43347 11.5487,1.57263 12.4074,2.53149 0.8585,0.95886 -1.878,14.90904 -6.0812,31.0004 -8.2323,31.5168 -8.5728,31.88584 -23.1906,25.13646 z m -24.6317,-10.75054 c -5.7577,-2.0717 -10.4685,-4.88182 -10.4685,-6.24474 0,-1.36291 2.3432,-12.34235 5.2072,-24.39878 l 5.2074,-21.92077 11.419,1.57627 c 6.2806,0.86695 11.861,1.97532 12.401,2.46308 1.3299,1.20148 -9.9715,50.35323 -11.8264,51.43419 -0.8092,0.4716 -6.1821,-0.83759 -11.9397,-2.90925 z M 496.91672,299.22826 c -2.29284,-5.48681 -4.1688,-10.62022 -4.1688,-11.40753 0,-3.30781 22.57953,-4.89943 26.0735,-1.83789 2.91319,2.55261 3.32738,2.40925 2.17776,-0.75378 -1.05817,-2.91141 0.96583,-4.32214 7.94893,-5.54048 13.31688,-2.32337 17.98968,-2.07739 17.98968,0.94709 0,4.05829 -15.4763,13.23333 -20.2355,11.9965 -2.59456,-0.67429 -4.80056,0.81704 -5.71671,3.86465 -1.36862,4.55272 -12.78408,12.70747 -17.78859,12.70747 -1.16133,0 -3.98744,-4.48921 -6.28027,-9.97603 z m -143.62388,3.62639 c -2.46958,-6.79471 0.19386,-12.80808 7.68322,-17.3465 13.06989,-7.92016 104.47864,-26.8613 186.77088,-38.70141 30.03679,-4.32168 57.14466,-8.27957 60.2397,-8.79528 3.09509,-0.51576 5.31195,-0.60753 4.92637,-0.2039 -0.38557,0.40358 -8.46005,6.71693 -17.9433,14.02968 -19.57464,15.09445 -24.43363,16.78214 -60.34779,20.96094 -33.48701,3.89635 -83.29386,13.58229 -127.74906,24.84333 -38.68186,9.79861 -51.46147,11.042 -53.58002,5.21315 z m 799.97656,-5.66991 c -6.1596,-2.83881 -7.8239,-4.91235 -6.6138,-8.23989 0.8894,-2.44555 3.4106,-11.25604 5.6028,-19.57886 3.4746,-13.19194 4.6385,-14.94728 9.0769,-13.68877 2.8002,0.79395 8.1394,1.4596 11.865,1.47912 8.1658,0.0429 8.2434,1.35767 1.4964,25.39157 -5.7457,20.46694 -6.9671,21.30126 -21.4273,14.63683 z m -24.6945,-11.52081 c -9.3042,-4.39805 -10.5159,-5.86839 -9.0038,-10.92564 0.961,-3.214 2.3236,-9.06192 3.0281,-12.99536 1.2088,-6.74934 2.0274,-7.15171 14.5488,-7.15171 7.2973,0 13.2679,0.69759 13.2679,1.55021 0,3.38549 -8.0343,31.07234 -9.5125,32.78102 -0.8676,1.00288 -6.4155,-0.46345 -12.3285,-3.25852 z m -28.2361,-12.06348 c -7.706,-3.37195 -9.1789,-5.13424 -8.0389,-9.61833 0.7676,-3.01949 1.4108,-6.95282 1.4293,-8.74075 0.022,-2.04146 3.624,-3.25076 9.6849,-3.25076 15.908,0 17.0682,1.17952 14.1959,14.43191 -2.7687,12.77445 -3.647,13.1395 -17.2712,7.17793 z m -750.41738,-7.95657 c 0.0198,-3.93346 0.89094,-8.56919 1.93371,-10.30163 2.64199,-4.38925 16.86967,-10.23568 30.04987,-12.34805 6.09636,-0.97707 30.4818,-5.73218 54.18986,-10.56691 75.87699,-15.47344 162.76437,-29.8485 180.4137,-29.8485 20.32614,0 35.84102,6.07786 31.0555,12.16578 -5.43574,6.91516 -11.78424,8.76694 -43.31822,12.63537 -38.24186,4.69138 -95.6448,15.14421 -178.04836,32.42189 -34.08452,7.14656 -65.1988,12.99374 -69.14281,12.99374 -6.18989,0 -7.16581,-0.97843 -7.13325,-7.15169 z m 724.57318,-4.84765 c -11.4049,-5.25822 -8.7989,-10.32746 4.7389,-9.21811 12.8767,1.05515 12.9668,1.12144 10.8935,8.01837 -1.8711,6.22428 -4.3257,6.41268 -15.6324,1.19974 z m 120.2586,-7.72853 c -16.9344,-2.00734 -58.0115,-4.67254 -91.2824,-5.92265 -65.197,-2.44972 -66.7062,-2.76816 -93.4559,-19.71991 l -11.08432,-7.02429 71.43212,1.37482 c 66.56,1.28102 114.4711,4.80867 167.007,12.29651 l 21.6795,3.08992 -0.7426,9.36472 -0.7425,9.36472 -16.0107,0.41291 c -8.8059,0.22704 -29.866,-1.22942 -46.8002,-3.23675 z M 345.45,235.86674 c -9.30087,-9.81984 3.1574,-20.80753 28.78022,-25.38309 8.96275,-1.60046 28.50078,-5.76052 43.4179,-9.24452 33.80621,-7.89572 100.75954,-20.11612 142.38741,-25.98866 l 31.57156,-4.45389 12.14505,8.73938 c 6.67978,4.80669 12.14719,9.4659 12.14981,10.35384 0.002,0.88792 -8.03134,2.42651 -17.85326,3.41907 -27.23765,2.75248 -109.55313,17.96845 -176.20767,32.57195 -63.3236,13.8737 -71.67472,14.96539 -76.39102,9.98592 z m 860.3874,-16.39517 c -95.5422,-8.19425 -151.8982,-11.69548 -189.1072,-11.74865 -34.3329,-0.0491 -41.46503,-0.77434 -50.5843,-5.14387 l -10.61611,-5.08674 8.15295,-7.44853 8.15289,-7.44849 61.57937,2.078 c 101.0574,3.4102 206.9552,11.99241 221.8745,17.98121 5.229,2.09901 6.1523,3.93821 5.5098,10.97527 -0.9531,10.43483 -1.1565,10.45644 -54.962,5.8418 z M 923.99582,199.62969 c -2.48747,-8.76583 -2.44577,-11.35264 0.22589,-14.00946 1.80221,-1.79218 16.02366,-14.64091 31.60325,-28.55274 50.70074,-45.27345 98.06074,-92.414685 158.72024,-157.98740582 61.9119,-66.92652818 67.4516,-71.33824018 73.1109,-58.22432018 2.0603,4.774416 1.7258,8.10224 -1.5038,14.953584 -4.922,10.442064 -121.7277,133.792993 -167.5163,176.903202 -31.65258,29.80106 -87.17211,77.66811 -90.08491,77.66811 -0.82743,0 -2.87728,-4.83793 -4.55527,-10.75097 z M 617.94344,182.73625 C 551.59043,135.64785 399.44921,12.393348 392.3735,-0.00522782 387.19124,-9.0859639 388.48812,-18.16134 395.22305,-19.946012 c 7.77693,-2.060816 13.86093,1.623936 32.00055,19.38092818 8.26606,8.09169602 23.34243,21.68198382 33.50304,30.20060782 10.1606,8.518624 23.7467,20.382113 30.19134,26.363329 6.44464,5.9812 16.63619,13.918304 22.64789,17.637984 6.01166,3.719664 27.2881,19.742544 47.28091,35.606383 19.9928,15.86387 53.8737,41.17048 75.29085,56.23695 32.28691,22.71312 38.44013,28.02984 36.01323,31.11726 -2.68534,3.41614 -15.01515,11.18259 -17.75325,11.18259 -0.64052,0 -17.04489,-11.26968 -36.45417,-25.04377 z m -275.35376,17.4303 c -3.13256,-6.17986 -1.55277,-10.97949 5.04596,-15.33042 11.50068,-7.58308 175.57577,-42.04168 200.29269,-42.06492 6.31455,-0.006 28.27405,14.15684 28.49141,18.37556 0.0419,0.81304 -17.3816,4.13516 -38.71886,7.38252 -58.51501,8.90539 -127.41085,22.6436 -150.68781,30.04792 -25.59229,8.14083 -40.82616,8.68587 -44.42339,1.58934 z m 290.1363,-49.50901 C 567.83542,104.62039 527.18955,73.460277 496.2134,46.003652 482.69632,34.022404 462.52142,16.893364 451.3803,7.9391082 440.2392,-1.0151638 424.864,-14.493036 417.2132,-22.01174 c -12.12693,-11.917584 -13.69839,-14.5628 -12.25597,-20.630512 1.08323,-4.556704 3.84205,-7.539808 7.98941,-8.6388 7.02072,-1.8604 6.93438,-1.920816 37.08672,25.961008 28.67726,26.5177922 168.56205,136.756864 214.52109,169.057714 22.01464,15.4723 40.0266,28.58989 40.0266,29.15022 0,1.02906 -19.04057,14.16957 -20.27225,13.99052 -0.36562,-0.053 -23.57787,-16.35253 -51.58282,-36.22087 z m 504.14242,29.63347 c -47.4161,-3.33942 -100.4388,-6.83611 -117.8282,-7.77043 l -31.61697,-1.69877 6.98525,-7.75928 c 12.91722,-14.34857 15.12682,-14.78363 62.41122,-12.28817 74.626,3.93846 125.7718,7.67992 158.8704,11.62187 46.7696,5.57014 45.5688,5.15688 45.5688,15.68328 l 0,8.89555 -19.0897,-0.30619 c -10.4993,-0.16851 -57.8846,-3.03842 -105.3008,-6.37786 z M 911.95854,167.86549 c -1.61365,-4.71145 -2.87086,-10.2386 -2.79379,-12.28256 0.0771,-2.04396 26.26874,-27.70704 58.20376,-57.029037 64.71889,-59.423409 139.24159,-135.727841 164.46949,-168.401681 17.0091,-22.029184 24.1225,-26.661632 33.1275,-21.573392 10.6072,5.993552 6.5917,13.943232 -25.3108,50.110512 -69.517,78.809872 -157.54446,164.731618 -215.99608,210.829028 l -8.76619,6.91339 z m -565.15379,0.69688 c -7.17184,-4.41028 -5.38083,-14.6775 3.39624,-19.46956 7.95729,-4.34452 91.80097,-23.26807 137.91398,-31.12727 l 26.1568,-4.45803 12.63823,8.73542 c 6.95105,4.80447 12.63825,9.39741 12.63825,10.20653 0,0.80915 -9.69875,2.94437 -21.55277,4.74495 -30.98078,4.70585 -108.39004,20.2635 -138.13504,27.76225 -28.9579,7.30031 -27.33548,7.12335 -33.05569,3.60571 z m 360.29288,-7.89424 c -3.35749,-1.4144 -11.6707,-6.98624 -18.47382,-12.38185 -6.80309,-5.39562 -32.87524,-24.80444 -57.93804,-43.13076 C 581.58955,69.255685 485.80337,-6.2689559 449.28694,-37.872188 c -23.34403,-20.203168 -30.97456,-32.161504 -25.20533,-39.500928 6.23965,-7.937824 15.80699,-3.9616 35.69872,14.83648 38.91539,36.775824 145.18636,121.392145 212.30165,169.041246 33.25112,23.60695 34.78719,25.09424 39.70216,38.44173 7.32319,19.88744 7.08653,20.68136 -4.68651,15.72179 z m 453.17097,-12.90164 c -27.7723,-2.62976 -69.6155,-5.60047 -92.9849,-6.60156 -23.3694,-1.00112 -42.4898,-2.715 -42.4898,-3.80862 0,-1.09365 4.7109,-6.24717 10.4685,-11.45231 10.3472,-9.35424 10.6684,-9.44779 27.7108,-8.07417 9.4832,0.76432 33.8686,2.08555 54.1898,2.93603 41.9713,1.75659 104.2715,7.56067 124.3472,11.58464 15.6762,3.14208 20.1701,6.85003 18.1564,14.98045 -1.3788,5.56669 -2.5407,5.82173 -25.1742,5.52643 -13.0509,-0.17029 -46.4515,-2.46118 -74.2238,-5.09089 z M 898.20678,132.30661 c -2.17865,-5.7488 -3.9612,-10.84782 -3.9612,-11.33115 0,-0.4833 20.92093,-20.29949 46.49091,-44.035967 C 999.44542,22.44034 1058.4396,-37.975724 1097.9434,-84.0563 c 25.1044,-29.28397 31.9498,-35.84208 37.4121,-35.84208 7.6362,0 12.5972,4.2095 12.5972,10.68907 0,17.413714 -145.267,167.819203 -233.11949,241.36551 l -12.66526,10.60281 z m -539.65614,-8.39665 c 4.412,-34.626115 28.12755,-111.176612 34.44281,-111.176612 1.45482,0 6.28871,3.218272 10.74205,7.151712 l 8.09693,7.151712 -4.91223,12.078928 c -9.26344,22.778385 -19.89664,61.472 -21.53633,78.36939 l -1.64035,16.904 -8.92458,1.55844 c -18.16312,3.17171 -18.20253,3.14254 -16.2683,-12.03757 z m 30.76249,6.77979 c 0.0984,-11.80951 6.83687,-41.761601 15.23144,-67.705105 l 10.24699,-31.668257 10.82421,7.862816 c 7.92335,5.755584 10.3785,9.015424 9.16111,12.163617 -4.96754,12.846 -13.21532,40.400048 -16.97656,56.715119 -4.15328,18.01563 -4.56204,18.66021 -12.87776,20.30728 -4.7236,0.9356 -10.17228,2.34283 -12.10818,3.12715 -1.93592,0.78437 -3.51149,0.42316 -3.50125,-0.80262 z m 32.81162,-15.74131 c 0.82321,-5.44114 5.02861,-21.839395 9.34534,-36.440531 l 7.84858,-26.547568 6.39342,5.052048 c 16.28466,12.86808 15.42867,11.057168 11.17008,23.631312 -2.12513,6.274736 -5.29147,17.207952 -7.03635,24.296029 -3.28912,13.36117 -2.84504,12.99869 -22.10018,18.03871 -7.07667,1.8523 -7.10902,1.80608 -5.62089,-8.03 z m 776.66405,1.67635 c -18.7791,-2.50831 -57.574,-5.96975 -86.2112,-7.6921 -28.6372,-1.72238 -52.5234,-3.58555 -53.0805,-4.14035 -0.5571,-0.55485 3.3856,-5.699167 8.7615,-11.431791 l 9.7744,-10.423024 54.0495,3.899424 c 106.889,7.711456 119.7782,9.950608 121.2899,21.071041 1.7138,12.60837 -10.6573,14.58397 -54.5836,8.7168 z m -744.57365,-7.75256 c 0.82163,-4.3373 3.25493,-14.281857 5.40731,-22.099009 4.28147,-15.5496 4.90595,-15.658016 19.01802,-3.301488 6.66944,5.839776 6.75414,6.25208 3.613,17.585907 -3.37152,12.1651 -7.3302,14.88787 -22.45054,15.44137 -6.6059,0.24186 -6.98128,-0.27054 -5.58779,-7.62678 z m 30.58518,-4.88232 c 1.54722,-11.130001 3.97957,-11.904401 14.24931,-4.536529 9.76583,7.006349 9.00234,8.521179 -5.53134,10.974879 l -9.844,1.66197 z M 653.03025,80.079125 C 630.83446,64.370885 602.966,43.6697 591.1004,34.076468 579.23478,24.483268 551.42003,2.0764042 529.28985,-15.716524 482.08267,-53.671692 446.96801,-84.732812 444.9311,-90.33718 c -2.37264,-6.527968 -1.65387,-13.13907 1.75304,-16.12435 5.15174,-4.51416 25.35648,7.105982 45.24562,26.02163 22.77228,21.657664 112.90557,95.054656 147.59241,120.186848 39.4074,28.552465 41.13428,30.331553 48.52116,49.988721 3.63203,9.665056 6.32,17.872331 5.97331,18.238371 -0.34671,0.36604 -18.79056,-12.186675 -40.98639,-27.894915 z m 230.92324,15.831552 -4.13418,-10.392176 12.66702,-11.036496 c 6.9668,-6.07008 16.5862,-15.184096 21.37637,-20.25336 4.79018,-5.069264 20.78151,-20.216497 35.53631,-33.660561 36.87824,-33.602176 78.55229,-76.235904 109.34169,-111.859616 46.4829,-53.781378 47.6471,-54.941278 54.2921,-54.091968 7.9672,1.0183 11.4466,7.25475 9.2359,16.5543 -2.0531,8.63666 -125.61556,141.41026 -171.37006,184.145061 -24.08482,22.495264 -58.7928,51.102669 -61.89219,51.013439 -0.50535,-0.016 -2.77917,-4.70294 -5.05296,-10.418623 z M 1212.6953,84.900613 c -1.3017,-1.787936 -5.9754,-14.368432 -10.386,-27.956672 -4.4108,-13.588257 -12.9923,-34.898369 -19.07,-47.3557768 -11.8886,-24.3680802 -12.0992,-28.4810722 -1.9733,-38.5245602 6.0136,-5.96488 6.2048,-5.985632 9.7837,-1.061488 12.0573,16.589024 38.5977,82.420497 44.225,109.697249 l 1.7438,8.452032 -10.9785,0 c -6.0381,0 -12.0432,-1.462848 -13.3447,-3.250784 z m -31.6394,-1.340128 c -1.4371,-1.050848 -5.7234,-11.272896 -9.5251,-22.715616 -3.8017,-11.442752 -10.1349,-27.557505 -14.0739,-35.810545 -7.9549,-16.6675998 -7.3626,-20.5681598 4.636,-30.5329439 l 6.7818,-5.6322241 11.6355,26.360064 c 12.4022,28.097056 24.0956,60.405489 24.0956,66.575617 0,2.679472 -2.9804,3.734592 -10.4686,3.706128 -5.7577,-0.02096 -11.6442,-0.899616 -13.0813,-1.95048 z m -34.7137,-5.161408 c -0.8007,-2.50312 -5.1823,-13.876544 -9.7368,-25.274288 l -8.2809,-20.723233 7.8341,-8.533776 c 4.3088,-4.6936 8.6206,-8.533808 9.582,-8.533808 3.3452,0 26.844,57.269761 26.844,65.422689 0,1.206416 -5.5771,2.193488 -12.3933,2.193488 -9.6063,0 -12.7206,-1.023424 -13.8491,-4.551072 z m -53.1714,0.09024 -6.7501,-1.080976 6.7501,-8.931776 c 3.7125,-4.91248 7.4034,-8.931808 8.202,-8.93184 1.9725,-1.28e-4 7.1691,12.341648 7.1691,17.02632 0,3.73912 -2.2487,4.01976 -15.3711,1.918272 z m 17.9483,-10.176032 -5.0428,-12.036304 8.6829,-10.147313 8.683,-10.147328 8.5605,18.859489 c 4.7083,10.372736 8.5605,20.355344 8.5605,22.183632 0,2.251056 -3.9386,3.324144 -12.2006,3.324144 -12.1416,0 -12.225,-0.0584 -17.2435,-12.03632 z M 871.09457,69.533477 C 866.9527,63.290165 866.17696,57.447813 868.60341,50.771701 869.40245,48.573284 889.07705,28.89602 912.32478,7.0444042 985.06936,-61.331468 1014.6469,-91.2695 1040.1436,-122.33235 c 33.2837,-40.54989 37.9725,-44.77061 48.6929,-43.83185 7.2984,0.63908 8.7381,1.82339 9.3834,7.71897 1.7626,16.10383 -109.03702,132.565362 -219.12,230.317075 -3.53958,3.143088 -4.56817,2.842624 -8.00533,-2.338448 z M 642.9671,29.32498 C 601.67488,0.01893218 480.32526,-99.923548 471.02278,-112.28683 c -8.27688,-11.00025 -6.45824,-19.12337 4.48291,-20.02339 6.85523,-0.56392 10.98845,1.3005 20.17861,9.10218 6.35661,5.39624 32.95891,28.066972 59.11623,50.379404 26.15729,22.312448 56.0859,46.586416 66.50801,53.942192 10.42211,7.35576 21.65952,17.1868642 24.97202,21.8468642 7.74277,10.8924638 19.40536,35.4461758 18.3796,38.6952318 -0.43485,1.377344 -10.19672,-4.171472 -21.69306,-12.330672 z m 213.74933,5.161648 c -3.47826,-9.207232 -3.20403,-10.481536 10.49325,-48.761664 25.96022,-72.551856 45.07683,-119.592974 69.60851,-171.289014 19.33447,-40.74377 25.37976,-51.36228 29.24152,-51.36228 7.68047,0 14.39704,4.91437 14.39704,10.53398 0,2.83235 -6.6439,19.14306 -14.76422,36.24597 -29.91192,63.00019 -62.51295,142.669968 -74.16576,181.2448801 -2.94644,9.75368009 -7.54149,22.4151199 -10.21127,28.1364799 -4.85904,10.412992 -16.0179,24.70592 -19.28859,24.70592 -0.95638,0 -3.3461,-4.254448 -5.31048,-9.454352 z m 46.2968,-44.1045279 C 923.15729,-68.372076 966.0561,-173.21505 984.84829,-209.61973 c 6.07713,-11.77275 7.52705,-13.00311 15.32361,-13.00311 7.9533,0 8.6713,0.65995 9.3962,8.63587 0.5561,6.11907 -2.1289,14.65512 -9.213,29.28968 -5.4988,11.35957 -13.79654,30.87904 -18.43942,43.37657 -4.64286,12.49752 -15.75872,39.10671 -24.70186,59.131492 -8.94313,20.024784 -18.07368,42.449328 -20.29009,49.832288 -3.2996,10.991216 -7.27658,16.528256 -21.94775,30.5573282 -9.85486,9.423552 -18.50283,17.1337278 -19.21777,17.1337278 -0.71495,0 2.5498,-11.2283998 7.25502,-24.9520159 z M 840.7283,0.49491619 C 837.85269,-4.1387318 836.37715,-11.46702 836.40835,-20.96022 c 0.0534,-16.236912 5.6057,-31.961424 39.98558,-113.24144 11.49511,-27.17653 25.29136,-59.94437 30.65831,-72.81744 12.83763,-30.79212 19.74856,-40.30964 29.27001,-40.30964 9.56224,0 11.5778,5.86032 6.6472,19.32728 -2.13048,5.81884 -18.78417,45.6882 -37.00828,88.59847 -18.22407,42.910258 -38.97956,93.524866 -46.12328,112.476914 -7.14372,18.9520161 -13.38312,34.4582402 -13.8654,34.4582402 -0.48227,0 -2.84216,-3.1668 -5.24419,-7.03732801 z M 615.14833,-30.263772 c -4.00892,-3.723632 -6.16881,-7.70112 -5.13806,-9.461952 1.20731,-2.062496 0.41275,-2.484576 -2.47488,-1.314672 -3.94952,1.600144 -21.18653,-9.939504 -21.1867,-14.183856 -7e-5,-0.902976 4.05198,-4.904912 9.00454,-8.8932 l 9.00464,-7.251424 5.98789,7.349776 c 3.95603,4.855824 5.60416,9.469008 4.85707,13.595232 -0.74968,4.140528 -0.13616,5.842512 1.82003,5.04992 2.44413,-0.990224 6.13738,4.593376 13.06239,19.748192 2.08929,4.572256 -8.59157,1.25576 -14.93692,-4.638016 z m 202.25487,-20.270816 -6.43656,-13.856192 14.06464,-36.20579 c 7.73558,-19.91325 22.4351,-54.93035 32.66563,-77.81583 10.23056,-22.88545 20.44245,-46.97088 22.69314,-53.52312 5.03307,-14.65243 12.25792,-23.19522 19.61683,-23.19522 15.60957,0 15.20987,15.46189 -1.17935,45.62001 -13.89299,25.56478 -30.98673,65.72824 -55.57209,130.572142 -8.81253,23.243072 -16.78618,42.260128 -17.71925,42.260128 -0.93306,0 -4.5929,-6.235296 -8.13299,-13.856208 z m 131.03227,7.442784 c 0,-2.096976 1.83822,-7.882576 4.08493,-12.856864 4.06525,-9.00064 4.1204,-9.024816 11.45706,-5.019184 l 7.37216,4.025056 -9.13098,8.831824 c -9.8921,9.568048 -13.78317,10.985008 -13.78317,5.019168 z m -377.48173,-23.45128 c -3.72553,-3.462032 -6.77371,-6.908688 -6.77371,-7.6592 0,-0.750512 5.67445,-6.100288 12.60989,-11.888336 13.78206,-11.501984 16.21584,-11.200368 22.84573,2.83112 3.44075,7.282048 3.28249,7.697152 -5.84552,15.330064 -11.25706,9.413248 -14.01816,9.580896 -22.83639,1.386352 z m 392.69364,1.6932 c -5.7021,-4.631456 -5.70733,-4.691296 -1.30464,-14.895728 2.43124,-5.63512 4.60246,-10.598112 4.82489,-11.028928 0.22242,-0.430816 5.47056,2.608816 11.66253,6.754752 l 11.25805,7.538064 -8.01197,8.198832 c -9.24762,9.463296 -10.67683,9.729552 -18.42886,3.433008 z m -417.57927,-20.841552 -6.71766,-7.40304 10.56739,-8.944834 c 12.31309,-10.42249 23.12693,-17.87264 25.87561,-17.82688 1.06372,0.0176 4.42772,4.0968 7.47554,9.06469 l 5.54152,9.03246 -14.16262,11.738676 c -7.78946,6.456272 -15.89501,11.739408 -18.01236,11.740288 -2.11734,9.12e-4 -6.87267,-3.329696 -10.56742,-7.40136 z m 253.57453,1.179456 c -12.13018,-20.95709 -13.02109,-14.484016 9.39325,-68.2479 42.69035,-102.39867 47.40307,-110.68668 60.45195,-106.31402 11.38315,3.81447 8.67637,12.76251 -28.72701,94.96493 -10.73866,23.60064 -22.69546,51.68736 -26.57066,62.41493 -8.82308,24.424668 -9.73326,25.499628 -14.54753,17.18206 z m 179.23702,-3.870512 c -9.68331,-6.731024 -10.02972,-7.410176 -6.86102,-13.451038 1.83544,-3.49914 3.3765,-8.41005 3.42446,-10.91314 0.048,-2.50312 0.91861,-4.54013 1.93468,-4.5267 3.11048,0.0411 27.24802,15.2856 29.03432,18.337118 1.8472,3.155568 -10.53309,18.168064 -14.7161,17.844976 -1.43997,-0.11136 -7.20731,-3.392272 -12.81634,-7.291216 z m -454.11046,-16.297518 -8.62111,-7.64968 6.15794,-5.25514 c 18.04802,-15.40197 35.35584,-28.30686 37.8344,-28.20969 1.5444,0.0606 5.22712,4.11862 8.18381,9.01798 l 5.37581,8.90794 -15.2285,12.71217 c -23.03686,19.23029 -23.62926,19.414434 -33.70235,10.47642 z m 471.86744,-7.82143 c -8.03539,-5.54049 -15.01059,-10.49676 -15.50042,-11.01395 -1.71281,-1.80835 7.64711,-19.78859 10.30128,-19.78859 4.3078,0 33.8482,19.18258 35.1916,22.8523 1.29,3.52399 -5.3496,12.65237 -11.6603,16.03103 -2.4456,1.30929 -8.7336,-1.46248 -18.33216,-8.08079 z m -217.72384,-10.23548 -5.39104,-11.46488 8.88235,-0.82271 c 4.88526,-0.45249 9.53272,-0.136 10.32768,0.70335 0.79496,0.83928 -0.77613,6.36868 -3.49128,12.28756 l -4.93666,10.76156 z m -277.07357,-1.84456 -6.60944,-7.28372 9.22755,-9.36155 c 9.88904,-10.03262 37.06319,-30.68409 40.37557,-30.68409 1.10261,0 4.16394,4.46846 6.8029,9.92993 l 4.79811,9.92991 -21.58091,17.3766 c -11.86951,9.55717 -22.66618,17.37663 -23.99265,17.37663 -1.32644,0 -5.38596,-3.27767 -9.02113,-7.28371 z m 515.59907,-9.8985 c -8.7872,-6.28355 -17.3121,-11.42462 -18.94425,-11.42462 -5.62783,0 -6.25792,-5.67188 -1.68583,-15.17496 2.52205,-5.24202 4.75518,-9.90517 4.96258,-10.36255 0.6444,-1.42081 20.9036,10.12152 34.5227,19.66872 14.0523,9.8508 14.3318,12.08979 2.8898,23.14482 l -5.7683,5.57326 z m -253.32187,-14.27109 c -3.15635,-5.83457 -5.3732,-10.95088 -4.92635,-11.36958 2.25963,-2.11746 43.56909,-4.0877 44.71355,-2.13263 0.73256,1.25149 -0.7552,7.19732 -3.30614,13.213 -4.6062,10.86241 -4.72773,10.9374 -17.69018,10.91752 -12.68261,-0.0176 -13.21458,-0.32036 -18.79088,-10.62831 z m 268.20607,-11.71757 c -11.4388,-7.72356 -22.246,-14.04281 -24.0159,-14.04281 -4.1384,0 -4.0593,-3.24267 0.351,-14.38696 4.0412,-10.21173 5.8146,-10.71671 16.8744,-4.80503 12.5616,6.71442 43.5991,27.74221 43.5991,29.53821 0,0.90013 -3.6024,5.25971 -8.0053,9.68799 l -8.0054,8.05142 z m -283.00106,-14.6543 c -2.93128,-5.00754 -5.32957,-10.25587 -5.32957,-11.66298 0,-1.40709 9.14453,-3.30993 20.3212,-4.22853 24.85059,-2.04246 53.57406,-2.20193 53.57406,-0.29745 0,0.77216 -2.23939,6.03841 -4.9764,11.7028 -4.2924,8.88326 -6.10345,10.2989 -13.17584,10.2989 -4.50968,0 -16.49843,0.74067 -26.64166,1.64592 l -18.44226,1.64593 z M 731.96361,-203.134 c -3.14118,-5.90078 -5.29416,-11.16901 -4.78446,-11.70717 4.84432,-5.1146 104.73517,-9.52595 102.60107,-4.53102 -0.45835,1.07275 -2.38425,6.18784 -4.27979,11.36685 l -3.44646,9.41638 -37.18368,1.44306 c -20.45101,0.79366 -39.43634,2.18499 -42.18957,3.09182 -4.01863,1.3236 -6.13235,-0.46721 -10.71711,-9.07992 z m -18.17052,-28.11484 -6.57351,-10.4875 12.5737,-2.84706 c 23.36048,-5.28947 60.6752,-8.39453 90.34877,-7.51817 16.23433,0.47947 30.14852,1.54183 30.92043,2.36083 0.7719,0.81898 -0.35827,6.22421 -2.51147,12.0116 l -3.91492,10.52253 -21.30614,-1.276 c -18.8464,-1.12869 -46.75552,0.94645 -81.76653,6.07963 -10.97014,1.60841 -11.32992,1.42932 -17.77033,-8.84586 z"
         id="path4223"
         inkscape:connector-curvature="0"
         sodipodi:nodetypes="csscssscccsscssssccssssssssscsssssssssssccssssssssscsscscscsssssssssssssssssssssssssssssssssssssssssssssssssssssccsssssccsssscsssscssssssssssssssssscccssssssssssssssscsscscscsscsccsssscsssssscssssccssscccssscsssssssscscsssssssssssssccssscssssssssssscsssssssccccssccsssssssssssscsssssscssscssssssscscsssssscssssssscsssssssssssssssssssscsscsscssssssccssssssssssccssscscscssssscsccssssssssssscssscsssccsssscssssssssssscssscsssssssscssssssscsscccsssssscscssscsscccsscccssssscsssssssssssssssssccsssssssssssscssscssssccsscssssscsssscssssssssssssssssssssscssssssssscsssscsscsscscssssscsscssssssscscscsssssssssscsssssssssssscssssssscsccscsscscsssscsscscscsssscscscssscccsssscssssssccssssssssscssssssssccssssssssssscssssssssccssscscsscssccsssssssccssscsssssssssssscssscscscscsssssssssccscsscscscssscssssccsssccscssscsssssscsscssccscssssssscsssssssscssccscsssscsscscsss" />
    </g>
  </g>
</svg>
